<mxfile host="app.diagrams.net" modified="2023-10-27T23:43:44.341Z" agent="Mozilla/5.0 (Windows NT 10.0; Win64; x64) AppleWebKit/537.36 (KHTML, like Gecko) Chrome/118.0.0.0 Safari/537.36" etag="P2DLAVGzZqaOUr6f5djy" version="22.0.8" type="device">
  <diagram name="Page-1" id="SnDZzZjkEfFAnhWQoTCT">
    <mxGraphModel dx="2206" dy="1169" grid="1" gridSize="10" guides="1" tooltips="1" connect="1" arrows="1" fold="1" page="1" pageScale="1" pageWidth="827" pageHeight="1169" math="0" shadow="0">
      <root>
        <mxCell id="0" />
        <mxCell id="1" parent="0" />
        <mxCell id="vYLdiH_t_LYaYiqmm7H8-1" value="" style="rounded=0;whiteSpace=wrap;html=1;" parent="1" vertex="1">
          <mxGeometry x="500" y="290" width="190" height="90" as="geometry" />
        </mxCell>
        <mxCell id="vYLdiH_t_LYaYiqmm7H8-2" value="Text" style="text;html=1;strokeColor=none;fillColor=none;align=center;verticalAlign=middle;whiteSpace=wrap;rounded=0;" parent="1" vertex="1">
          <mxGeometry x="500" y="290" width="60" height="30" as="geometry" />
        </mxCell>
        <mxCell id="vYLdiH_t_LYaYiqmm7H8-3" value="Text" style="text;html=1;strokeColor=none;fillColor=none;align=center;verticalAlign=middle;whiteSpace=wrap;rounded=0;" parent="1" vertex="1">
          <mxGeometry x="565" y="290" width="60" height="30" as="geometry" />
        </mxCell>
        <mxCell id="vYLdiH_t_LYaYiqmm7H8-4" value="Text" style="text;html=1;strokeColor=none;fillColor=none;align=center;verticalAlign=middle;whiteSpace=wrap;rounded=0;" parent="1" vertex="1">
          <mxGeometry x="560" y="290" width="60" height="30" as="geometry" />
        </mxCell>
        <mxCell id="vYLdiH_t_LYaYiqmm7H8-5" value="" style="rounded=0;whiteSpace=wrap;html=1;" parent="1" vertex="1">
          <mxGeometry x="500" y="290" width="60" height="30" as="geometry" />
        </mxCell>
        <mxCell id="vYLdiH_t_LYaYiqmm7H8-6" value="" style="rounded=0;whiteSpace=wrap;html=1;" parent="1" vertex="1">
          <mxGeometry x="560" y="350" width="60" height="30" as="geometry" />
        </mxCell>
        <mxCell id="vYLdiH_t_LYaYiqmm7H8-7" value="" style="rounded=0;whiteSpace=wrap;html=1;" parent="1" vertex="1">
          <mxGeometry x="620" y="350" width="70" height="30" as="geometry" />
        </mxCell>
        <mxCell id="vYLdiH_t_LYaYiqmm7H8-8" value="" style="rounded=0;whiteSpace=wrap;html=1;" parent="1" vertex="1">
          <mxGeometry x="500" y="350" width="60" height="30" as="geometry" />
        </mxCell>
        <mxCell id="vYLdiH_t_LYaYiqmm7H8-10" value="" style="rounded=0;whiteSpace=wrap;html=1;" parent="1" vertex="1">
          <mxGeometry x="620" y="290" width="70" height="30" as="geometry" />
        </mxCell>
        <mxCell id="vYLdiH_t_LYaYiqmm7H8-11" value="" style="rounded=0;whiteSpace=wrap;html=1;" parent="1" vertex="1">
          <mxGeometry x="560" y="290" width="70" height="30" as="geometry" />
        </mxCell>
        <mxCell id="vYLdiH_t_LYaYiqmm7H8-12" value="3" style="text;html=1;strokeColor=none;fillColor=none;align=center;verticalAlign=middle;whiteSpace=wrap;rounded=0;" parent="1" vertex="1">
          <mxGeometry x="505" y="290" width="60" height="30" as="geometry" />
        </mxCell>
        <mxCell id="vYLdiH_t_LYaYiqmm7H8-13" value="3" style="text;html=1;strokeColor=none;fillColor=none;align=center;verticalAlign=middle;whiteSpace=wrap;rounded=0;" parent="1" vertex="1">
          <mxGeometry x="560" y="290" width="60" height="30" as="geometry" />
        </mxCell>
        <mxCell id="vYLdiH_t_LYaYiqmm7H8-14" value="6" style="text;html=1;strokeColor=none;fillColor=none;align=center;verticalAlign=middle;whiteSpace=wrap;rounded=0;" parent="1" vertex="1">
          <mxGeometry x="630" y="290" width="60" height="30" as="geometry" />
        </mxCell>
        <mxCell id="vYLdiH_t_LYaYiqmm7H8-15" value="Project Planning" style="text;html=1;strokeColor=none;fillColor=none;align=center;verticalAlign=middle;whiteSpace=wrap;rounded=0;" parent="1" vertex="1">
          <mxGeometry x="550" y="320" width="90" height="30" as="geometry" />
        </mxCell>
        <mxCell id="vYLdiH_t_LYaYiqmm7H8-18" value="4" style="text;html=1;strokeColor=none;fillColor=none;align=center;verticalAlign=middle;whiteSpace=wrap;rounded=0;" parent="1" vertex="1">
          <mxGeometry x="500" y="350" width="60" height="30" as="geometry" />
        </mxCell>
        <mxCell id="vYLdiH_t_LYaYiqmm7H8-19" value="7" style="text;html=1;strokeColor=none;fillColor=none;align=center;verticalAlign=middle;whiteSpace=wrap;rounded=0;" parent="1" vertex="1">
          <mxGeometry x="625" y="350" width="60" height="30" as="geometry" />
        </mxCell>
        <mxCell id="vYLdiH_t_LYaYiqmm7H8-20" value="1" style="text;html=1;strokeColor=none;fillColor=none;align=center;verticalAlign=middle;whiteSpace=wrap;rounded=0;" parent="1" vertex="1">
          <mxGeometry x="560" y="350" width="60" height="30" as="geometry" />
        </mxCell>
        <mxCell id="vYLdiH_t_LYaYiqmm7H8-21" value="" style="rounded=0;whiteSpace=wrap;html=1;" parent="1" vertex="1">
          <mxGeometry x="130" y="380" width="190" height="90" as="geometry" />
        </mxCell>
        <mxCell id="vYLdiH_t_LYaYiqmm7H8-22" value="Text" style="text;html=1;strokeColor=none;fillColor=none;align=center;verticalAlign=middle;whiteSpace=wrap;rounded=0;" parent="1" vertex="1">
          <mxGeometry x="130" y="380" width="60" height="30" as="geometry" />
        </mxCell>
        <mxCell id="vYLdiH_t_LYaYiqmm7H8-23" value="Project Charter" style="text;html=1;strokeColor=none;fillColor=none;align=center;verticalAlign=middle;whiteSpace=wrap;rounded=0;" parent="1" vertex="1">
          <mxGeometry x="182.5" y="410" width="85" height="30" as="geometry" />
        </mxCell>
        <mxCell id="vYLdiH_t_LYaYiqmm7H8-24" value="Text" style="text;html=1;strokeColor=none;fillColor=none;align=center;verticalAlign=middle;whiteSpace=wrap;rounded=0;" parent="1" vertex="1">
          <mxGeometry x="190" y="380" width="60" height="30" as="geometry" />
        </mxCell>
        <mxCell id="vYLdiH_t_LYaYiqmm7H8-25" value="" style="rounded=0;whiteSpace=wrap;html=1;" parent="1" vertex="1">
          <mxGeometry x="130" y="380" width="60" height="30" as="geometry" />
        </mxCell>
        <mxCell id="vYLdiH_t_LYaYiqmm7H8-26" value="" style="rounded=0;whiteSpace=wrap;html=1;" parent="1" vertex="1">
          <mxGeometry x="190" y="440" width="60" height="30" as="geometry" />
        </mxCell>
        <mxCell id="vYLdiH_t_LYaYiqmm7H8-27" value="" style="rounded=0;whiteSpace=wrap;html=1;" parent="1" vertex="1">
          <mxGeometry x="250" y="440" width="70" height="30" as="geometry" />
        </mxCell>
        <mxCell id="vYLdiH_t_LYaYiqmm7H8-28" value="" style="rounded=0;whiteSpace=wrap;html=1;" parent="1" vertex="1">
          <mxGeometry x="130" y="440" width="60" height="30" as="geometry" />
        </mxCell>
        <mxCell id="vYLdiH_t_LYaYiqmm7H8-29" value="" style="rounded=0;whiteSpace=wrap;html=1;" parent="1" vertex="1">
          <mxGeometry x="250" y="380" width="70" height="30" as="geometry" />
        </mxCell>
        <mxCell id="vYLdiH_t_LYaYiqmm7H8-30" value="" style="rounded=0;whiteSpace=wrap;html=1;" parent="1" vertex="1">
          <mxGeometry x="190" y="380" width="70" height="30" as="geometry" />
        </mxCell>
        <mxCell id="vYLdiH_t_LYaYiqmm7H8-31" value="0" style="text;html=1;strokeColor=none;fillColor=none;align=center;verticalAlign=middle;whiteSpace=wrap;rounded=0;" parent="1" vertex="1">
          <mxGeometry x="135" y="380" width="60" height="30" as="geometry" />
        </mxCell>
        <mxCell id="vYLdiH_t_LYaYiqmm7H8-32" value="3" style="text;html=1;strokeColor=none;fillColor=none;align=center;verticalAlign=middle;whiteSpace=wrap;rounded=0;" parent="1" vertex="1">
          <mxGeometry x="195" y="380" width="60" height="30" as="geometry" />
        </mxCell>
        <mxCell id="vYLdiH_t_LYaYiqmm7H8-33" value="3" style="text;html=1;strokeColor=none;fillColor=none;align=center;verticalAlign=middle;whiteSpace=wrap;rounded=0;" parent="1" vertex="1">
          <mxGeometry x="260" y="380" width="60" height="30" as="geometry" />
        </mxCell>
        <mxCell id="vYLdiH_t_LYaYiqmm7H8-36" value="3" style="text;html=1;strokeColor=none;fillColor=none;align=center;verticalAlign=middle;whiteSpace=wrap;rounded=0;" parent="1" vertex="1">
          <mxGeometry x="130" y="440" width="60" height="30" as="geometry" />
        </mxCell>
        <mxCell id="vYLdiH_t_LYaYiqmm7H8-37" value="3" style="text;html=1;strokeColor=none;fillColor=none;align=center;verticalAlign=middle;whiteSpace=wrap;rounded=0;" parent="1" vertex="1">
          <mxGeometry x="255" y="440" width="60" height="30" as="geometry" />
        </mxCell>
        <mxCell id="vYLdiH_t_LYaYiqmm7H8-38" value="0" style="text;html=1;strokeColor=none;fillColor=none;align=center;verticalAlign=middle;whiteSpace=wrap;rounded=0;" parent="1" vertex="1">
          <mxGeometry x="190" y="440" width="60" height="30" as="geometry" />
        </mxCell>
        <mxCell id="vYLdiH_t_LYaYiqmm7H8-39" value="" style="endArrow=classic;html=1;rounded=0;" parent="1" edge="1">
          <mxGeometry width="50" height="50" relative="1" as="geometry">
            <mxPoint x="380" y="340" as="sourcePoint" />
            <mxPoint x="500" y="340" as="targetPoint" />
          </mxGeometry>
        </mxCell>
        <mxCell id="vYLdiH_t_LYaYiqmm7H8-41" value="" style="rounded=0;whiteSpace=wrap;html=1;" parent="1" vertex="1">
          <mxGeometry x="505" y="480" width="190" height="90" as="geometry" />
        </mxCell>
        <mxCell id="vYLdiH_t_LYaYiqmm7H8-42" value="Text" style="text;html=1;strokeColor=none;fillColor=none;align=center;verticalAlign=middle;whiteSpace=wrap;rounded=0;" parent="1" vertex="1">
          <mxGeometry x="505" y="480" width="60" height="30" as="geometry" />
        </mxCell>
        <mxCell id="vYLdiH_t_LYaYiqmm7H8-43" value="SRS" style="text;html=1;strokeColor=none;fillColor=none;align=center;verticalAlign=middle;whiteSpace=wrap;rounded=0;" parent="1" vertex="1">
          <mxGeometry x="570" y="510" width="60" height="30" as="geometry" />
        </mxCell>
        <mxCell id="vYLdiH_t_LYaYiqmm7H8-44" value="Text" style="text;html=1;strokeColor=none;fillColor=none;align=center;verticalAlign=middle;whiteSpace=wrap;rounded=0;" parent="1" vertex="1">
          <mxGeometry x="565" y="480" width="60" height="30" as="geometry" />
        </mxCell>
        <mxCell id="vYLdiH_t_LYaYiqmm7H8-45" value="" style="rounded=0;whiteSpace=wrap;html=1;" parent="1" vertex="1">
          <mxGeometry x="505" y="480" width="60" height="30" as="geometry" />
        </mxCell>
        <mxCell id="vYLdiH_t_LYaYiqmm7H8-46" value="" style="rounded=0;whiteSpace=wrap;html=1;" parent="1" vertex="1">
          <mxGeometry x="565" y="540" width="60" height="30" as="geometry" />
        </mxCell>
        <mxCell id="vYLdiH_t_LYaYiqmm7H8-47" value="" style="rounded=0;whiteSpace=wrap;html=1;" parent="1" vertex="1">
          <mxGeometry x="625" y="540" width="70" height="30" as="geometry" />
        </mxCell>
        <mxCell id="vYLdiH_t_LYaYiqmm7H8-48" value="" style="rounded=0;whiteSpace=wrap;html=1;" parent="1" vertex="1">
          <mxGeometry x="505" y="540" width="60" height="30" as="geometry" />
        </mxCell>
        <mxCell id="vYLdiH_t_LYaYiqmm7H8-49" value="" style="rounded=0;whiteSpace=wrap;html=1;" parent="1" vertex="1">
          <mxGeometry x="625" y="480" width="70" height="30" as="geometry" />
        </mxCell>
        <mxCell id="vYLdiH_t_LYaYiqmm7H8-50" value="" style="rounded=0;whiteSpace=wrap;html=1;" parent="1" vertex="1">
          <mxGeometry x="565" y="480" width="70" height="30" as="geometry" />
        </mxCell>
        <mxCell id="vYLdiH_t_LYaYiqmm7H8-51" value="3" style="text;html=1;strokeColor=none;fillColor=none;align=center;verticalAlign=middle;whiteSpace=wrap;rounded=0;" parent="1" vertex="1">
          <mxGeometry x="510" y="480" width="60" height="30" as="geometry" />
        </mxCell>
        <mxCell id="vYLdiH_t_LYaYiqmm7H8-52" value="4" style="text;html=1;strokeColor=none;fillColor=none;align=center;verticalAlign=middle;whiteSpace=wrap;rounded=0;" parent="1" vertex="1">
          <mxGeometry x="570" y="480" width="60" height="30" as="geometry" />
        </mxCell>
        <mxCell id="vYLdiH_t_LYaYiqmm7H8-53" value="7" style="text;html=1;strokeColor=none;fillColor=none;align=center;verticalAlign=middle;whiteSpace=wrap;rounded=0;" parent="1" vertex="1">
          <mxGeometry x="635" y="480" width="60" height="30" as="geometry" />
        </mxCell>
        <mxCell id="vYLdiH_t_LYaYiqmm7H8-56" value="3" style="text;html=1;strokeColor=none;fillColor=none;align=center;verticalAlign=middle;whiteSpace=wrap;rounded=0;" parent="1" vertex="1">
          <mxGeometry x="505" y="540" width="60" height="30" as="geometry" />
        </mxCell>
        <mxCell id="vYLdiH_t_LYaYiqmm7H8-57" value="7" style="text;html=1;strokeColor=none;fillColor=none;align=center;verticalAlign=middle;whiteSpace=wrap;rounded=0;" parent="1" vertex="1">
          <mxGeometry x="630" y="540" width="60" height="30" as="geometry" />
        </mxCell>
        <mxCell id="vYLdiH_t_LYaYiqmm7H8-58" value="0" style="text;html=1;strokeColor=none;fillColor=none;align=center;verticalAlign=middle;whiteSpace=wrap;rounded=0;" parent="1" vertex="1">
          <mxGeometry x="565" y="540" width="60" height="30" as="geometry" />
        </mxCell>
        <mxCell id="vYLdiH_t_LYaYiqmm7H8-62" value="" style="endArrow=none;html=1;rounded=0;fillColor=#ffe6cc;strokeColor=#FF0000;" parent="1" edge="1">
          <mxGeometry width="50" height="50" relative="1" as="geometry">
            <mxPoint x="321" y="430" as="sourcePoint" />
            <mxPoint x="380" y="430" as="targetPoint" />
          </mxGeometry>
        </mxCell>
        <mxCell id="vYLdiH_t_LYaYiqmm7H8-63" value="" style="endArrow=none;html=1;rounded=0;" parent="1" edge="1">
          <mxGeometry width="50" height="50" relative="1" as="geometry">
            <mxPoint x="380" y="430" as="sourcePoint" />
            <mxPoint x="380" y="340" as="targetPoint" />
          </mxGeometry>
        </mxCell>
        <mxCell id="vYLdiH_t_LYaYiqmm7H8-65" value="" style="endArrow=none;html=1;rounded=0;strokeColor=#FF0000;" parent="1" edge="1">
          <mxGeometry width="50" height="50" relative="1" as="geometry">
            <mxPoint x="380" y="520" as="sourcePoint" />
            <mxPoint x="380" y="430" as="targetPoint" />
          </mxGeometry>
        </mxCell>
        <mxCell id="vYLdiH_t_LYaYiqmm7H8-66" value="" style="endArrow=classic;html=1;rounded=0;entryX=0.004;entryY=0.438;entryDx=0;entryDy=0;strokeColor=#FF0000;entryPerimeter=0;" parent="1" target="vYLdiH_t_LYaYiqmm7H8-41" edge="1">
          <mxGeometry width="50" height="50" relative="1" as="geometry">
            <mxPoint x="380" y="520" as="sourcePoint" />
            <mxPoint x="505" y="517.5" as="targetPoint" />
          </mxGeometry>
        </mxCell>
        <mxCell id="vYLdiH_t_LYaYiqmm7H8-67" value="" style="rounded=0;whiteSpace=wrap;html=1;" parent="1" vertex="1">
          <mxGeometry x="810" y="370" width="190" height="90" as="geometry" />
        </mxCell>
        <mxCell id="vYLdiH_t_LYaYiqmm7H8-68" value="Text" style="text;html=1;strokeColor=none;fillColor=none;align=center;verticalAlign=middle;whiteSpace=wrap;rounded=0;" parent="1" vertex="1">
          <mxGeometry x="810" y="370" width="60" height="30" as="geometry" />
        </mxCell>
        <mxCell id="vYLdiH_t_LYaYiqmm7H8-69" value="Risk Assessment" style="text;html=1;strokeColor=none;fillColor=none;align=center;verticalAlign=middle;whiteSpace=wrap;rounded=0;" parent="1" vertex="1">
          <mxGeometry x="857.5" y="400" width="95" height="30" as="geometry" />
        </mxCell>
        <mxCell id="vYLdiH_t_LYaYiqmm7H8-70" value="Text" style="text;html=1;strokeColor=none;fillColor=none;align=center;verticalAlign=middle;whiteSpace=wrap;rounded=0;" parent="1" vertex="1">
          <mxGeometry x="870" y="370" width="60" height="30" as="geometry" />
        </mxCell>
        <mxCell id="vYLdiH_t_LYaYiqmm7H8-71" value="" style="rounded=0;whiteSpace=wrap;html=1;" parent="1" vertex="1">
          <mxGeometry x="810" y="370" width="60" height="30" as="geometry" />
        </mxCell>
        <mxCell id="vYLdiH_t_LYaYiqmm7H8-72" value="" style="rounded=0;whiteSpace=wrap;html=1;" parent="1" vertex="1">
          <mxGeometry x="870" y="430" width="60" height="30" as="geometry" />
        </mxCell>
        <mxCell id="vYLdiH_t_LYaYiqmm7H8-73" value="" style="rounded=0;whiteSpace=wrap;html=1;" parent="1" vertex="1">
          <mxGeometry x="930" y="430" width="70" height="30" as="geometry" />
        </mxCell>
        <mxCell id="vYLdiH_t_LYaYiqmm7H8-74" value="" style="rounded=0;whiteSpace=wrap;html=1;" parent="1" vertex="1">
          <mxGeometry x="810" y="430" width="60" height="30" as="geometry" />
        </mxCell>
        <mxCell id="vYLdiH_t_LYaYiqmm7H8-75" value="" style="rounded=0;whiteSpace=wrap;html=1;" parent="1" vertex="1">
          <mxGeometry x="930" y="370" width="70" height="30" as="geometry" />
        </mxCell>
        <mxCell id="vYLdiH_t_LYaYiqmm7H8-76" value="" style="rounded=0;whiteSpace=wrap;html=1;" parent="1" vertex="1">
          <mxGeometry x="870" y="370" width="70" height="30" as="geometry" />
        </mxCell>
        <mxCell id="vYLdiH_t_LYaYiqmm7H8-77" value="7" style="text;html=1;strokeColor=none;fillColor=none;align=center;verticalAlign=middle;whiteSpace=wrap;rounded=0;" parent="1" vertex="1">
          <mxGeometry x="815" y="370" width="60" height="30" as="geometry" />
        </mxCell>
        <mxCell id="vYLdiH_t_LYaYiqmm7H8-78" value="5" style="text;html=1;strokeColor=none;fillColor=none;align=center;verticalAlign=middle;whiteSpace=wrap;rounded=0;" parent="1" vertex="1">
          <mxGeometry x="875" y="370" width="60" height="30" as="geometry" />
        </mxCell>
        <mxCell id="vYLdiH_t_LYaYiqmm7H8-79" value="12" style="text;html=1;strokeColor=none;fillColor=none;align=center;verticalAlign=middle;whiteSpace=wrap;rounded=0;" parent="1" vertex="1">
          <mxGeometry x="940" y="370" width="60" height="30" as="geometry" />
        </mxCell>
        <mxCell id="vYLdiH_t_LYaYiqmm7H8-82" value="7" style="text;html=1;strokeColor=none;fillColor=none;align=center;verticalAlign=middle;whiteSpace=wrap;rounded=0;" parent="1" vertex="1">
          <mxGeometry x="810" y="430" width="60" height="30" as="geometry" />
        </mxCell>
        <mxCell id="vYLdiH_t_LYaYiqmm7H8-84" value="0" style="text;html=1;strokeColor=none;fillColor=none;align=center;verticalAlign=middle;whiteSpace=wrap;rounded=0;" parent="1" vertex="1">
          <mxGeometry x="870" y="430" width="60" height="30" as="geometry" />
        </mxCell>
        <mxCell id="vYLdiH_t_LYaYiqmm7H8-121" value="" style="rounded=0;whiteSpace=wrap;html=1;" parent="1" vertex="1">
          <mxGeometry x="1550" y="172.5" width="190" height="90" as="geometry" />
        </mxCell>
        <mxCell id="vYLdiH_t_LYaYiqmm7H8-122" value="Text" style="text;html=1;strokeColor=none;fillColor=none;align=center;verticalAlign=middle;whiteSpace=wrap;rounded=0;" parent="1" vertex="1">
          <mxGeometry x="1550" y="172.5" width="60" height="30" as="geometry" />
        </mxCell>
        <mxCell id="vYLdiH_t_LYaYiqmm7H8-123" value="Text" style="text;html=1;strokeColor=none;fillColor=none;align=center;verticalAlign=middle;whiteSpace=wrap;rounded=0;" parent="1" vertex="1">
          <mxGeometry x="1615" y="172.5" width="60" height="30" as="geometry" />
        </mxCell>
        <mxCell id="vYLdiH_t_LYaYiqmm7H8-124" value="Text" style="text;html=1;strokeColor=none;fillColor=none;align=center;verticalAlign=middle;whiteSpace=wrap;rounded=0;" parent="1" vertex="1">
          <mxGeometry x="1610" y="172.5" width="60" height="30" as="geometry" />
        </mxCell>
        <mxCell id="vYLdiH_t_LYaYiqmm7H8-125" value="" style="rounded=0;whiteSpace=wrap;html=1;" parent="1" vertex="1">
          <mxGeometry x="1550" y="172.5" width="60" height="30" as="geometry" />
        </mxCell>
        <mxCell id="vYLdiH_t_LYaYiqmm7H8-126" value="" style="rounded=0;whiteSpace=wrap;html=1;" parent="1" vertex="1">
          <mxGeometry x="1610" y="232.5" width="60" height="30" as="geometry" />
        </mxCell>
        <mxCell id="vYLdiH_t_LYaYiqmm7H8-127" value="" style="rounded=0;whiteSpace=wrap;html=1;" parent="1" vertex="1">
          <mxGeometry x="1670" y="232.5" width="70" height="30" as="geometry" />
        </mxCell>
        <mxCell id="vYLdiH_t_LYaYiqmm7H8-128" value="" style="rounded=0;whiteSpace=wrap;html=1;" parent="1" vertex="1">
          <mxGeometry x="1550" y="232.5" width="60" height="30" as="geometry" />
        </mxCell>
        <mxCell id="vYLdiH_t_LYaYiqmm7H8-129" value="" style="rounded=0;whiteSpace=wrap;html=1;" parent="1" vertex="1">
          <mxGeometry x="1670" y="172.5" width="70" height="30" as="geometry" />
        </mxCell>
        <mxCell id="vYLdiH_t_LYaYiqmm7H8-130" value="" style="rounded=0;whiteSpace=wrap;html=1;" parent="1" vertex="1">
          <mxGeometry x="1610" y="172.5" width="70" height="30" as="geometry" />
        </mxCell>
        <mxCell id="vYLdiH_t_LYaYiqmm7H8-131" value="19" style="text;html=1;strokeColor=none;fillColor=none;align=center;verticalAlign=middle;whiteSpace=wrap;rounded=0;" parent="1" vertex="1">
          <mxGeometry x="1555" y="172.5" width="60" height="30" as="geometry" />
        </mxCell>
        <mxCell id="vYLdiH_t_LYaYiqmm7H8-132" value="1" style="text;html=1;strokeColor=none;fillColor=none;align=center;verticalAlign=middle;whiteSpace=wrap;rounded=0;" parent="1" vertex="1">
          <mxGeometry x="1610" y="172.5" width="60" height="30" as="geometry" />
        </mxCell>
        <mxCell id="vYLdiH_t_LYaYiqmm7H8-133" value="20" style="text;html=1;strokeColor=none;fillColor=none;align=center;verticalAlign=middle;whiteSpace=wrap;rounded=0;" parent="1" vertex="1">
          <mxGeometry x="1680" y="172.5" width="60" height="30" as="geometry" />
        </mxCell>
        <mxCell id="vYLdiH_t_LYaYiqmm7H8-134" value="Login Page" style="text;html=1;strokeColor=none;fillColor=none;align=center;verticalAlign=middle;whiteSpace=wrap;rounded=0;" parent="1" vertex="1">
          <mxGeometry x="1600" y="202.5" width="75" height="30" as="geometry" />
        </mxCell>
        <mxCell id="vYLdiH_t_LYaYiqmm7H8-136" value="32" style="text;html=1;strokeColor=none;fillColor=none;align=center;verticalAlign=middle;whiteSpace=wrap;rounded=0;" parent="1" vertex="1">
          <mxGeometry x="1550" y="232.5" width="60" height="30" as="geometry" />
        </mxCell>
        <mxCell id="vYLdiH_t_LYaYiqmm7H8-137" value="33" style="text;html=1;strokeColor=none;fillColor=none;align=center;verticalAlign=middle;whiteSpace=wrap;rounded=0;" parent="1" vertex="1">
          <mxGeometry x="1675" y="232.5" width="60" height="30" as="geometry" />
        </mxCell>
        <mxCell id="vYLdiH_t_LYaYiqmm7H8-138" value="13" style="text;html=1;strokeColor=none;fillColor=none;align=center;verticalAlign=middle;whiteSpace=wrap;rounded=0;" parent="1" vertex="1">
          <mxGeometry x="1610" y="232.5" width="60" height="30" as="geometry" />
        </mxCell>
        <mxCell id="vYLdiH_t_LYaYiqmm7H8-139" value="" style="rounded=0;whiteSpace=wrap;html=1;" parent="1" vertex="1">
          <mxGeometry x="1180" y="262.5" width="190" height="90" as="geometry" />
        </mxCell>
        <mxCell id="vYLdiH_t_LYaYiqmm7H8-140" value="Text" style="text;html=1;strokeColor=none;fillColor=none;align=center;verticalAlign=middle;whiteSpace=wrap;rounded=0;" parent="1" vertex="1">
          <mxGeometry x="1180" y="262.5" width="60" height="30" as="geometry" />
        </mxCell>
        <mxCell id="vYLdiH_t_LYaYiqmm7H8-141" value="UX/UI" style="text;html=1;strokeColor=none;fillColor=none;align=center;verticalAlign=middle;whiteSpace=wrap;rounded=0;" parent="1" vertex="1">
          <mxGeometry x="1245" y="292.5" width="60" height="30" as="geometry" />
        </mxCell>
        <mxCell id="vYLdiH_t_LYaYiqmm7H8-142" value="Text" style="text;html=1;strokeColor=none;fillColor=none;align=center;verticalAlign=middle;whiteSpace=wrap;rounded=0;" parent="1" vertex="1">
          <mxGeometry x="1240" y="262.5" width="60" height="30" as="geometry" />
        </mxCell>
        <mxCell id="vYLdiH_t_LYaYiqmm7H8-143" value="" style="rounded=0;whiteSpace=wrap;html=1;" parent="1" vertex="1">
          <mxGeometry x="1180" y="262.5" width="60" height="30" as="geometry" />
        </mxCell>
        <mxCell id="vYLdiH_t_LYaYiqmm7H8-144" value="" style="rounded=0;whiteSpace=wrap;html=1;" parent="1" vertex="1">
          <mxGeometry x="1240" y="322.5" width="60" height="30" as="geometry" />
        </mxCell>
        <mxCell id="vYLdiH_t_LYaYiqmm7H8-145" value="" style="rounded=0;whiteSpace=wrap;html=1;" parent="1" vertex="1">
          <mxGeometry x="1300" y="322.5" width="70" height="30" as="geometry" />
        </mxCell>
        <mxCell id="vYLdiH_t_LYaYiqmm7H8-146" value="" style="rounded=0;whiteSpace=wrap;html=1;" parent="1" vertex="1">
          <mxGeometry x="1180" y="322.5" width="60" height="30" as="geometry" />
        </mxCell>
        <mxCell id="vYLdiH_t_LYaYiqmm7H8-147" value="" style="rounded=0;whiteSpace=wrap;html=1;" parent="1" vertex="1">
          <mxGeometry x="1300" y="262.5" width="70" height="30" as="geometry" />
        </mxCell>
        <mxCell id="vYLdiH_t_LYaYiqmm7H8-148" value="" style="rounded=0;whiteSpace=wrap;html=1;" parent="1" vertex="1">
          <mxGeometry x="1240" y="262.5" width="70" height="30" as="geometry" />
        </mxCell>
        <mxCell id="vYLdiH_t_LYaYiqmm7H8-149" value="12" style="text;html=1;strokeColor=none;fillColor=none;align=center;verticalAlign=middle;whiteSpace=wrap;rounded=0;" parent="1" vertex="1">
          <mxGeometry x="1185" y="262.5" width="60" height="30" as="geometry" />
        </mxCell>
        <mxCell id="vYLdiH_t_LYaYiqmm7H8-150" value="7" style="text;html=1;strokeColor=none;fillColor=none;align=center;verticalAlign=middle;whiteSpace=wrap;rounded=0;" parent="1" vertex="1">
          <mxGeometry x="1245" y="262.5" width="60" height="30" as="geometry" />
        </mxCell>
        <mxCell id="vYLdiH_t_LYaYiqmm7H8-151" value="19" style="text;html=1;strokeColor=none;fillColor=none;align=center;verticalAlign=middle;whiteSpace=wrap;rounded=0;" parent="1" vertex="1">
          <mxGeometry x="1310" y="262.5" width="60" height="30" as="geometry" />
        </mxCell>
        <mxCell id="vYLdiH_t_LYaYiqmm7H8-154" value="24" style="text;html=1;strokeColor=none;fillColor=none;align=center;verticalAlign=middle;whiteSpace=wrap;rounded=0;" parent="1" vertex="1">
          <mxGeometry x="1180" y="322.5" width="60" height="30" as="geometry" />
        </mxCell>
        <mxCell id="vYLdiH_t_LYaYiqmm7H8-155" value="31" style="text;html=1;strokeColor=none;fillColor=none;align=center;verticalAlign=middle;whiteSpace=wrap;rounded=0;" parent="1" vertex="1">
          <mxGeometry x="1305" y="322.5" width="60" height="30" as="geometry" />
        </mxCell>
        <mxCell id="vYLdiH_t_LYaYiqmm7H8-156" value="12" style="text;html=1;strokeColor=none;fillColor=none;align=center;verticalAlign=middle;whiteSpace=wrap;rounded=0;" parent="1" vertex="1">
          <mxGeometry x="1240" y="322.5" width="60" height="30" as="geometry" />
        </mxCell>
        <mxCell id="vYLdiH_t_LYaYiqmm7H8-157" value="" style="endArrow=classic;html=1;rounded=0;" parent="1" edge="1">
          <mxGeometry width="50" height="50" relative="1" as="geometry">
            <mxPoint x="1430" y="222.5" as="sourcePoint" />
            <mxPoint x="1550" y="222.5" as="targetPoint" />
          </mxGeometry>
        </mxCell>
        <mxCell id="vYLdiH_t_LYaYiqmm7H8-158" value="" style="rounded=0;whiteSpace=wrap;html=1;" parent="1" vertex="1">
          <mxGeometry x="1555" y="362.5" width="190" height="90" as="geometry" />
        </mxCell>
        <mxCell id="vYLdiH_t_LYaYiqmm7H8-159" value="Text" style="text;html=1;strokeColor=none;fillColor=none;align=center;verticalAlign=middle;whiteSpace=wrap;rounded=0;" parent="1" vertex="1">
          <mxGeometry x="1555" y="362.5" width="60" height="30" as="geometry" />
        </mxCell>
        <mxCell id="vYLdiH_t_LYaYiqmm7H8-160" value="Account Management Page" style="text;html=1;strokeColor=none;fillColor=none;align=center;verticalAlign=middle;whiteSpace=wrap;rounded=0;" parent="1" vertex="1">
          <mxGeometry x="1560" y="392.5" width="170" height="30" as="geometry" />
        </mxCell>
        <mxCell id="vYLdiH_t_LYaYiqmm7H8-161" value="Text" style="text;html=1;strokeColor=none;fillColor=none;align=center;verticalAlign=middle;whiteSpace=wrap;rounded=0;" parent="1" vertex="1">
          <mxGeometry x="1615" y="362.5" width="60" height="30" as="geometry" />
        </mxCell>
        <mxCell id="vYLdiH_t_LYaYiqmm7H8-162" value="" style="rounded=0;whiteSpace=wrap;html=1;" parent="1" vertex="1">
          <mxGeometry x="1555" y="362.5" width="60" height="30" as="geometry" />
        </mxCell>
        <mxCell id="vYLdiH_t_LYaYiqmm7H8-163" value="" style="rounded=0;whiteSpace=wrap;html=1;" parent="1" vertex="1">
          <mxGeometry x="1615" y="422.5" width="60" height="30" as="geometry" />
        </mxCell>
        <mxCell id="vYLdiH_t_LYaYiqmm7H8-164" value="" style="rounded=0;whiteSpace=wrap;html=1;" parent="1" vertex="1">
          <mxGeometry x="1675" y="422.5" width="70" height="30" as="geometry" />
        </mxCell>
        <mxCell id="vYLdiH_t_LYaYiqmm7H8-165" value="" style="rounded=0;whiteSpace=wrap;html=1;" parent="1" vertex="1">
          <mxGeometry x="1555" y="422.5" width="60" height="30" as="geometry" />
        </mxCell>
        <mxCell id="vYLdiH_t_LYaYiqmm7H8-166" value="" style="rounded=0;whiteSpace=wrap;html=1;" parent="1" vertex="1">
          <mxGeometry x="1675" y="362.5" width="70" height="30" as="geometry" />
        </mxCell>
        <mxCell id="vYLdiH_t_LYaYiqmm7H8-167" value="" style="rounded=0;whiteSpace=wrap;html=1;" parent="1" vertex="1">
          <mxGeometry x="1615" y="362.5" width="70" height="30" as="geometry" />
        </mxCell>
        <mxCell id="vYLdiH_t_LYaYiqmm7H8-168" value="19" style="text;html=1;strokeColor=none;fillColor=none;align=center;verticalAlign=middle;whiteSpace=wrap;rounded=0;" parent="1" vertex="1">
          <mxGeometry x="1560" y="362.5" width="60" height="30" as="geometry" />
        </mxCell>
        <mxCell id="vYLdiH_t_LYaYiqmm7H8-169" value="2" style="text;html=1;strokeColor=none;fillColor=none;align=center;verticalAlign=middle;whiteSpace=wrap;rounded=0;" parent="1" vertex="1">
          <mxGeometry x="1620" y="362.5" width="60" height="30" as="geometry" />
        </mxCell>
        <mxCell id="vYLdiH_t_LYaYiqmm7H8-170" value="21" style="text;html=1;strokeColor=none;fillColor=none;align=center;verticalAlign=middle;whiteSpace=wrap;rounded=0;" parent="1" vertex="1">
          <mxGeometry x="1685" y="362.5" width="60" height="30" as="geometry" />
        </mxCell>
        <mxCell id="vYLdiH_t_LYaYiqmm7H8-173" value="31" style="text;html=1;strokeColor=none;fillColor=none;align=center;verticalAlign=middle;whiteSpace=wrap;rounded=0;" parent="1" vertex="1">
          <mxGeometry x="1555" y="422.5" width="60" height="30" as="geometry" />
        </mxCell>
        <mxCell id="vYLdiH_t_LYaYiqmm7H8-174" value="33" style="text;html=1;strokeColor=none;fillColor=none;align=center;verticalAlign=middle;whiteSpace=wrap;rounded=0;" parent="1" vertex="1">
          <mxGeometry x="1680" y="422.5" width="60" height="30" as="geometry" />
        </mxCell>
        <mxCell id="vYLdiH_t_LYaYiqmm7H8-175" value="12" style="text;html=1;strokeColor=none;fillColor=none;align=center;verticalAlign=middle;whiteSpace=wrap;rounded=0;" parent="1" vertex="1">
          <mxGeometry x="1615" y="422.5" width="60" height="30" as="geometry" />
        </mxCell>
        <mxCell id="vYLdiH_t_LYaYiqmm7H8-176" value="" style="endArrow=none;html=1;rounded=0;" parent="1" edge="1">
          <mxGeometry width="50" height="50" relative="1" as="geometry">
            <mxPoint x="1371" y="312.5" as="sourcePoint" />
            <mxPoint x="1430" y="312.5" as="targetPoint" />
          </mxGeometry>
        </mxCell>
        <mxCell id="vYLdiH_t_LYaYiqmm7H8-177" value="" style="endArrow=none;html=1;rounded=0;" parent="1" edge="1">
          <mxGeometry width="50" height="50" relative="1" as="geometry">
            <mxPoint x="1430" y="312.5" as="sourcePoint" />
            <mxPoint x="1430" y="222.5" as="targetPoint" />
          </mxGeometry>
        </mxCell>
        <mxCell id="vYLdiH_t_LYaYiqmm7H8-178" value="" style="endArrow=none;html=1;rounded=0;" parent="1" edge="1">
          <mxGeometry width="50" height="50" relative="1" as="geometry">
            <mxPoint x="1430" y="402.5" as="sourcePoint" />
            <mxPoint x="1430" y="312.5" as="targetPoint" />
          </mxGeometry>
        </mxCell>
        <mxCell id="vYLdiH_t_LYaYiqmm7H8-179" value="" style="endArrow=classic;html=1;rounded=0;entryX=-0.003;entryY=0.447;entryDx=0;entryDy=0;entryPerimeter=0;" parent="1" target="vYLdiH_t_LYaYiqmm7H8-158" edge="1">
          <mxGeometry width="50" height="50" relative="1" as="geometry">
            <mxPoint x="1430" y="402.5" as="sourcePoint" />
            <mxPoint x="1555" y="400" as="targetPoint" />
          </mxGeometry>
        </mxCell>
        <mxCell id="vYLdiH_t_LYaYiqmm7H8-180" value="" style="rounded=0;whiteSpace=wrap;html=1;" parent="1" vertex="1">
          <mxGeometry x="1550" y="472.5" width="190" height="90" as="geometry" />
        </mxCell>
        <mxCell id="vYLdiH_t_LYaYiqmm7H8-181" value="Text" style="text;html=1;strokeColor=none;fillColor=none;align=center;verticalAlign=middle;whiteSpace=wrap;rounded=0;" parent="1" vertex="1">
          <mxGeometry x="1550" y="472.5" width="60" height="30" as="geometry" />
        </mxCell>
        <mxCell id="vYLdiH_t_LYaYiqmm7H8-182" value="Text" style="text;html=1;strokeColor=none;fillColor=none;align=center;verticalAlign=middle;whiteSpace=wrap;rounded=0;" parent="1" vertex="1">
          <mxGeometry x="1615" y="472.5" width="60" height="30" as="geometry" />
        </mxCell>
        <mxCell id="vYLdiH_t_LYaYiqmm7H8-183" value="Text" style="text;html=1;strokeColor=none;fillColor=none;align=center;verticalAlign=middle;whiteSpace=wrap;rounded=0;" parent="1" vertex="1">
          <mxGeometry x="1610" y="472.5" width="60" height="30" as="geometry" />
        </mxCell>
        <mxCell id="vYLdiH_t_LYaYiqmm7H8-184" value="" style="rounded=0;whiteSpace=wrap;html=1;" parent="1" vertex="1">
          <mxGeometry x="1550" y="472.5" width="60" height="30" as="geometry" />
        </mxCell>
        <mxCell id="vYLdiH_t_LYaYiqmm7H8-185" value="" style="rounded=0;whiteSpace=wrap;html=1;" parent="1" vertex="1">
          <mxGeometry x="1610" y="532.5" width="60" height="30" as="geometry" />
        </mxCell>
        <mxCell id="vYLdiH_t_LYaYiqmm7H8-186" value="" style="rounded=0;whiteSpace=wrap;html=1;" parent="1" vertex="1">
          <mxGeometry x="1670" y="532.5" width="70" height="30" as="geometry" />
        </mxCell>
        <mxCell id="vYLdiH_t_LYaYiqmm7H8-187" value="" style="rounded=0;whiteSpace=wrap;html=1;" parent="1" vertex="1">
          <mxGeometry x="1550" y="532.5" width="60" height="30" as="geometry" />
        </mxCell>
        <mxCell id="vYLdiH_t_LYaYiqmm7H8-188" value="" style="rounded=0;whiteSpace=wrap;html=1;" parent="1" vertex="1">
          <mxGeometry x="1670" y="472.5" width="70" height="30" as="geometry" />
        </mxCell>
        <mxCell id="vYLdiH_t_LYaYiqmm7H8-189" value="" style="rounded=0;whiteSpace=wrap;html=1;" parent="1" vertex="1">
          <mxGeometry x="1610" y="472.5" width="70" height="30" as="geometry" />
        </mxCell>
        <mxCell id="vYLdiH_t_LYaYiqmm7H8-190" value="22" style="text;html=1;strokeColor=none;fillColor=none;align=center;verticalAlign=middle;whiteSpace=wrap;rounded=0;" parent="1" vertex="1">
          <mxGeometry x="1555" y="472.5" width="60" height="30" as="geometry" />
        </mxCell>
        <mxCell id="vYLdiH_t_LYaYiqmm7H8-191" value="2" style="text;html=1;strokeColor=none;fillColor=none;align=center;verticalAlign=middle;whiteSpace=wrap;rounded=0;" parent="1" vertex="1">
          <mxGeometry x="1610" y="472.5" width="60" height="30" as="geometry" />
        </mxCell>
        <mxCell id="vYLdiH_t_LYaYiqmm7H8-192" value="24" style="text;html=1;strokeColor=none;fillColor=none;align=center;verticalAlign=middle;whiteSpace=wrap;rounded=0;" parent="1" vertex="1">
          <mxGeometry x="1680" y="472.5" width="60" height="30" as="geometry" />
        </mxCell>
        <mxCell id="vYLdiH_t_LYaYiqmm7H8-193" value="Authentication" style="text;html=1;strokeColor=none;fillColor=none;align=center;verticalAlign=middle;whiteSpace=wrap;rounded=0;" parent="1" vertex="1">
          <mxGeometry x="1615" y="502.5" width="60" height="30" as="geometry" />
        </mxCell>
        <mxCell id="vYLdiH_t_LYaYiqmm7H8-195" value="24" style="text;html=1;strokeColor=none;fillColor=none;align=center;verticalAlign=middle;whiteSpace=wrap;rounded=0;" parent="1" vertex="1">
          <mxGeometry x="1550" y="532.5" width="60" height="30" as="geometry" />
        </mxCell>
        <mxCell id="vYLdiH_t_LYaYiqmm7H8-196" value="26" style="text;html=1;strokeColor=none;fillColor=none;align=center;verticalAlign=middle;whiteSpace=wrap;rounded=0;" parent="1" vertex="1">
          <mxGeometry x="1675" y="532.5" width="60" height="30" as="geometry" />
        </mxCell>
        <mxCell id="vYLdiH_t_LYaYiqmm7H8-197" value="2" style="text;html=1;strokeColor=none;fillColor=none;align=center;verticalAlign=middle;whiteSpace=wrap;rounded=0;" parent="1" vertex="1">
          <mxGeometry x="1610" y="532.5" width="60" height="30" as="geometry" />
        </mxCell>
        <mxCell id="vYLdiH_t_LYaYiqmm7H8-198" value="" style="rounded=0;whiteSpace=wrap;html=1;" parent="1" vertex="1">
          <mxGeometry x="1180" y="562.5" width="190" height="90" as="geometry" />
        </mxCell>
        <mxCell id="vYLdiH_t_LYaYiqmm7H8-199" value="Text" style="text;html=1;strokeColor=none;fillColor=none;align=center;verticalAlign=middle;whiteSpace=wrap;rounded=0;" parent="1" vertex="1">
          <mxGeometry x="1180" y="562.5" width="60" height="30" as="geometry" />
        </mxCell>
        <mxCell id="vYLdiH_t_LYaYiqmm7H8-200" value="Wireframe" style="text;html=1;strokeColor=none;fillColor=none;align=center;verticalAlign=middle;whiteSpace=wrap;rounded=0;" parent="1" vertex="1">
          <mxGeometry x="1245" y="592.5" width="60" height="30" as="geometry" />
        </mxCell>
        <mxCell id="vYLdiH_t_LYaYiqmm7H8-201" value="Text" style="text;html=1;strokeColor=none;fillColor=none;align=center;verticalAlign=middle;whiteSpace=wrap;rounded=0;" parent="1" vertex="1">
          <mxGeometry x="1240" y="562.5" width="60" height="30" as="geometry" />
        </mxCell>
        <mxCell id="vYLdiH_t_LYaYiqmm7H8-202" value="" style="rounded=0;whiteSpace=wrap;html=1;" parent="1" vertex="1">
          <mxGeometry x="1180" y="562.5" width="60" height="30" as="geometry" />
        </mxCell>
        <mxCell id="vYLdiH_t_LYaYiqmm7H8-203" value="" style="rounded=0;whiteSpace=wrap;html=1;" parent="1" vertex="1">
          <mxGeometry x="1240" y="622.5" width="60" height="30" as="geometry" />
        </mxCell>
        <mxCell id="vYLdiH_t_LYaYiqmm7H8-204" value="" style="rounded=0;whiteSpace=wrap;html=1;" parent="1" vertex="1">
          <mxGeometry x="1300" y="622.5" width="70" height="30" as="geometry" />
        </mxCell>
        <mxCell id="vYLdiH_t_LYaYiqmm7H8-205" value="" style="rounded=0;whiteSpace=wrap;html=1;" parent="1" vertex="1">
          <mxGeometry x="1180" y="622.5" width="60" height="30" as="geometry" />
        </mxCell>
        <mxCell id="vYLdiH_t_LYaYiqmm7H8-206" value="" style="rounded=0;whiteSpace=wrap;html=1;" parent="1" vertex="1">
          <mxGeometry x="1300" y="562.5" width="70" height="30" as="geometry" />
        </mxCell>
        <mxCell id="vYLdiH_t_LYaYiqmm7H8-207" value="" style="rounded=0;whiteSpace=wrap;html=1;" parent="1" vertex="1">
          <mxGeometry x="1240" y="562.5" width="70" height="30" as="geometry" />
        </mxCell>
        <mxCell id="vYLdiH_t_LYaYiqmm7H8-208" value="12" style="text;html=1;strokeColor=none;fillColor=none;align=center;verticalAlign=middle;whiteSpace=wrap;rounded=0;" parent="1" vertex="1">
          <mxGeometry x="1185" y="562.5" width="60" height="30" as="geometry" />
        </mxCell>
        <mxCell id="vYLdiH_t_LYaYiqmm7H8-209" value="10" style="text;html=1;strokeColor=none;fillColor=none;align=center;verticalAlign=middle;whiteSpace=wrap;rounded=0;" parent="1" vertex="1">
          <mxGeometry x="1245" y="562.5" width="60" height="30" as="geometry" />
        </mxCell>
        <mxCell id="vYLdiH_t_LYaYiqmm7H8-210" value="22" style="text;html=1;strokeColor=none;fillColor=none;align=center;verticalAlign=middle;whiteSpace=wrap;rounded=0;" parent="1" vertex="1">
          <mxGeometry x="1310" y="562.5" width="60" height="30" as="geometry" />
        </mxCell>
        <mxCell id="vYLdiH_t_LYaYiqmm7H8-212" value="12" style="text;html=1;strokeColor=none;fillColor=none;align=center;verticalAlign=middle;whiteSpace=wrap;rounded=0;" parent="1" vertex="1">
          <mxGeometry x="935" y="430" width="60" height="30" as="geometry" />
        </mxCell>
        <mxCell id="vYLdiH_t_LYaYiqmm7H8-213" value="12" style="text;html=1;strokeColor=none;fillColor=none;align=center;verticalAlign=middle;whiteSpace=wrap;rounded=0;" parent="1" vertex="1">
          <mxGeometry x="1180" y="622.5" width="60" height="30" as="geometry" />
        </mxCell>
        <mxCell id="vYLdiH_t_LYaYiqmm7H8-214" value="22" style="text;html=1;strokeColor=none;fillColor=none;align=center;verticalAlign=middle;whiteSpace=wrap;rounded=0;" parent="1" vertex="1">
          <mxGeometry x="1305" y="622.5" width="60" height="30" as="geometry" />
        </mxCell>
        <mxCell id="vYLdiH_t_LYaYiqmm7H8-215" value="0" style="text;html=1;strokeColor=none;fillColor=none;align=center;verticalAlign=middle;whiteSpace=wrap;rounded=0;" parent="1" vertex="1">
          <mxGeometry x="1240" y="622.5" width="60" height="30" as="geometry" />
        </mxCell>
        <mxCell id="vYLdiH_t_LYaYiqmm7H8-216" value="" style="endArrow=classic;html=1;rounded=0;" parent="1" edge="1">
          <mxGeometry width="50" height="50" relative="1" as="geometry">
            <mxPoint x="1430" y="522.5" as="sourcePoint" />
            <mxPoint x="1550" y="522.5" as="targetPoint" />
          </mxGeometry>
        </mxCell>
        <mxCell id="vYLdiH_t_LYaYiqmm7H8-217" value="" style="rounded=0;whiteSpace=wrap;html=1;" parent="1" vertex="1">
          <mxGeometry x="1555" y="662.5" width="190" height="90" as="geometry" />
        </mxCell>
        <mxCell id="vYLdiH_t_LYaYiqmm7H8-218" value="Text" style="text;html=1;strokeColor=none;fillColor=none;align=center;verticalAlign=middle;whiteSpace=wrap;rounded=0;" parent="1" vertex="1">
          <mxGeometry x="1555" y="662.5" width="60" height="30" as="geometry" />
        </mxCell>
        <mxCell id="vYLdiH_t_LYaYiqmm7H8-219" value="User Account Management" style="text;html=1;strokeColor=none;fillColor=none;align=center;verticalAlign=middle;whiteSpace=wrap;rounded=0;" parent="1" vertex="1">
          <mxGeometry x="1570" y="692.5" width="160" height="30" as="geometry" />
        </mxCell>
        <mxCell id="vYLdiH_t_LYaYiqmm7H8-220" value="Text" style="text;html=1;strokeColor=none;fillColor=none;align=center;verticalAlign=middle;whiteSpace=wrap;rounded=0;" parent="1" vertex="1">
          <mxGeometry x="1615" y="662.5" width="60" height="30" as="geometry" />
        </mxCell>
        <mxCell id="vYLdiH_t_LYaYiqmm7H8-221" value="" style="rounded=0;whiteSpace=wrap;html=1;" parent="1" vertex="1">
          <mxGeometry x="1555" y="662.5" width="60" height="30" as="geometry" />
        </mxCell>
        <mxCell id="vYLdiH_t_LYaYiqmm7H8-222" value="" style="rounded=0;whiteSpace=wrap;html=1;" parent="1" vertex="1">
          <mxGeometry x="1615" y="722.5" width="60" height="30" as="geometry" />
        </mxCell>
        <mxCell id="vYLdiH_t_LYaYiqmm7H8-223" value="" style="rounded=0;whiteSpace=wrap;html=1;" parent="1" vertex="1">
          <mxGeometry x="1675" y="722.5" width="70" height="30" as="geometry" />
        </mxCell>
        <mxCell id="vYLdiH_t_LYaYiqmm7H8-224" value="" style="rounded=0;whiteSpace=wrap;html=1;" parent="1" vertex="1">
          <mxGeometry x="1555" y="722.5" width="60" height="30" as="geometry" />
        </mxCell>
        <mxCell id="vYLdiH_t_LYaYiqmm7H8-225" value="" style="rounded=0;whiteSpace=wrap;html=1;" parent="1" vertex="1">
          <mxGeometry x="1675" y="662.5" width="70" height="30" as="geometry" />
        </mxCell>
        <mxCell id="vYLdiH_t_LYaYiqmm7H8-226" value="" style="rounded=0;whiteSpace=wrap;html=1;" parent="1" vertex="1">
          <mxGeometry x="1615" y="662.5" width="70" height="30" as="geometry" />
        </mxCell>
        <mxCell id="vYLdiH_t_LYaYiqmm7H8-227" value="22" style="text;html=1;strokeColor=none;fillColor=none;align=center;verticalAlign=middle;whiteSpace=wrap;rounded=0;" parent="1" vertex="1">
          <mxGeometry x="1560" y="662.5" width="60" height="30" as="geometry" />
        </mxCell>
        <mxCell id="vYLdiH_t_LYaYiqmm7H8-228" value="4" style="text;html=1;strokeColor=none;fillColor=none;align=center;verticalAlign=middle;whiteSpace=wrap;rounded=0;" parent="1" vertex="1">
          <mxGeometry x="1620" y="662.5" width="60" height="30" as="geometry" />
        </mxCell>
        <mxCell id="vYLdiH_t_LYaYiqmm7H8-229" value="26" style="text;html=1;strokeColor=none;fillColor=none;align=center;verticalAlign=middle;whiteSpace=wrap;rounded=0;" parent="1" vertex="1">
          <mxGeometry x="1685" y="662.5" width="60" height="30" as="geometry" />
        </mxCell>
        <mxCell id="vYLdiH_t_LYaYiqmm7H8-232" value="22" style="text;html=1;strokeColor=none;fillColor=none;align=center;verticalAlign=middle;whiteSpace=wrap;rounded=0;" parent="1" vertex="1">
          <mxGeometry x="1555" y="722.5" width="60" height="30" as="geometry" />
        </mxCell>
        <mxCell id="vYLdiH_t_LYaYiqmm7H8-233" value="26" style="text;html=1;strokeColor=none;fillColor=none;align=center;verticalAlign=middle;whiteSpace=wrap;rounded=0;" parent="1" vertex="1">
          <mxGeometry x="1680" y="722.5" width="60" height="30" as="geometry" />
        </mxCell>
        <mxCell id="vYLdiH_t_LYaYiqmm7H8-234" value="0" style="text;html=1;strokeColor=none;fillColor=none;align=center;verticalAlign=middle;whiteSpace=wrap;rounded=0;" parent="1" vertex="1">
          <mxGeometry x="1615" y="722.5" width="60" height="30" as="geometry" />
        </mxCell>
        <mxCell id="vYLdiH_t_LYaYiqmm7H8-235" value="" style="endArrow=none;html=1;rounded=0;strokeColor=#FF0000;" parent="1" edge="1">
          <mxGeometry width="50" height="50" relative="1" as="geometry">
            <mxPoint x="1371" y="612.5" as="sourcePoint" />
            <mxPoint x="1430" y="612.5" as="targetPoint" />
          </mxGeometry>
        </mxCell>
        <mxCell id="vYLdiH_t_LYaYiqmm7H8-236" value="" style="endArrow=none;html=1;rounded=0;" parent="1" edge="1">
          <mxGeometry width="50" height="50" relative="1" as="geometry">
            <mxPoint x="1430" y="612.5" as="sourcePoint" />
            <mxPoint x="1430" y="522.5" as="targetPoint" />
          </mxGeometry>
        </mxCell>
        <mxCell id="vYLdiH_t_LYaYiqmm7H8-237" value="" style="endArrow=none;html=1;rounded=0;strokeColor=#FF0000;" parent="1" edge="1">
          <mxGeometry width="50" height="50" relative="1" as="geometry">
            <mxPoint x="1430" y="702.5" as="sourcePoint" />
            <mxPoint x="1430" y="612.5" as="targetPoint" />
          </mxGeometry>
        </mxCell>
        <mxCell id="vYLdiH_t_LYaYiqmm7H8-238" value="" style="endArrow=classic;html=1;rounded=0;entryX=0;entryY=0.25;entryDx=0;entryDy=0;strokeColor=#FF0000;" parent="1" edge="1">
          <mxGeometry width="50" height="50" relative="1" as="geometry">
            <mxPoint x="1430" y="700" as="sourcePoint" />
            <mxPoint x="1555" y="700" as="targetPoint" />
          </mxGeometry>
        </mxCell>
        <mxCell id="vYLdiH_t_LYaYiqmm7H8-279" value="" style="endArrow=none;html=1;rounded=0;" parent="1" edge="1">
          <mxGeometry width="50" height="50" relative="1" as="geometry">
            <mxPoint x="690" y="335" as="sourcePoint" />
            <mxPoint x="770" y="335" as="targetPoint" />
          </mxGeometry>
        </mxCell>
        <mxCell id="vYLdiH_t_LYaYiqmm7H8-280" value="" style="endArrow=none;html=1;rounded=0;entryX=1;entryY=1;entryDx=0;entryDy=0;strokeColor=#FF0000;" parent="1" edge="1">
          <mxGeometry width="50" height="50" relative="1" as="geometry">
            <mxPoint x="695" y="524.5" as="sourcePoint" />
            <mxPoint x="770" y="524.5" as="targetPoint" />
          </mxGeometry>
        </mxCell>
        <mxCell id="vYLdiH_t_LYaYiqmm7H8-281" value="" style="endArrow=none;html=1;rounded=0;strokeColor=#FF0000;" parent="1" edge="1">
          <mxGeometry width="50" height="50" relative="1" as="geometry">
            <mxPoint x="770" y="524.5" as="sourcePoint" />
            <mxPoint x="770" y="420" as="targetPoint" />
          </mxGeometry>
        </mxCell>
        <mxCell id="vYLdiH_t_LYaYiqmm7H8-282" value="" style="endArrow=none;html=1;rounded=0;" parent="1" edge="1">
          <mxGeometry width="50" height="50" relative="1" as="geometry">
            <mxPoint x="770" y="335" as="sourcePoint" />
            <mxPoint x="770" y="420" as="targetPoint" />
          </mxGeometry>
        </mxCell>
        <mxCell id="vYLdiH_t_LYaYiqmm7H8-283" value="" style="endArrow=classic;html=1;rounded=0;entryX=0;entryY=0.5;entryDx=0;entryDy=0;strokeColor=#FF0000;" parent="1" edge="1">
          <mxGeometry width="50" height="50" relative="1" as="geometry">
            <mxPoint x="770" y="419.78" as="sourcePoint" />
            <mxPoint x="810" y="419.78" as="targetPoint" />
          </mxGeometry>
        </mxCell>
        <mxCell id="vYLdiH_t_LYaYiqmm7H8-284" value="" style="endArrow=none;html=1;rounded=0;entryX=1;entryY=1;entryDx=0;entryDy=0;strokeColor=#FF0000;" parent="1" edge="1">
          <mxGeometry width="50" height="50" relative="1" as="geometry">
            <mxPoint x="1000" y="414.5" as="sourcePoint" />
            <mxPoint x="1075" y="414.5" as="targetPoint" />
          </mxGeometry>
        </mxCell>
        <mxCell id="vYLdiH_t_LYaYiqmm7H8-285" value="" style="endArrow=none;html=1;rounded=0;strokeColor=#FF0000;" parent="1" edge="1">
          <mxGeometry width="50" height="50" relative="1" as="geometry">
            <mxPoint x="1070" y="414.5" as="sourcePoint" />
            <mxPoint x="1140" y="415" as="targetPoint" />
          </mxGeometry>
        </mxCell>
        <mxCell id="vYLdiH_t_LYaYiqmm7H8-286" value="" style="endArrow=none;html=1;rounded=0;" parent="1" edge="1">
          <mxGeometry width="50" height="50" relative="1" as="geometry">
            <mxPoint x="1140" y="417.25" as="sourcePoint" />
            <mxPoint x="1140" y="312.75" as="targetPoint" />
          </mxGeometry>
        </mxCell>
        <mxCell id="vYLdiH_t_LYaYiqmm7H8-288" value="" style="endArrow=none;html=1;rounded=0;strokeColor=#FF0000;" parent="1" edge="1">
          <mxGeometry width="50" height="50" relative="1" as="geometry">
            <mxPoint x="1140" y="412.5" as="sourcePoint" />
            <mxPoint x="1140" y="600" as="targetPoint" />
          </mxGeometry>
        </mxCell>
        <mxCell id="vYLdiH_t_LYaYiqmm7H8-289" value="" style="endArrow=classic;html=1;rounded=0;entryX=-0.003;entryY=0.551;entryDx=0;entryDy=0;entryPerimeter=0;" parent="1" target="vYLdiH_t_LYaYiqmm7H8-139" edge="1">
          <mxGeometry width="50" height="50" relative="1" as="geometry">
            <mxPoint x="1140" y="312.5" as="sourcePoint" />
            <mxPoint x="1180" y="307.5" as="targetPoint" />
          </mxGeometry>
        </mxCell>
        <mxCell id="vYLdiH_t_LYaYiqmm7H8-290" value="" style="endArrow=classic;html=1;rounded=0;strokeColor=#FF0000;" parent="1" edge="1">
          <mxGeometry width="50" height="50" relative="1" as="geometry">
            <mxPoint x="1140" y="600" as="sourcePoint" />
            <mxPoint x="1179" y="600" as="targetPoint" />
          </mxGeometry>
        </mxCell>
        <mxCell id="vYLdiH_t_LYaYiqmm7H8-291" value="" style="endArrow=none;html=1;rounded=0;" parent="1" edge="1">
          <mxGeometry width="50" height="50" relative="1" as="geometry">
            <mxPoint x="1430" y="840" as="sourcePoint" />
            <mxPoint x="1430" y="700" as="targetPoint" />
          </mxGeometry>
        </mxCell>
        <mxCell id="vYLdiH_t_LYaYiqmm7H8-292" value="" style="rounded=0;whiteSpace=wrap;html=1;" parent="1" vertex="1">
          <mxGeometry x="1555" y="800" width="190" height="90" as="geometry" />
        </mxCell>
        <mxCell id="vYLdiH_t_LYaYiqmm7H8-293" value="Text" style="text;html=1;strokeColor=none;fillColor=none;align=center;verticalAlign=middle;whiteSpace=wrap;rounded=0;" parent="1" vertex="1">
          <mxGeometry x="1555" y="800" width="60" height="30" as="geometry" />
        </mxCell>
        <mxCell id="vYLdiH_t_LYaYiqmm7H8-294" value="Password encryption" style="text;html=1;strokeColor=none;fillColor=none;align=center;verticalAlign=middle;whiteSpace=wrap;rounded=0;" parent="1" vertex="1">
          <mxGeometry x="1570" y="830" width="150" height="30" as="geometry" />
        </mxCell>
        <mxCell id="vYLdiH_t_LYaYiqmm7H8-295" value="Text" style="text;html=1;strokeColor=none;fillColor=none;align=center;verticalAlign=middle;whiteSpace=wrap;rounded=0;" parent="1" vertex="1">
          <mxGeometry x="1615" y="800" width="60" height="30" as="geometry" />
        </mxCell>
        <mxCell id="vYLdiH_t_LYaYiqmm7H8-296" value="" style="rounded=0;whiteSpace=wrap;html=1;" parent="1" vertex="1">
          <mxGeometry x="1555" y="800" width="60" height="30" as="geometry" />
        </mxCell>
        <mxCell id="vYLdiH_t_LYaYiqmm7H8-297" value="" style="rounded=0;whiteSpace=wrap;html=1;" parent="1" vertex="1">
          <mxGeometry x="1615" y="860" width="60" height="30" as="geometry" />
        </mxCell>
        <mxCell id="vYLdiH_t_LYaYiqmm7H8-298" value="" style="rounded=0;whiteSpace=wrap;html=1;" parent="1" vertex="1">
          <mxGeometry x="1675" y="860" width="70" height="30" as="geometry" />
        </mxCell>
        <mxCell id="vYLdiH_t_LYaYiqmm7H8-299" value="" style="rounded=0;whiteSpace=wrap;html=1;" parent="1" vertex="1">
          <mxGeometry x="1555" y="860" width="60" height="30" as="geometry" />
        </mxCell>
        <mxCell id="vYLdiH_t_LYaYiqmm7H8-300" value="" style="rounded=0;whiteSpace=wrap;html=1;" parent="1" vertex="1">
          <mxGeometry x="1675" y="800" width="70" height="30" as="geometry" />
        </mxCell>
        <mxCell id="vYLdiH_t_LYaYiqmm7H8-301" value="" style="rounded=0;whiteSpace=wrap;html=1;" parent="1" vertex="1">
          <mxGeometry x="1615" y="800" width="70" height="30" as="geometry" />
        </mxCell>
        <mxCell id="vYLdiH_t_LYaYiqmm7H8-302" value="22" style="text;html=1;strokeColor=none;fillColor=none;align=center;verticalAlign=middle;whiteSpace=wrap;rounded=0;" parent="1" vertex="1">
          <mxGeometry x="1560" y="800" width="60" height="30" as="geometry" />
        </mxCell>
        <mxCell id="vYLdiH_t_LYaYiqmm7H8-303" value="1" style="text;html=1;strokeColor=none;fillColor=none;align=center;verticalAlign=middle;whiteSpace=wrap;rounded=0;" parent="1" vertex="1">
          <mxGeometry x="1620" y="800" width="60" height="30" as="geometry" />
        </mxCell>
        <mxCell id="vYLdiH_t_LYaYiqmm7H8-304" value="23" style="text;html=1;strokeColor=none;fillColor=none;align=center;verticalAlign=middle;whiteSpace=wrap;rounded=0;" parent="1" vertex="1">
          <mxGeometry x="1685" y="800" width="60" height="30" as="geometry" />
        </mxCell>
        <mxCell id="vYLdiH_t_LYaYiqmm7H8-307" value="25" style="text;html=1;strokeColor=none;fillColor=none;align=center;verticalAlign=middle;whiteSpace=wrap;rounded=0;" parent="1" vertex="1">
          <mxGeometry x="1555" y="860" width="60" height="30" as="geometry" />
        </mxCell>
        <mxCell id="vYLdiH_t_LYaYiqmm7H8-308" value="26" style="text;html=1;strokeColor=none;fillColor=none;align=center;verticalAlign=middle;whiteSpace=wrap;rounded=0;" parent="1" vertex="1">
          <mxGeometry x="1680" y="860" width="60" height="30" as="geometry" />
        </mxCell>
        <mxCell id="vYLdiH_t_LYaYiqmm7H8-309" value="3" style="text;html=1;strokeColor=none;fillColor=none;align=center;verticalAlign=middle;whiteSpace=wrap;rounded=0;" parent="1" vertex="1">
          <mxGeometry x="1615" y="860" width="60" height="30" as="geometry" />
        </mxCell>
        <mxCell id="vYLdiH_t_LYaYiqmm7H8-310" value="" style="endArrow=classic;html=1;rounded=0;" parent="1" edge="1">
          <mxGeometry width="50" height="50" relative="1" as="geometry">
            <mxPoint x="1430" y="840" as="sourcePoint" />
            <mxPoint x="1555" y="840" as="targetPoint" />
          </mxGeometry>
        </mxCell>
        <mxCell id="vYLdiH_t_LYaYiqmm7H8-311" value="" style="endArrow=none;html=1;rounded=0;dashed=1;" parent="1" edge="1">
          <mxGeometry width="50" height="50" relative="1" as="geometry">
            <mxPoint x="1740" y="520" as="sourcePoint" />
            <mxPoint x="1840" y="520" as="targetPoint" />
          </mxGeometry>
        </mxCell>
        <mxCell id="vYLdiH_t_LYaYiqmm7H8-312" value="" style="endArrow=none;html=1;rounded=0;strokeColor=#FF0000;" parent="1" edge="1">
          <mxGeometry width="50" height="50" relative="1" as="geometry">
            <mxPoint x="1745" y="707" as="sourcePoint" />
            <mxPoint x="1840" y="707" as="targetPoint" />
          </mxGeometry>
        </mxCell>
        <mxCell id="vYLdiH_t_LYaYiqmm7H8-313" value="" style="endArrow=none;html=1;rounded=0;dashed=1;exitX=0.997;exitY=0.557;exitDx=0;exitDy=0;exitPerimeter=0;" parent="1" source="vYLdiH_t_LYaYiqmm7H8-292" edge="1">
          <mxGeometry width="50" height="50" relative="1" as="geometry">
            <mxPoint x="1745" y="844.5" as="sourcePoint" />
            <mxPoint x="1840" y="850" as="targetPoint" />
          </mxGeometry>
        </mxCell>
        <mxCell id="vYLdiH_t_LYaYiqmm7H8-314" value="" style="endArrow=none;html=1;rounded=0;dashed=1;" parent="1" edge="1">
          <mxGeometry width="50" height="50" relative="1" as="geometry">
            <mxPoint x="1840" y="520" as="sourcePoint" />
            <mxPoint x="1840" y="850" as="targetPoint" />
          </mxGeometry>
        </mxCell>
        <mxCell id="vYLdiH_t_LYaYiqmm7H8-315" value="" style="endArrow=classic;html=1;rounded=0;strokeColor=#FF0000;entryX=0;entryY=0.5;entryDx=0;entryDy=0;" parent="1" target="vYLdiH_t_LYaYiqmm7H8-403" edge="1">
          <mxGeometry width="50" height="50" relative="1" as="geometry">
            <mxPoint x="1835" y="707" as="sourcePoint" />
            <mxPoint x="1925" y="707" as="targetPoint" />
          </mxGeometry>
        </mxCell>
        <mxCell id="vYLdiH_t_LYaYiqmm7H8-316" value="" style="endArrow=none;html=1;rounded=0;dashed=1;" parent="1" edge="1">
          <mxGeometry width="50" height="50" relative="1" as="geometry">
            <mxPoint x="1740" y="220" as="sourcePoint" />
            <mxPoint x="1810" y="220" as="targetPoint" />
          </mxGeometry>
        </mxCell>
        <mxCell id="vYLdiH_t_LYaYiqmm7H8-317" value="" style="endArrow=none;html=1;rounded=0;dashed=1;" parent="1" edge="1">
          <mxGeometry width="50" height="50" relative="1" as="geometry">
            <mxPoint x="1745" y="400" as="sourcePoint" />
            <mxPoint x="1810" y="400" as="targetPoint" />
          </mxGeometry>
        </mxCell>
        <mxCell id="vYLdiH_t_LYaYiqmm7H8-318" value="" style="endArrow=none;html=1;rounded=0;dashed=1;" parent="1" edge="1">
          <mxGeometry width="50" height="50" relative="1" as="geometry">
            <mxPoint x="1810" y="220" as="sourcePoint" />
            <mxPoint x="1810" y="400" as="targetPoint" />
          </mxGeometry>
        </mxCell>
        <mxCell id="vYLdiH_t_LYaYiqmm7H8-319" value="" style="endArrow=none;html=1;rounded=0;dashed=1;" parent="1" edge="1">
          <mxGeometry width="50" height="50" relative="1" as="geometry">
            <mxPoint x="1810" y="310" as="sourcePoint" />
            <mxPoint x="1910" y="310" as="targetPoint" />
          </mxGeometry>
        </mxCell>
        <mxCell id="vYLdiH_t_LYaYiqmm7H8-320" value="" style="rounded=0;whiteSpace=wrap;html=1;" parent="1" vertex="1">
          <mxGeometry x="2030" y="80" width="190" height="90" as="geometry" />
        </mxCell>
        <mxCell id="vYLdiH_t_LYaYiqmm7H8-321" value="Text" style="text;html=1;strokeColor=none;fillColor=none;align=center;verticalAlign=middle;whiteSpace=wrap;rounded=0;" parent="1" vertex="1">
          <mxGeometry x="2030" y="80" width="60" height="30" as="geometry" />
        </mxCell>
        <mxCell id="vYLdiH_t_LYaYiqmm7H8-322" value="Text" style="text;html=1;strokeColor=none;fillColor=none;align=center;verticalAlign=middle;whiteSpace=wrap;rounded=0;" parent="1" vertex="1">
          <mxGeometry x="2095" y="80" width="60" height="30" as="geometry" />
        </mxCell>
        <mxCell id="vYLdiH_t_LYaYiqmm7H8-323" value="Text" style="text;html=1;strokeColor=none;fillColor=none;align=center;verticalAlign=middle;whiteSpace=wrap;rounded=0;" parent="1" vertex="1">
          <mxGeometry x="2090" y="80" width="60" height="30" as="geometry" />
        </mxCell>
        <mxCell id="vYLdiH_t_LYaYiqmm7H8-324" value="" style="rounded=0;whiteSpace=wrap;html=1;" parent="1" vertex="1">
          <mxGeometry x="2030" y="80" width="60" height="30" as="geometry" />
        </mxCell>
        <mxCell id="vYLdiH_t_LYaYiqmm7H8-325" value="" style="rounded=0;whiteSpace=wrap;html=1;" parent="1" vertex="1">
          <mxGeometry x="2090" y="140" width="60" height="30" as="geometry" />
        </mxCell>
        <mxCell id="vYLdiH_t_LYaYiqmm7H8-326" value="" style="rounded=0;whiteSpace=wrap;html=1;" parent="1" vertex="1">
          <mxGeometry x="2150" y="140" width="70" height="30" as="geometry" />
        </mxCell>
        <mxCell id="vYLdiH_t_LYaYiqmm7H8-327" value="" style="rounded=0;whiteSpace=wrap;html=1;" parent="1" vertex="1">
          <mxGeometry x="2030" y="140" width="60" height="30" as="geometry" />
        </mxCell>
        <mxCell id="vYLdiH_t_LYaYiqmm7H8-328" value="" style="rounded=0;whiteSpace=wrap;html=1;" parent="1" vertex="1">
          <mxGeometry x="2150" y="80" width="70" height="30" as="geometry" />
        </mxCell>
        <mxCell id="vYLdiH_t_LYaYiqmm7H8-329" value="" style="rounded=0;whiteSpace=wrap;html=1;" parent="1" vertex="1">
          <mxGeometry x="2090" y="80" width="70" height="30" as="geometry" />
        </mxCell>
        <mxCell id="vYLdiH_t_LYaYiqmm7H8-330" value="21" style="text;html=1;strokeColor=none;fillColor=none;align=center;verticalAlign=middle;whiteSpace=wrap;rounded=0;" parent="1" vertex="1">
          <mxGeometry x="2035" y="80" width="60" height="30" as="geometry" />
        </mxCell>
        <mxCell id="vYLdiH_t_LYaYiqmm7H8-331" value="1" style="text;html=1;strokeColor=none;fillColor=none;align=center;verticalAlign=middle;whiteSpace=wrap;rounded=0;" parent="1" vertex="1">
          <mxGeometry x="2090" y="80" width="60" height="30" as="geometry" />
        </mxCell>
        <mxCell id="vYLdiH_t_LYaYiqmm7H8-332" value="22" style="text;html=1;strokeColor=none;fillColor=none;align=center;verticalAlign=middle;whiteSpace=wrap;rounded=0;" parent="1" vertex="1">
          <mxGeometry x="2160" y="80" width="60" height="30" as="geometry" />
        </mxCell>
        <mxCell id="vYLdiH_t_LYaYiqmm7H8-333" value="Call Display Page" style="text;html=1;strokeColor=none;fillColor=none;align=center;verticalAlign=middle;whiteSpace=wrap;rounded=0;" parent="1" vertex="1">
          <mxGeometry x="2075" y="110" width="100" height="30" as="geometry" />
        </mxCell>
        <mxCell id="vYLdiH_t_LYaYiqmm7H8-335" value="33" style="text;html=1;strokeColor=none;fillColor=none;align=center;verticalAlign=middle;whiteSpace=wrap;rounded=0;" parent="1" vertex="1">
          <mxGeometry x="2030" y="140" width="60" height="30" as="geometry" />
        </mxCell>
        <mxCell id="vYLdiH_t_LYaYiqmm7H8-336" value="34" style="text;html=1;strokeColor=none;fillColor=none;align=center;verticalAlign=middle;whiteSpace=wrap;rounded=0;" parent="1" vertex="1">
          <mxGeometry x="2155" y="140" width="60" height="30" as="geometry" />
        </mxCell>
        <mxCell id="vYLdiH_t_LYaYiqmm7H8-337" value="12" style="text;html=1;strokeColor=none;fillColor=none;align=center;verticalAlign=middle;whiteSpace=wrap;rounded=0;" parent="1" vertex="1">
          <mxGeometry x="2090" y="140" width="60" height="30" as="geometry" />
        </mxCell>
        <mxCell id="vYLdiH_t_LYaYiqmm7H8-338" value="" style="endArrow=classic;html=1;rounded=0;dashed=1;" parent="1" edge="1">
          <mxGeometry width="50" height="50" relative="1" as="geometry">
            <mxPoint x="1910" y="130" as="sourcePoint" />
            <mxPoint x="2030" y="130" as="targetPoint" />
          </mxGeometry>
        </mxCell>
        <mxCell id="vYLdiH_t_LYaYiqmm7H8-339" value="" style="rounded=0;whiteSpace=wrap;html=1;" parent="1" vertex="1">
          <mxGeometry x="2035" y="270" width="190" height="90" as="geometry" />
        </mxCell>
        <mxCell id="vYLdiH_t_LYaYiqmm7H8-340" value="Text" style="text;html=1;strokeColor=none;fillColor=none;align=center;verticalAlign=middle;whiteSpace=wrap;rounded=0;" parent="1" vertex="1">
          <mxGeometry x="2035" y="270" width="60" height="30" as="geometry" />
        </mxCell>
        <mxCell id="vYLdiH_t_LYaYiqmm7H8-341" value="Call History Page" style="text;html=1;strokeColor=none;fillColor=none;align=center;verticalAlign=middle;whiteSpace=wrap;rounded=0;" parent="1" vertex="1">
          <mxGeometry x="2075" y="300" width="100" height="30" as="geometry" />
        </mxCell>
        <mxCell id="vYLdiH_t_LYaYiqmm7H8-342" value="Text" style="text;html=1;strokeColor=none;fillColor=none;align=center;verticalAlign=middle;whiteSpace=wrap;rounded=0;" parent="1" vertex="1">
          <mxGeometry x="2095" y="270" width="60" height="30" as="geometry" />
        </mxCell>
        <mxCell id="vYLdiH_t_LYaYiqmm7H8-343" value="" style="rounded=0;whiteSpace=wrap;html=1;" parent="1" vertex="1">
          <mxGeometry x="2035" y="270" width="60" height="30" as="geometry" />
        </mxCell>
        <mxCell id="vYLdiH_t_LYaYiqmm7H8-344" value="" style="rounded=0;whiteSpace=wrap;html=1;" parent="1" vertex="1">
          <mxGeometry x="2095" y="330" width="60" height="30" as="geometry" />
        </mxCell>
        <mxCell id="vYLdiH_t_LYaYiqmm7H8-345" value="" style="rounded=0;whiteSpace=wrap;html=1;" parent="1" vertex="1">
          <mxGeometry x="2155" y="330" width="70" height="30" as="geometry" />
        </mxCell>
        <mxCell id="vYLdiH_t_LYaYiqmm7H8-346" value="" style="rounded=0;whiteSpace=wrap;html=1;" parent="1" vertex="1">
          <mxGeometry x="2035" y="330" width="60" height="30" as="geometry" />
        </mxCell>
        <mxCell id="vYLdiH_t_LYaYiqmm7H8-347" value="" style="rounded=0;whiteSpace=wrap;html=1;" parent="1" vertex="1">
          <mxGeometry x="2155" y="270" width="70" height="30" as="geometry" />
        </mxCell>
        <mxCell id="vYLdiH_t_LYaYiqmm7H8-348" value="" style="rounded=0;whiteSpace=wrap;html=1;" parent="1" vertex="1">
          <mxGeometry x="2095" y="270" width="70" height="30" as="geometry" />
        </mxCell>
        <mxCell id="vYLdiH_t_LYaYiqmm7H8-349" value="21" style="text;html=1;strokeColor=none;fillColor=none;align=center;verticalAlign=middle;whiteSpace=wrap;rounded=0;" parent="1" vertex="1">
          <mxGeometry x="2040" y="270" width="60" height="30" as="geometry" />
        </mxCell>
        <mxCell id="vYLdiH_t_LYaYiqmm7H8-350" value="1" style="text;html=1;strokeColor=none;fillColor=none;align=center;verticalAlign=middle;whiteSpace=wrap;rounded=0;" parent="1" vertex="1">
          <mxGeometry x="2100" y="270" width="60" height="30" as="geometry" />
        </mxCell>
        <mxCell id="vYLdiH_t_LYaYiqmm7H8-351" value="22" style="text;html=1;strokeColor=none;fillColor=none;align=center;verticalAlign=middle;whiteSpace=wrap;rounded=0;" parent="1" vertex="1">
          <mxGeometry x="2165" y="270" width="60" height="30" as="geometry" />
        </mxCell>
        <mxCell id="vYLdiH_t_LYaYiqmm7H8-354" value="33" style="text;html=1;strokeColor=none;fillColor=none;align=center;verticalAlign=middle;whiteSpace=wrap;rounded=0;" parent="1" vertex="1">
          <mxGeometry x="2035" y="330" width="60" height="30" as="geometry" />
        </mxCell>
        <mxCell id="vYLdiH_t_LYaYiqmm7H8-355" value="34" style="text;html=1;strokeColor=none;fillColor=none;align=center;verticalAlign=middle;whiteSpace=wrap;rounded=0;" parent="1" vertex="1">
          <mxGeometry x="2160" y="330" width="60" height="30" as="geometry" />
        </mxCell>
        <mxCell id="vYLdiH_t_LYaYiqmm7H8-356" value="12" style="text;html=1;strokeColor=none;fillColor=none;align=center;verticalAlign=middle;whiteSpace=wrap;rounded=0;" parent="1" vertex="1">
          <mxGeometry x="2095" y="330" width="60" height="30" as="geometry" />
        </mxCell>
        <mxCell id="vYLdiH_t_LYaYiqmm7H8-357" value="" style="endArrow=none;html=1;rounded=0;dashed=1;" parent="1" edge="1">
          <mxGeometry width="50" height="50" relative="1" as="geometry">
            <mxPoint x="1910" y="220" as="sourcePoint" />
            <mxPoint x="1910" y="130" as="targetPoint" />
          </mxGeometry>
        </mxCell>
        <mxCell id="vYLdiH_t_LYaYiqmm7H8-358" value="" style="endArrow=none;html=1;rounded=0;dashed=1;" parent="1" edge="1">
          <mxGeometry width="50" height="50" relative="1" as="geometry">
            <mxPoint x="1910" y="310" as="sourcePoint" />
            <mxPoint x="1910" y="220" as="targetPoint" />
          </mxGeometry>
        </mxCell>
        <mxCell id="vYLdiH_t_LYaYiqmm7H8-359" value="" style="endArrow=classic;html=1;rounded=0;entryX=0;entryY=0.435;entryDx=0;entryDy=0;entryPerimeter=0;dashed=1;" parent="1" target="vYLdiH_t_LYaYiqmm7H8-339" edge="1">
          <mxGeometry width="50" height="50" relative="1" as="geometry">
            <mxPoint x="1910" y="310" as="sourcePoint" />
            <mxPoint x="2035" y="307.5" as="targetPoint" />
          </mxGeometry>
        </mxCell>
        <mxCell id="vYLdiH_t_LYaYiqmm7H8-360" value="" style="endArrow=none;html=1;rounded=0;dashed=1;" parent="1" edge="1">
          <mxGeometry width="50" height="50" relative="1" as="geometry">
            <mxPoint x="1910" y="447.5" as="sourcePoint" />
            <mxPoint x="1910" y="307.5" as="targetPoint" />
          </mxGeometry>
        </mxCell>
        <mxCell id="vYLdiH_t_LYaYiqmm7H8-361" value="" style="rounded=0;whiteSpace=wrap;html=1;" parent="1" vertex="1">
          <mxGeometry x="2035" y="407.5" width="190" height="90" as="geometry" />
        </mxCell>
        <mxCell id="vYLdiH_t_LYaYiqmm7H8-362" value="Text" style="text;html=1;strokeColor=none;fillColor=none;align=center;verticalAlign=middle;whiteSpace=wrap;rounded=0;" parent="1" vertex="1">
          <mxGeometry x="2035" y="407.5" width="60" height="30" as="geometry" />
        </mxCell>
        <mxCell id="vYLdiH_t_LYaYiqmm7H8-363" value="Contacts Page" style="text;html=1;strokeColor=none;fillColor=none;align=center;verticalAlign=middle;whiteSpace=wrap;rounded=0;" parent="1" vertex="1">
          <mxGeometry x="2080" y="437.5" width="90" height="30" as="geometry" />
        </mxCell>
        <mxCell id="vYLdiH_t_LYaYiqmm7H8-364" value="Text" style="text;html=1;strokeColor=none;fillColor=none;align=center;verticalAlign=middle;whiteSpace=wrap;rounded=0;" parent="1" vertex="1">
          <mxGeometry x="2095" y="407.5" width="60" height="30" as="geometry" />
        </mxCell>
        <mxCell id="vYLdiH_t_LYaYiqmm7H8-365" value="" style="rounded=0;whiteSpace=wrap;html=1;" parent="1" vertex="1">
          <mxGeometry x="2035" y="407.5" width="60" height="30" as="geometry" />
        </mxCell>
        <mxCell id="vYLdiH_t_LYaYiqmm7H8-366" value="" style="rounded=0;whiteSpace=wrap;html=1;" parent="1" vertex="1">
          <mxGeometry x="2095" y="467.5" width="60" height="30" as="geometry" />
        </mxCell>
        <mxCell id="vYLdiH_t_LYaYiqmm7H8-367" value="" style="rounded=0;whiteSpace=wrap;html=1;" parent="1" vertex="1">
          <mxGeometry x="2155" y="467.5" width="70" height="30" as="geometry" />
        </mxCell>
        <mxCell id="vYLdiH_t_LYaYiqmm7H8-368" value="" style="rounded=0;whiteSpace=wrap;html=1;" parent="1" vertex="1">
          <mxGeometry x="2035" y="467.5" width="60" height="30" as="geometry" />
        </mxCell>
        <mxCell id="vYLdiH_t_LYaYiqmm7H8-369" value="" style="rounded=0;whiteSpace=wrap;html=1;" parent="1" vertex="1">
          <mxGeometry x="2155" y="407.5" width="70" height="30" as="geometry" />
        </mxCell>
        <mxCell id="vYLdiH_t_LYaYiqmm7H8-370" value="" style="rounded=0;whiteSpace=wrap;html=1;" parent="1" vertex="1">
          <mxGeometry x="2095" y="407.5" width="70" height="30" as="geometry" />
        </mxCell>
        <mxCell id="vYLdiH_t_LYaYiqmm7H8-371" value="21" style="text;html=1;strokeColor=none;fillColor=none;align=center;verticalAlign=middle;whiteSpace=wrap;rounded=0;" parent="1" vertex="1">
          <mxGeometry x="2040" y="407.5" width="60" height="30" as="geometry" />
        </mxCell>
        <mxCell id="vYLdiH_t_LYaYiqmm7H8-372" value="1" style="text;html=1;strokeColor=none;fillColor=none;align=center;verticalAlign=middle;whiteSpace=wrap;rounded=0;" parent="1" vertex="1">
          <mxGeometry x="2100" y="407.5" width="60" height="30" as="geometry" />
        </mxCell>
        <mxCell id="vYLdiH_t_LYaYiqmm7H8-373" value="22" style="text;html=1;strokeColor=none;fillColor=none;align=center;verticalAlign=middle;whiteSpace=wrap;rounded=0;" parent="1" vertex="1">
          <mxGeometry x="2165" y="407.5" width="60" height="30" as="geometry" />
        </mxCell>
        <mxCell id="vYLdiH_t_LYaYiqmm7H8-376" value="33" style="text;html=1;strokeColor=none;fillColor=none;align=center;verticalAlign=middle;whiteSpace=wrap;rounded=0;" parent="1" vertex="1">
          <mxGeometry x="2035" y="467.5" width="60" height="30" as="geometry" />
        </mxCell>
        <mxCell id="vYLdiH_t_LYaYiqmm7H8-377" value="34" style="text;html=1;strokeColor=none;fillColor=none;align=center;verticalAlign=middle;whiteSpace=wrap;rounded=0;" parent="1" vertex="1">
          <mxGeometry x="2160" y="467.5" width="60" height="30" as="geometry" />
        </mxCell>
        <mxCell id="vYLdiH_t_LYaYiqmm7H8-378" value="12" style="text;html=1;strokeColor=none;fillColor=none;align=center;verticalAlign=middle;whiteSpace=wrap;rounded=0;" parent="1" vertex="1">
          <mxGeometry x="2095" y="467.5" width="60" height="30" as="geometry" />
        </mxCell>
        <mxCell id="vYLdiH_t_LYaYiqmm7H8-379" value="" style="endArrow=classic;html=1;rounded=0;dashed=1;" parent="1" edge="1">
          <mxGeometry width="50" height="50" relative="1" as="geometry">
            <mxPoint x="1910" y="447.5" as="sourcePoint" />
            <mxPoint x="2035" y="447.5" as="targetPoint" />
          </mxGeometry>
        </mxCell>
        <mxCell id="vYLdiH_t_LYaYiqmm7H8-380" value="" style="endArrow=none;html=1;rounded=0;" parent="1" edge="1">
          <mxGeometry width="50" height="50" relative="1" as="geometry">
            <mxPoint x="2220" y="127.5" as="sourcePoint" />
            <mxPoint x="2320" y="127.5" as="targetPoint" />
          </mxGeometry>
        </mxCell>
        <mxCell id="vYLdiH_t_LYaYiqmm7H8-381" value="" style="endArrow=none;html=1;rounded=0;" parent="1" edge="1">
          <mxGeometry width="50" height="50" relative="1" as="geometry">
            <mxPoint x="2225" y="314.5" as="sourcePoint" />
            <mxPoint x="2320" y="314.5" as="targetPoint" />
          </mxGeometry>
        </mxCell>
        <mxCell id="vYLdiH_t_LYaYiqmm7H8-382" value="" style="endArrow=none;html=1;rounded=0;" parent="1" edge="1">
          <mxGeometry width="50" height="50" relative="1" as="geometry">
            <mxPoint x="2225" y="450" as="sourcePoint" />
            <mxPoint x="2320" y="450" as="targetPoint" />
          </mxGeometry>
        </mxCell>
        <mxCell id="vYLdiH_t_LYaYiqmm7H8-383" value="" style="endArrow=none;html=1;rounded=0;" parent="1" edge="1">
          <mxGeometry width="50" height="50" relative="1" as="geometry">
            <mxPoint x="2320" y="127.5" as="sourcePoint" />
            <mxPoint x="2320" y="450" as="targetPoint" />
          </mxGeometry>
        </mxCell>
        <mxCell id="vYLdiH_t_LYaYiqmm7H8-384" value="" style="endArrow=classic;html=1;rounded=0;" parent="1" edge="1">
          <mxGeometry width="50" height="50" relative="1" as="geometry">
            <mxPoint x="2315" y="314.5" as="sourcePoint" />
            <mxPoint x="2405" y="314.5" as="targetPoint" />
          </mxGeometry>
        </mxCell>
        <mxCell id="vYLdiH_t_LYaYiqmm7H8-385" value="" style="rounded=0;whiteSpace=wrap;html=1;" parent="1" vertex="1">
          <mxGeometry x="2410" y="270" width="190" height="90" as="geometry" />
        </mxCell>
        <mxCell id="vYLdiH_t_LYaYiqmm7H8-386" value="Text" style="text;html=1;strokeColor=none;fillColor=none;align=center;verticalAlign=middle;whiteSpace=wrap;rounded=0;" parent="1" vertex="1">
          <mxGeometry x="2410" y="270" width="60" height="30" as="geometry" />
        </mxCell>
        <mxCell id="vYLdiH_t_LYaYiqmm7H8-387" value="Payment Page" style="text;html=1;strokeColor=none;fillColor=none;align=center;verticalAlign=middle;whiteSpace=wrap;rounded=0;" parent="1" vertex="1">
          <mxGeometry x="2462.5" y="300" width="85" height="30" as="geometry" />
        </mxCell>
        <mxCell id="vYLdiH_t_LYaYiqmm7H8-388" value="Text" style="text;html=1;strokeColor=none;fillColor=none;align=center;verticalAlign=middle;whiteSpace=wrap;rounded=0;" parent="1" vertex="1">
          <mxGeometry x="2470" y="270" width="60" height="30" as="geometry" />
        </mxCell>
        <mxCell id="vYLdiH_t_LYaYiqmm7H8-389" value="" style="rounded=0;whiteSpace=wrap;html=1;" parent="1" vertex="1">
          <mxGeometry x="2410" y="270" width="60" height="30" as="geometry" />
        </mxCell>
        <mxCell id="vYLdiH_t_LYaYiqmm7H8-390" value="" style="rounded=0;whiteSpace=wrap;html=1;" parent="1" vertex="1">
          <mxGeometry x="2470" y="330" width="60" height="30" as="geometry" />
        </mxCell>
        <mxCell id="vYLdiH_t_LYaYiqmm7H8-391" value="" style="rounded=0;whiteSpace=wrap;html=1;" parent="1" vertex="1">
          <mxGeometry x="2530" y="330" width="70" height="30" as="geometry" />
        </mxCell>
        <mxCell id="vYLdiH_t_LYaYiqmm7H8-392" value="" style="rounded=0;whiteSpace=wrap;html=1;" parent="1" vertex="1">
          <mxGeometry x="2410" y="330" width="60" height="30" as="geometry" />
        </mxCell>
        <mxCell id="vYLdiH_t_LYaYiqmm7H8-393" value="" style="rounded=0;whiteSpace=wrap;html=1;" parent="1" vertex="1">
          <mxGeometry x="2530" y="270" width="70" height="30" as="geometry" />
        </mxCell>
        <mxCell id="vYLdiH_t_LYaYiqmm7H8-394" value="" style="rounded=0;whiteSpace=wrap;html=1;" parent="1" vertex="1">
          <mxGeometry x="2470" y="270" width="70" height="30" as="geometry" />
        </mxCell>
        <mxCell id="vYLdiH_t_LYaYiqmm7H8-395" value="22" style="text;html=1;strokeColor=none;fillColor=none;align=center;verticalAlign=middle;whiteSpace=wrap;rounded=0;" parent="1" vertex="1">
          <mxGeometry x="2415" y="270" width="60" height="30" as="geometry" />
        </mxCell>
        <mxCell id="vYLdiH_t_LYaYiqmm7H8-396" value="3" style="text;html=1;strokeColor=none;fillColor=none;align=center;verticalAlign=middle;whiteSpace=wrap;rounded=0;" parent="1" vertex="1">
          <mxGeometry x="2475" y="270" width="60" height="30" as="geometry" />
        </mxCell>
        <mxCell id="vYLdiH_t_LYaYiqmm7H8-397" value="25" style="text;html=1;strokeColor=none;fillColor=none;align=center;verticalAlign=middle;whiteSpace=wrap;rounded=0;" parent="1" vertex="1">
          <mxGeometry x="2540" y="270" width="60" height="30" as="geometry" />
        </mxCell>
        <mxCell id="vYLdiH_t_LYaYiqmm7H8-400" value="34" style="text;html=1;strokeColor=none;fillColor=none;align=center;verticalAlign=middle;whiteSpace=wrap;rounded=0;" parent="1" vertex="1">
          <mxGeometry x="2410" y="330" width="60" height="30" as="geometry" />
        </mxCell>
        <mxCell id="vYLdiH_t_LYaYiqmm7H8-401" value="37" style="text;html=1;strokeColor=none;fillColor=none;align=center;verticalAlign=middle;whiteSpace=wrap;rounded=0;" parent="1" vertex="1">
          <mxGeometry x="2535" y="330" width="60" height="30" as="geometry" />
        </mxCell>
        <mxCell id="vYLdiH_t_LYaYiqmm7H8-402" value="12" style="text;html=1;strokeColor=none;fillColor=none;align=center;verticalAlign=middle;whiteSpace=wrap;rounded=0;" parent="1" vertex="1">
          <mxGeometry x="2470" y="330" width="60" height="30" as="geometry" />
        </mxCell>
        <mxCell id="vYLdiH_t_LYaYiqmm7H8-403" value="" style="rounded=0;whiteSpace=wrap;html=1;" parent="1" vertex="1">
          <mxGeometry x="1920" y="662.5" width="190" height="90" as="geometry" />
        </mxCell>
        <mxCell id="vYLdiH_t_LYaYiqmm7H8-404" value="Text" style="text;html=1;strokeColor=none;fillColor=none;align=center;verticalAlign=middle;whiteSpace=wrap;rounded=0;" parent="1" vertex="1">
          <mxGeometry x="1920" y="662.5" width="60" height="30" as="geometry" />
        </mxCell>
        <mxCell id="vYLdiH_t_LYaYiqmm7H8-405" value="Call Processing" style="text;html=1;strokeColor=none;fillColor=none;align=center;verticalAlign=middle;whiteSpace=wrap;rounded=0;" parent="1" vertex="1">
          <mxGeometry x="1950" y="692.5" width="110" height="30" as="geometry" />
        </mxCell>
        <mxCell id="vYLdiH_t_LYaYiqmm7H8-406" value="Text" style="text;html=1;strokeColor=none;fillColor=none;align=center;verticalAlign=middle;whiteSpace=wrap;rounded=0;" parent="1" vertex="1">
          <mxGeometry x="1980" y="662.5" width="60" height="30" as="geometry" />
        </mxCell>
        <mxCell id="vYLdiH_t_LYaYiqmm7H8-407" value="" style="rounded=0;whiteSpace=wrap;html=1;" parent="1" vertex="1">
          <mxGeometry x="1920" y="662.5" width="60" height="30" as="geometry" />
        </mxCell>
        <mxCell id="vYLdiH_t_LYaYiqmm7H8-408" value="" style="rounded=0;whiteSpace=wrap;html=1;" parent="1" vertex="1">
          <mxGeometry x="1980" y="722.5" width="60" height="30" as="geometry" />
        </mxCell>
        <mxCell id="vYLdiH_t_LYaYiqmm7H8-409" value="" style="rounded=0;whiteSpace=wrap;html=1;" parent="1" vertex="1">
          <mxGeometry x="2040" y="722.5" width="70" height="30" as="geometry" />
        </mxCell>
        <mxCell id="vYLdiH_t_LYaYiqmm7H8-410" value="" style="rounded=0;whiteSpace=wrap;html=1;" parent="1" vertex="1">
          <mxGeometry x="1920" y="722.5" width="60" height="30" as="geometry" />
        </mxCell>
        <mxCell id="vYLdiH_t_LYaYiqmm7H8-411" value="" style="rounded=0;whiteSpace=wrap;html=1;" parent="1" vertex="1">
          <mxGeometry x="2040" y="662.5" width="70" height="30" as="geometry" />
        </mxCell>
        <mxCell id="vYLdiH_t_LYaYiqmm7H8-412" value="" style="rounded=0;whiteSpace=wrap;html=1;" parent="1" vertex="1">
          <mxGeometry x="1980" y="662.5" width="70" height="30" as="geometry" />
        </mxCell>
        <mxCell id="vYLdiH_t_LYaYiqmm7H8-413" value="26" style="text;html=1;strokeColor=none;fillColor=none;align=center;verticalAlign=middle;whiteSpace=wrap;rounded=0;" parent="1" vertex="1">
          <mxGeometry x="1925" y="662.5" width="60" height="30" as="geometry" />
        </mxCell>
        <mxCell id="vYLdiH_t_LYaYiqmm7H8-414" value="5" style="text;html=1;strokeColor=none;fillColor=none;align=center;verticalAlign=middle;whiteSpace=wrap;rounded=0;" parent="1" vertex="1">
          <mxGeometry x="1985" y="662.5" width="60" height="30" as="geometry" />
        </mxCell>
        <mxCell id="vYLdiH_t_LYaYiqmm7H8-415" value="31" style="text;html=1;strokeColor=none;fillColor=none;align=center;verticalAlign=middle;whiteSpace=wrap;rounded=0;" parent="1" vertex="1">
          <mxGeometry x="2050" y="662.5" width="60" height="30" as="geometry" />
        </mxCell>
        <mxCell id="vYLdiH_t_LYaYiqmm7H8-418" value="26" style="text;html=1;strokeColor=none;fillColor=none;align=center;verticalAlign=middle;whiteSpace=wrap;rounded=0;" parent="1" vertex="1">
          <mxGeometry x="1920" y="722.5" width="60" height="30" as="geometry" />
        </mxCell>
        <mxCell id="vYLdiH_t_LYaYiqmm7H8-419" value="31" style="text;html=1;strokeColor=none;fillColor=none;align=center;verticalAlign=middle;whiteSpace=wrap;rounded=0;" parent="1" vertex="1">
          <mxGeometry x="2045" y="722.5" width="60" height="30" as="geometry" />
        </mxCell>
        <mxCell id="vYLdiH_t_LYaYiqmm7H8-420" value="0" style="text;html=1;strokeColor=none;fillColor=none;align=center;verticalAlign=middle;whiteSpace=wrap;rounded=0;" parent="1" vertex="1">
          <mxGeometry x="1980" y="722.5" width="60" height="30" as="geometry" />
        </mxCell>
        <mxCell id="vYLdiH_t_LYaYiqmm7H8-421" value="" style="endArrow=classic;html=1;rounded=0;exitX=0.998;exitY=0.527;exitDx=0;exitDy=0;strokeColor=#FF0000;exitPerimeter=0;" parent="1" source="vYLdiH_t_LYaYiqmm7H8-403" edge="1">
          <mxGeometry width="50" height="50" relative="1" as="geometry">
            <mxPoint x="2150" y="660" as="sourcePoint" />
            <mxPoint x="2200" y="710" as="targetPoint" />
          </mxGeometry>
        </mxCell>
        <mxCell id="vYLdiH_t_LYaYiqmm7H8-423" value="" style="rounded=0;whiteSpace=wrap;html=1;" parent="1" vertex="1">
          <mxGeometry x="2200" y="662.5" width="190" height="90" as="geometry" />
        </mxCell>
        <mxCell id="vYLdiH_t_LYaYiqmm7H8-424" value="Text" style="text;html=1;strokeColor=none;fillColor=none;align=center;verticalAlign=middle;whiteSpace=wrap;rounded=0;" parent="1" vertex="1">
          <mxGeometry x="2200" y="662.5" width="60" height="30" as="geometry" />
        </mxCell>
        <mxCell id="vYLdiH_t_LYaYiqmm7H8-425" value="Voice Call encryption" style="text;html=1;strokeColor=none;fillColor=none;align=center;verticalAlign=middle;whiteSpace=wrap;rounded=0;" parent="1" vertex="1">
          <mxGeometry x="2220" y="692.5" width="140" height="30" as="geometry" />
        </mxCell>
        <mxCell id="vYLdiH_t_LYaYiqmm7H8-426" value="Text" style="text;html=1;strokeColor=none;fillColor=none;align=center;verticalAlign=middle;whiteSpace=wrap;rounded=0;" parent="1" vertex="1">
          <mxGeometry x="2260" y="662.5" width="60" height="30" as="geometry" />
        </mxCell>
        <mxCell id="vYLdiH_t_LYaYiqmm7H8-427" value="" style="rounded=0;whiteSpace=wrap;html=1;" parent="1" vertex="1">
          <mxGeometry x="2200" y="662.5" width="60" height="30" as="geometry" />
        </mxCell>
        <mxCell id="vYLdiH_t_LYaYiqmm7H8-428" value="" style="rounded=0;whiteSpace=wrap;html=1;" parent="1" vertex="1">
          <mxGeometry x="2260" y="722.5" width="60" height="30" as="geometry" />
        </mxCell>
        <mxCell id="vYLdiH_t_LYaYiqmm7H8-429" value="" style="rounded=0;whiteSpace=wrap;html=1;" parent="1" vertex="1">
          <mxGeometry x="2320" y="722.5" width="70" height="30" as="geometry" />
        </mxCell>
        <mxCell id="vYLdiH_t_LYaYiqmm7H8-430" value="" style="rounded=0;whiteSpace=wrap;html=1;" parent="1" vertex="1">
          <mxGeometry x="2200" y="722.5" width="60" height="30" as="geometry" />
        </mxCell>
        <mxCell id="vYLdiH_t_LYaYiqmm7H8-431" value="33" style="rounded=0;whiteSpace=wrap;html=1;" parent="1" vertex="1">
          <mxGeometry x="2320" y="662.5" width="70" height="30" as="geometry" />
        </mxCell>
        <mxCell id="vYLdiH_t_LYaYiqmm7H8-432" value="" style="rounded=0;whiteSpace=wrap;html=1;" parent="1" vertex="1">
          <mxGeometry x="2260" y="662.5" width="70" height="30" as="geometry" />
        </mxCell>
        <mxCell id="vYLdiH_t_LYaYiqmm7H8-433" value="31" style="text;html=1;strokeColor=none;fillColor=none;align=center;verticalAlign=middle;whiteSpace=wrap;rounded=0;" parent="1" vertex="1">
          <mxGeometry x="2205" y="662.5" width="60" height="30" as="geometry" />
        </mxCell>
        <mxCell id="vYLdiH_t_LYaYiqmm7H8-434" value="2" style="text;html=1;strokeColor=none;fillColor=none;align=center;verticalAlign=middle;whiteSpace=wrap;rounded=0;" parent="1" vertex="1">
          <mxGeometry x="2265" y="662.5" width="60" height="30" as="geometry" />
        </mxCell>
        <mxCell id="vYLdiH_t_LYaYiqmm7H8-435" value="Text" style="text;html=1;strokeColor=none;fillColor=none;align=center;verticalAlign=middle;whiteSpace=wrap;rounded=0;" parent="1" vertex="1">
          <mxGeometry x="2700" y="592.5" width="60" height="30" as="geometry" />
        </mxCell>
        <mxCell id="vYLdiH_t_LYaYiqmm7H8-438" value="31" style="text;html=1;strokeColor=none;fillColor=none;align=center;verticalAlign=middle;whiteSpace=wrap;rounded=0;" parent="1" vertex="1">
          <mxGeometry x="2200" y="722.5" width="60" height="30" as="geometry" />
        </mxCell>
        <mxCell id="vYLdiH_t_LYaYiqmm7H8-439" value="33" style="text;html=1;strokeColor=none;fillColor=none;align=center;verticalAlign=middle;whiteSpace=wrap;rounded=0;" parent="1" vertex="1">
          <mxGeometry x="2325" y="722.5" width="60" height="30" as="geometry" />
        </mxCell>
        <mxCell id="vYLdiH_t_LYaYiqmm7H8-440" value="0" style="text;html=1;strokeColor=none;fillColor=none;align=center;verticalAlign=middle;whiteSpace=wrap;rounded=0;" parent="1" vertex="1">
          <mxGeometry x="2260" y="722.5" width="60" height="30" as="geometry" />
        </mxCell>
        <mxCell id="vYLdiH_t_LYaYiqmm7H8-441" value="" style="endArrow=none;html=1;rounded=0;strokeColor=#FF0000;" parent="1" edge="1">
          <mxGeometry width="50" height="50" relative="1" as="geometry">
            <mxPoint x="2780" y="710" as="sourcePoint" />
            <mxPoint x="2800" y="710" as="targetPoint" />
          </mxGeometry>
        </mxCell>
        <mxCell id="vYLdiH_t_LYaYiqmm7H8-443" value="" style="endArrow=none;html=1;rounded=0;exitX=0.997;exitY=0.525;exitDx=0;exitDy=0;strokeColor=#FF0000;exitPerimeter=0;" parent="1" source="vYLdiH_t_LYaYiqmm7H8-423" edge="1">
          <mxGeometry width="50" height="50" relative="1" as="geometry">
            <mxPoint x="2400" y="713" as="sourcePoint" />
            <mxPoint x="2480" y="710" as="targetPoint" />
          </mxGeometry>
        </mxCell>
        <mxCell id="vYLdiH_t_LYaYiqmm7H8-444" value="" style="endArrow=none;html=1;rounded=0;dashed=1;" parent="1" edge="1">
          <mxGeometry width="50" height="50" relative="1" as="geometry">
            <mxPoint x="2480" y="712.5" as="sourcePoint" />
            <mxPoint x="2480" y="772.5" as="targetPoint" />
          </mxGeometry>
        </mxCell>
        <mxCell id="vYLdiH_t_LYaYiqmm7H8-445" value="" style="endArrow=none;html=1;rounded=0;strokeColor=#FF0000;" parent="1" edge="1">
          <mxGeometry width="50" height="50" relative="1" as="geometry">
            <mxPoint x="2480" y="712.5" as="sourcePoint" />
            <mxPoint x="2480" y="642.5" as="targetPoint" />
          </mxGeometry>
        </mxCell>
        <mxCell id="vYLdiH_t_LYaYiqmm7H8-446" value="" style="endArrow=classic;html=1;rounded=0;strokeColor=#FF0000;" parent="1" edge="1">
          <mxGeometry width="50" height="50" relative="1" as="geometry">
            <mxPoint x="2480" y="642.5" as="sourcePoint" />
            <mxPoint x="2570" y="642.5" as="targetPoint" />
          </mxGeometry>
        </mxCell>
        <mxCell id="vYLdiH_t_LYaYiqmm7H8-447" value="" style="endArrow=classic;html=1;rounded=0;dashed=1;" parent="1" edge="1">
          <mxGeometry width="50" height="50" relative="1" as="geometry">
            <mxPoint x="2480" y="772.5" as="sourcePoint" />
            <mxPoint x="2570" y="773" as="targetPoint" />
          </mxGeometry>
        </mxCell>
        <mxCell id="vYLdiH_t_LYaYiqmm7H8-448" value="" style="rounded=0;whiteSpace=wrap;html=1;" parent="1" vertex="1">
          <mxGeometry x="2570" y="592.5" width="190" height="90" as="geometry" />
        </mxCell>
        <mxCell id="vYLdiH_t_LYaYiqmm7H8-449" value="Text" style="text;html=1;strokeColor=none;fillColor=none;align=center;verticalAlign=middle;whiteSpace=wrap;rounded=0;" parent="1" vertex="1">
          <mxGeometry x="2570" y="592.5" width="60" height="30" as="geometry" />
        </mxCell>
        <mxCell id="vYLdiH_t_LYaYiqmm7H8-450" value="TLS/SSL" style="text;html=1;strokeColor=none;fillColor=none;align=center;verticalAlign=middle;whiteSpace=wrap;rounded=0;" parent="1" vertex="1">
          <mxGeometry x="2635" y="622.5" width="60" height="30" as="geometry" />
        </mxCell>
        <mxCell id="vYLdiH_t_LYaYiqmm7H8-451" value="Text" style="text;html=1;strokeColor=none;fillColor=none;align=center;verticalAlign=middle;whiteSpace=wrap;rounded=0;" parent="1" vertex="1">
          <mxGeometry x="2630" y="592.5" width="60" height="30" as="geometry" />
        </mxCell>
        <mxCell id="vYLdiH_t_LYaYiqmm7H8-452" value="" style="rounded=0;whiteSpace=wrap;html=1;" parent="1" vertex="1">
          <mxGeometry x="2570" y="592.5" width="60" height="30" as="geometry" />
        </mxCell>
        <mxCell id="vYLdiH_t_LYaYiqmm7H8-453" value="" style="rounded=0;whiteSpace=wrap;html=1;" parent="1" vertex="1">
          <mxGeometry x="2630" y="652.5" width="60" height="30" as="geometry" />
        </mxCell>
        <mxCell id="vYLdiH_t_LYaYiqmm7H8-454" value="" style="rounded=0;whiteSpace=wrap;html=1;" parent="1" vertex="1">
          <mxGeometry x="2690" y="652.5" width="70" height="30" as="geometry" />
        </mxCell>
        <mxCell id="vYLdiH_t_LYaYiqmm7H8-455" value="" style="rounded=0;whiteSpace=wrap;html=1;" parent="1" vertex="1">
          <mxGeometry x="2570" y="652.5" width="60" height="30" as="geometry" />
        </mxCell>
        <mxCell id="vYLdiH_t_LYaYiqmm7H8-456" value="" style="rounded=0;whiteSpace=wrap;html=1;" parent="1" vertex="1">
          <mxGeometry x="2690" y="592.5" width="70" height="30" as="geometry" />
        </mxCell>
        <mxCell id="vYLdiH_t_LYaYiqmm7H8-457" value="" style="rounded=0;whiteSpace=wrap;html=1;" parent="1" vertex="1">
          <mxGeometry x="2630" y="592.5" width="70" height="30" as="geometry" />
        </mxCell>
        <mxCell id="vYLdiH_t_LYaYiqmm7H8-458" value="33" style="text;html=1;strokeColor=none;fillColor=none;align=center;verticalAlign=middle;whiteSpace=wrap;rounded=0;" parent="1" vertex="1">
          <mxGeometry x="2575" y="592.5" width="60" height="30" as="geometry" />
        </mxCell>
        <mxCell id="vYLdiH_t_LYaYiqmm7H8-459" value="4" style="text;html=1;strokeColor=none;fillColor=none;align=center;verticalAlign=middle;whiteSpace=wrap;rounded=0;" parent="1" vertex="1">
          <mxGeometry x="2635" y="592.5" width="60" height="30" as="geometry" />
        </mxCell>
        <mxCell id="vYLdiH_t_LYaYiqmm7H8-462" value="33" style="text;html=1;strokeColor=none;fillColor=none;align=center;verticalAlign=middle;whiteSpace=wrap;rounded=0;" parent="1" vertex="1">
          <mxGeometry x="2570" y="652.5" width="60" height="30" as="geometry" />
        </mxCell>
        <mxCell id="vYLdiH_t_LYaYiqmm7H8-463" value="37" style="text;html=1;strokeColor=none;fillColor=none;align=center;verticalAlign=middle;whiteSpace=wrap;rounded=0;" parent="1" vertex="1">
          <mxGeometry x="2695" y="652.5" width="60" height="30" as="geometry" />
        </mxCell>
        <mxCell id="vYLdiH_t_LYaYiqmm7H8-464" value="0" style="text;html=1;strokeColor=none;fillColor=none;align=center;verticalAlign=middle;whiteSpace=wrap;rounded=0;" parent="1" vertex="1">
          <mxGeometry x="2630" y="652.5" width="60" height="30" as="geometry" />
        </mxCell>
        <mxCell id="vYLdiH_t_LYaYiqmm7H8-465" value="" style="rounded=0;whiteSpace=wrap;html=1;" parent="1" vertex="1">
          <mxGeometry x="2570" y="722.5" width="190" height="90" as="geometry" />
        </mxCell>
        <mxCell id="vYLdiH_t_LYaYiqmm7H8-466" value="Text" style="text;html=1;strokeColor=none;fillColor=none;align=center;verticalAlign=middle;whiteSpace=wrap;rounded=0;" parent="1" vertex="1">
          <mxGeometry x="2570" y="722.5" width="60" height="30" as="geometry" />
        </mxCell>
        <mxCell id="vYLdiH_t_LYaYiqmm7H8-467" value="Traffic Handling" style="text;html=1;strokeColor=none;fillColor=none;align=center;verticalAlign=middle;whiteSpace=wrap;rounded=0;" parent="1" vertex="1">
          <mxGeometry x="2610" y="752.5" width="110" height="30" as="geometry" />
        </mxCell>
        <mxCell id="vYLdiH_t_LYaYiqmm7H8-468" value="Text" style="text;html=1;strokeColor=none;fillColor=none;align=center;verticalAlign=middle;whiteSpace=wrap;rounded=0;" parent="1" vertex="1">
          <mxGeometry x="2630" y="722.5" width="60" height="30" as="geometry" />
        </mxCell>
        <mxCell id="vYLdiH_t_LYaYiqmm7H8-469" value="" style="rounded=0;whiteSpace=wrap;html=1;" parent="1" vertex="1">
          <mxGeometry x="2570" y="722.5" width="60" height="30" as="geometry" />
        </mxCell>
        <mxCell id="vYLdiH_t_LYaYiqmm7H8-470" value="" style="rounded=0;whiteSpace=wrap;html=1;" parent="1" vertex="1">
          <mxGeometry x="2630" y="782.5" width="60" height="30" as="geometry" />
        </mxCell>
        <mxCell id="vYLdiH_t_LYaYiqmm7H8-471" value="" style="rounded=0;whiteSpace=wrap;html=1;" parent="1" vertex="1">
          <mxGeometry x="2690" y="782.5" width="70" height="30" as="geometry" />
        </mxCell>
        <mxCell id="vYLdiH_t_LYaYiqmm7H8-472" value="" style="rounded=0;whiteSpace=wrap;html=1;" parent="1" vertex="1">
          <mxGeometry x="2570" y="782.5" width="60" height="30" as="geometry" />
        </mxCell>
        <mxCell id="vYLdiH_t_LYaYiqmm7H8-473" value="" style="rounded=0;whiteSpace=wrap;html=1;" parent="1" vertex="1">
          <mxGeometry x="2690" y="722.5" width="70" height="30" as="geometry" />
        </mxCell>
        <mxCell id="vYLdiH_t_LYaYiqmm7H8-474" value="" style="rounded=0;whiteSpace=wrap;html=1;" parent="1" vertex="1">
          <mxGeometry x="2630" y="722.5" width="70" height="30" as="geometry" />
        </mxCell>
        <mxCell id="vYLdiH_t_LYaYiqmm7H8-475" value="33" style="text;html=1;strokeColor=none;fillColor=none;align=center;verticalAlign=middle;whiteSpace=wrap;rounded=0;" parent="1" vertex="1">
          <mxGeometry x="2575" y="722.5" width="60" height="30" as="geometry" />
        </mxCell>
        <mxCell id="vYLdiH_t_LYaYiqmm7H8-476" value="1" style="text;html=1;strokeColor=none;fillColor=none;align=center;verticalAlign=middle;whiteSpace=wrap;rounded=0;" parent="1" vertex="1">
          <mxGeometry x="2635" y="722.5" width="60" height="30" as="geometry" />
        </mxCell>
        <mxCell id="vYLdiH_t_LYaYiqmm7H8-477" value="37" style="text;html=1;strokeColor=none;fillColor=none;align=center;verticalAlign=middle;whiteSpace=wrap;rounded=0;" parent="1" vertex="1">
          <mxGeometry x="2700" y="592.5" width="60" height="30" as="geometry" />
        </mxCell>
        <mxCell id="vYLdiH_t_LYaYiqmm7H8-478" value="34" style="text;html=1;strokeColor=none;fillColor=none;align=center;verticalAlign=middle;whiteSpace=wrap;rounded=0;" parent="1" vertex="1">
          <mxGeometry x="2700" y="722.5" width="60" height="30" as="geometry" />
        </mxCell>
        <mxCell id="vYLdiH_t_LYaYiqmm7H8-479" value="36" style="text;html=1;strokeColor=none;fillColor=none;align=center;verticalAlign=middle;whiteSpace=wrap;rounded=0;" parent="1" vertex="1">
          <mxGeometry x="2570" y="782.5" width="60" height="30" as="geometry" />
        </mxCell>
        <mxCell id="vYLdiH_t_LYaYiqmm7H8-480" value="37" style="text;html=1;strokeColor=none;fillColor=none;align=center;verticalAlign=middle;whiteSpace=wrap;rounded=0;" parent="1" vertex="1">
          <mxGeometry x="2695" y="782.5" width="60" height="30" as="geometry" />
        </mxCell>
        <mxCell id="vYLdiH_t_LYaYiqmm7H8-481" value="3" style="text;html=1;strokeColor=none;fillColor=none;align=center;verticalAlign=middle;whiteSpace=wrap;rounded=0;" parent="1" vertex="1">
          <mxGeometry x="2630" y="782.5" width="60" height="30" as="geometry" />
        </mxCell>
        <mxCell id="vYLdiH_t_LYaYiqmm7H8-482" value="" style="endArrow=none;html=1;rounded=0;" parent="1" edge="1">
          <mxGeometry width="50" height="50" relative="1" as="geometry">
            <mxPoint x="2600" y="320" as="sourcePoint" />
            <mxPoint x="2800" y="320" as="targetPoint" />
          </mxGeometry>
        </mxCell>
        <mxCell id="vYLdiH_t_LYaYiqmm7H8-483" value="" style="endArrow=none;html=1;rounded=0;" parent="1" edge="1">
          <mxGeometry width="50" height="50" relative="1" as="geometry">
            <mxPoint x="2800" y="510" as="sourcePoint" />
            <mxPoint x="2800" y="320" as="targetPoint" />
          </mxGeometry>
        </mxCell>
        <mxCell id="vYLdiH_t_LYaYiqmm7H8-484" value="" style="endArrow=classic;html=1;rounded=0;strokeColor=#FF0000;" parent="1" edge="1">
          <mxGeometry width="50" height="50" relative="1" as="geometry">
            <mxPoint x="2800" y="510" as="sourcePoint" />
            <mxPoint x="2920" y="510" as="targetPoint" />
          </mxGeometry>
        </mxCell>
        <mxCell id="vYLdiH_t_LYaYiqmm7H8-485" value="" style="rounded=0;whiteSpace=wrap;html=1;" parent="1" vertex="1">
          <mxGeometry x="2920" y="460" width="190" height="90" as="geometry" />
        </mxCell>
        <mxCell id="vYLdiH_t_LYaYiqmm7H8-486" value="Text" style="text;html=1;strokeColor=none;fillColor=none;align=center;verticalAlign=middle;whiteSpace=wrap;rounded=0;" parent="1" vertex="1">
          <mxGeometry x="2920" y="460" width="60" height="30" as="geometry" />
        </mxCell>
        <mxCell id="vYLdiH_t_LYaYiqmm7H8-487" value="Unit Testing" style="text;html=1;strokeColor=none;fillColor=none;align=center;verticalAlign=middle;whiteSpace=wrap;rounded=0;" parent="1" vertex="1">
          <mxGeometry x="2980" y="490" width="65" height="30" as="geometry" />
        </mxCell>
        <mxCell id="vYLdiH_t_LYaYiqmm7H8-488" value="Text" style="text;html=1;strokeColor=none;fillColor=none;align=center;verticalAlign=middle;whiteSpace=wrap;rounded=0;" parent="1" vertex="1">
          <mxGeometry x="2980" y="460" width="60" height="30" as="geometry" />
        </mxCell>
        <mxCell id="vYLdiH_t_LYaYiqmm7H8-489" value="" style="rounded=0;whiteSpace=wrap;html=1;" parent="1" vertex="1">
          <mxGeometry x="2920" y="460" width="60" height="30" as="geometry" />
        </mxCell>
        <mxCell id="vYLdiH_t_LYaYiqmm7H8-490" value="" style="rounded=0;whiteSpace=wrap;html=1;" parent="1" vertex="1">
          <mxGeometry x="2980" y="520" width="60" height="30" as="geometry" />
        </mxCell>
        <mxCell id="vYLdiH_t_LYaYiqmm7H8-491" value="" style="rounded=0;whiteSpace=wrap;html=1;" parent="1" vertex="1">
          <mxGeometry x="3040" y="520" width="70" height="30" as="geometry" />
        </mxCell>
        <mxCell id="vYLdiH_t_LYaYiqmm7H8-492" value="" style="rounded=0;whiteSpace=wrap;html=1;" parent="1" vertex="1">
          <mxGeometry x="2920" y="520" width="60" height="30" as="geometry" />
        </mxCell>
        <mxCell id="vYLdiH_t_LYaYiqmm7H8-493" value="" style="rounded=0;whiteSpace=wrap;html=1;" parent="1" vertex="1">
          <mxGeometry x="3040" y="460" width="70" height="30" as="geometry" />
        </mxCell>
        <mxCell id="vYLdiH_t_LYaYiqmm7H8-494" value="" style="rounded=0;whiteSpace=wrap;html=1;" parent="1" vertex="1">
          <mxGeometry x="2980" y="460" width="70" height="30" as="geometry" />
        </mxCell>
        <mxCell id="vYLdiH_t_LYaYiqmm7H8-495" value="37" style="text;html=1;strokeColor=none;fillColor=none;align=center;verticalAlign=middle;whiteSpace=wrap;rounded=0;" parent="1" vertex="1">
          <mxGeometry x="2925" y="460" width="60" height="30" as="geometry" />
        </mxCell>
        <mxCell id="vYLdiH_t_LYaYiqmm7H8-496" value="10" style="text;html=1;strokeColor=none;fillColor=none;align=center;verticalAlign=middle;whiteSpace=wrap;rounded=0;" parent="1" vertex="1">
          <mxGeometry x="2985" y="460" width="60" height="30" as="geometry" />
        </mxCell>
        <mxCell id="vYLdiH_t_LYaYiqmm7H8-497" value="47" style="text;html=1;strokeColor=none;fillColor=none;align=center;verticalAlign=middle;whiteSpace=wrap;rounded=0;" parent="1" vertex="1">
          <mxGeometry x="3050" y="460" width="60" height="30" as="geometry" />
        </mxCell>
        <mxCell id="vYLdiH_t_LYaYiqmm7H8-499" value="37" style="text;html=1;strokeColor=none;fillColor=none;align=center;verticalAlign=middle;whiteSpace=wrap;rounded=0;" parent="1" vertex="1">
          <mxGeometry x="2920" y="520" width="60" height="30" as="geometry" />
        </mxCell>
        <mxCell id="vYLdiH_t_LYaYiqmm7H8-500" value="47" style="text;html=1;strokeColor=none;fillColor=none;align=center;verticalAlign=middle;whiteSpace=wrap;rounded=0;" parent="1" vertex="1">
          <mxGeometry x="3045" y="520" width="60" height="30" as="geometry" />
        </mxCell>
        <mxCell id="vYLdiH_t_LYaYiqmm7H8-501" value="0" style="text;html=1;strokeColor=none;fillColor=none;align=center;verticalAlign=middle;whiteSpace=wrap;rounded=0;" parent="1" vertex="1">
          <mxGeometry x="2980" y="520" width="60" height="30" as="geometry" />
        </mxCell>
        <mxCell id="vYLdiH_t_LYaYiqmm7H8-502" value="" style="endArrow=classic;html=1;rounded=0;strokeColor=#FF0000;" parent="1" edge="1">
          <mxGeometry width="50" height="50" relative="1" as="geometry">
            <mxPoint x="3110" y="510" as="sourcePoint" />
            <mxPoint x="3190" y="510" as="targetPoint" />
          </mxGeometry>
        </mxCell>
        <mxCell id="vYLdiH_t_LYaYiqmm7H8-503" value="" style="rounded=0;whiteSpace=wrap;html=1;" parent="1" vertex="1">
          <mxGeometry x="3190" y="467.5" width="190" height="90" as="geometry" />
        </mxCell>
        <mxCell id="vYLdiH_t_LYaYiqmm7H8-504" value="Text" style="text;html=1;strokeColor=none;fillColor=none;align=center;verticalAlign=middle;whiteSpace=wrap;rounded=0;" parent="1" vertex="1">
          <mxGeometry x="3190" y="467.5" width="60" height="30" as="geometry" />
        </mxCell>
        <mxCell id="vYLdiH_t_LYaYiqmm7H8-505" value="Integration Testing" style="text;html=1;strokeColor=none;fillColor=none;align=center;verticalAlign=middle;whiteSpace=wrap;rounded=0;" parent="1" vertex="1">
          <mxGeometry x="3230" y="497.5" width="100" height="30" as="geometry" />
        </mxCell>
        <mxCell id="vYLdiH_t_LYaYiqmm7H8-506" value="Text" style="text;html=1;strokeColor=none;fillColor=none;align=center;verticalAlign=middle;whiteSpace=wrap;rounded=0;" parent="1" vertex="1">
          <mxGeometry x="3250" y="467.5" width="60" height="30" as="geometry" />
        </mxCell>
        <mxCell id="vYLdiH_t_LYaYiqmm7H8-507" value="" style="rounded=0;whiteSpace=wrap;html=1;" parent="1" vertex="1">
          <mxGeometry x="3190" y="467.5" width="60" height="30" as="geometry" />
        </mxCell>
        <mxCell id="vYLdiH_t_LYaYiqmm7H8-508" value="" style="rounded=0;whiteSpace=wrap;html=1;" parent="1" vertex="1">
          <mxGeometry x="3250" y="527.5" width="60" height="30" as="geometry" />
        </mxCell>
        <mxCell id="vYLdiH_t_LYaYiqmm7H8-509" value="" style="rounded=0;whiteSpace=wrap;html=1;" parent="1" vertex="1">
          <mxGeometry x="3310" y="527.5" width="70" height="30" as="geometry" />
        </mxCell>
        <mxCell id="vYLdiH_t_LYaYiqmm7H8-510" value="" style="rounded=0;whiteSpace=wrap;html=1;" parent="1" vertex="1">
          <mxGeometry x="3190" y="527.5" width="60" height="30" as="geometry" />
        </mxCell>
        <mxCell id="vYLdiH_t_LYaYiqmm7H8-511" value="" style="rounded=0;whiteSpace=wrap;html=1;" parent="1" vertex="1">
          <mxGeometry x="3310" y="467.5" width="70" height="30" as="geometry" />
        </mxCell>
        <mxCell id="vYLdiH_t_LYaYiqmm7H8-512" value="" style="rounded=0;whiteSpace=wrap;html=1;" parent="1" vertex="1">
          <mxGeometry x="3250" y="467.5" width="70" height="30" as="geometry" />
        </mxCell>
        <mxCell id="vYLdiH_t_LYaYiqmm7H8-513" value="47" style="text;html=1;strokeColor=none;fillColor=none;align=center;verticalAlign=middle;whiteSpace=wrap;rounded=0;" parent="1" vertex="1">
          <mxGeometry x="3195" y="467.5" width="60" height="30" as="geometry" />
        </mxCell>
        <mxCell id="vYLdiH_t_LYaYiqmm7H8-514" value="15" style="text;html=1;strokeColor=none;fillColor=none;align=center;verticalAlign=middle;whiteSpace=wrap;rounded=0;" parent="1" vertex="1">
          <mxGeometry x="3255" y="467.5" width="60" height="30" as="geometry" />
        </mxCell>
        <mxCell id="vYLdiH_t_LYaYiqmm7H8-515" value="62" style="text;html=1;strokeColor=none;fillColor=none;align=center;verticalAlign=middle;whiteSpace=wrap;rounded=0;" parent="1" vertex="1">
          <mxGeometry x="3320" y="467.5" width="60" height="30" as="geometry" />
        </mxCell>
        <mxCell id="vYLdiH_t_LYaYiqmm7H8-517" value="47" style="text;html=1;strokeColor=none;fillColor=none;align=center;verticalAlign=middle;whiteSpace=wrap;rounded=0;" parent="1" vertex="1">
          <mxGeometry x="3190" y="527.5" width="60" height="30" as="geometry" />
        </mxCell>
        <mxCell id="vYLdiH_t_LYaYiqmm7H8-518" value="62" style="text;html=1;strokeColor=none;fillColor=none;align=center;verticalAlign=middle;whiteSpace=wrap;rounded=0;" parent="1" vertex="1">
          <mxGeometry x="3315" y="527.5" width="60" height="30" as="geometry" />
        </mxCell>
        <mxCell id="vYLdiH_t_LYaYiqmm7H8-519" value="0" style="text;html=1;strokeColor=none;fillColor=none;align=center;verticalAlign=middle;whiteSpace=wrap;rounded=0;" parent="1" vertex="1">
          <mxGeometry x="3250" y="527.5" width="60" height="30" as="geometry" />
        </mxCell>
        <mxCell id="vYLdiH_t_LYaYiqmm7H8-521" value="" style="rounded=0;whiteSpace=wrap;html=1;" parent="1" vertex="1">
          <mxGeometry x="3452" y="470" width="190" height="90" as="geometry" />
        </mxCell>
        <mxCell id="vYLdiH_t_LYaYiqmm7H8-522" value="Text" style="text;html=1;strokeColor=none;fillColor=none;align=center;verticalAlign=middle;whiteSpace=wrap;rounded=0;" parent="1" vertex="1">
          <mxGeometry x="3452" y="470" width="60" height="30" as="geometry" />
        </mxCell>
        <mxCell id="vYLdiH_t_LYaYiqmm7H8-523" value="User Acceptance Testing" style="text;html=1;strokeColor=none;fillColor=none;align=center;verticalAlign=middle;whiteSpace=wrap;rounded=0;" parent="1" vertex="1">
          <mxGeometry x="3470" y="500" width="150" height="30" as="geometry" />
        </mxCell>
        <mxCell id="vYLdiH_t_LYaYiqmm7H8-524" value="Text" style="text;html=1;strokeColor=none;fillColor=none;align=center;verticalAlign=middle;whiteSpace=wrap;rounded=0;" parent="1" vertex="1">
          <mxGeometry x="3512" y="470" width="60" height="30" as="geometry" />
        </mxCell>
        <mxCell id="vYLdiH_t_LYaYiqmm7H8-525" value="" style="rounded=0;whiteSpace=wrap;html=1;" parent="1" vertex="1">
          <mxGeometry x="3452" y="470" width="60" height="30" as="geometry" />
        </mxCell>
        <mxCell id="vYLdiH_t_LYaYiqmm7H8-526" value="" style="rounded=0;whiteSpace=wrap;html=1;" parent="1" vertex="1">
          <mxGeometry x="3512" y="530" width="60" height="30" as="geometry" />
        </mxCell>
        <mxCell id="vYLdiH_t_LYaYiqmm7H8-527" value="" style="rounded=0;whiteSpace=wrap;html=1;" parent="1" vertex="1">
          <mxGeometry x="3572" y="530" width="70" height="30" as="geometry" />
        </mxCell>
        <mxCell id="vYLdiH_t_LYaYiqmm7H8-528" value="" style="rounded=0;whiteSpace=wrap;html=1;" parent="1" vertex="1">
          <mxGeometry x="3452" y="530" width="60" height="30" as="geometry" />
        </mxCell>
        <mxCell id="vYLdiH_t_LYaYiqmm7H8-529" value="" style="rounded=0;whiteSpace=wrap;html=1;" parent="1" vertex="1">
          <mxGeometry x="3572" y="470" width="70" height="30" as="geometry" />
        </mxCell>
        <mxCell id="vYLdiH_t_LYaYiqmm7H8-530" value="" style="rounded=0;whiteSpace=wrap;html=1;" parent="1" vertex="1">
          <mxGeometry x="3512" y="470" width="70" height="30" as="geometry" />
        </mxCell>
        <mxCell id="vYLdiH_t_LYaYiqmm7H8-531" value="62" style="text;html=1;strokeColor=none;fillColor=none;align=center;verticalAlign=middle;whiteSpace=wrap;rounded=0;" parent="1" vertex="1">
          <mxGeometry x="3457" y="470" width="60" height="30" as="geometry" />
        </mxCell>
        <mxCell id="vYLdiH_t_LYaYiqmm7H8-532" value="5" style="text;html=1;strokeColor=none;fillColor=none;align=center;verticalAlign=middle;whiteSpace=wrap;rounded=0;" parent="1" vertex="1">
          <mxGeometry x="3517" y="470" width="60" height="30" as="geometry" />
        </mxCell>
        <mxCell id="vYLdiH_t_LYaYiqmm7H8-534" value="67" style="text;html=1;strokeColor=none;fillColor=none;align=center;verticalAlign=middle;whiteSpace=wrap;rounded=0;" parent="1" vertex="1">
          <mxGeometry x="3582" y="470" width="60" height="30" as="geometry" />
        </mxCell>
        <mxCell id="vYLdiH_t_LYaYiqmm7H8-535" value="62" style="text;html=1;strokeColor=none;fillColor=none;align=center;verticalAlign=middle;whiteSpace=wrap;rounded=0;" parent="1" vertex="1">
          <mxGeometry x="3452" y="530" width="60" height="30" as="geometry" />
        </mxCell>
        <mxCell id="vYLdiH_t_LYaYiqmm7H8-536" value="67" style="text;html=1;strokeColor=none;fillColor=none;align=center;verticalAlign=middle;whiteSpace=wrap;rounded=0;" parent="1" vertex="1">
          <mxGeometry x="3577" y="530" width="60" height="30" as="geometry" />
        </mxCell>
        <mxCell id="vYLdiH_t_LYaYiqmm7H8-537" value="0" style="text;html=1;strokeColor=none;fillColor=none;align=center;verticalAlign=middle;whiteSpace=wrap;rounded=0;" parent="1" vertex="1">
          <mxGeometry x="3512" y="530" width="60" height="30" as="geometry" />
        </mxCell>
        <mxCell id="vYLdiH_t_LYaYiqmm7H8-598" value="" style="rounded=0;whiteSpace=wrap;html=1;" parent="1" vertex="1">
          <mxGeometry x="3821" y="286.25" width="190" height="90" as="geometry" />
        </mxCell>
        <mxCell id="vYLdiH_t_LYaYiqmm7H8-599" value="Text" style="text;html=1;strokeColor=none;fillColor=none;align=center;verticalAlign=middle;whiteSpace=wrap;rounded=0;" parent="1" vertex="1">
          <mxGeometry x="3821" y="286.25" width="60" height="30" as="geometry" />
        </mxCell>
        <mxCell id="vYLdiH_t_LYaYiqmm7H8-600" value="Text" style="text;html=1;strokeColor=none;fillColor=none;align=center;verticalAlign=middle;whiteSpace=wrap;rounded=0;" parent="1" vertex="1">
          <mxGeometry x="3886" y="286.25" width="60" height="30" as="geometry" />
        </mxCell>
        <mxCell id="vYLdiH_t_LYaYiqmm7H8-601" value="Text" style="text;html=1;strokeColor=none;fillColor=none;align=center;verticalAlign=middle;whiteSpace=wrap;rounded=0;" parent="1" vertex="1">
          <mxGeometry x="3881" y="286.25" width="60" height="30" as="geometry" />
        </mxCell>
        <mxCell id="vYLdiH_t_LYaYiqmm7H8-602" value="" style="rounded=0;whiteSpace=wrap;html=1;" parent="1" vertex="1">
          <mxGeometry x="3821" y="286.25" width="60" height="30" as="geometry" />
        </mxCell>
        <mxCell id="vYLdiH_t_LYaYiqmm7H8-603" value="" style="rounded=0;whiteSpace=wrap;html=1;" parent="1" vertex="1">
          <mxGeometry x="3881" y="346.25" width="60" height="30" as="geometry" />
        </mxCell>
        <mxCell id="vYLdiH_t_LYaYiqmm7H8-604" value="" style="rounded=0;whiteSpace=wrap;html=1;" parent="1" vertex="1">
          <mxGeometry x="3941" y="346.25" width="70" height="30" as="geometry" />
        </mxCell>
        <mxCell id="vYLdiH_t_LYaYiqmm7H8-605" value="" style="rounded=0;whiteSpace=wrap;html=1;" parent="1" vertex="1">
          <mxGeometry x="3821" y="346.25" width="60" height="30" as="geometry" />
        </mxCell>
        <mxCell id="vYLdiH_t_LYaYiqmm7H8-606" value="" style="rounded=0;whiteSpace=wrap;html=1;" parent="1" vertex="1">
          <mxGeometry x="3941" y="286.25" width="70" height="30" as="geometry" />
        </mxCell>
        <mxCell id="vYLdiH_t_LYaYiqmm7H8-607" value="" style="rounded=0;whiteSpace=wrap;html=1;" parent="1" vertex="1">
          <mxGeometry x="3881" y="286.25" width="70" height="30" as="geometry" />
        </mxCell>
        <mxCell id="vYLdiH_t_LYaYiqmm7H8-608" value="67" style="text;html=1;strokeColor=none;fillColor=none;align=center;verticalAlign=middle;whiteSpace=wrap;rounded=0;" parent="1" vertex="1">
          <mxGeometry x="3826" y="286.25" width="60" height="30" as="geometry" />
        </mxCell>
        <mxCell id="vYLdiH_t_LYaYiqmm7H8-609" value="5" style="text;html=1;strokeColor=none;fillColor=none;align=center;verticalAlign=middle;whiteSpace=wrap;rounded=0;" parent="1" vertex="1">
          <mxGeometry x="3881" y="286.25" width="60" height="30" as="geometry" />
        </mxCell>
        <mxCell id="vYLdiH_t_LYaYiqmm7H8-610" value="72" style="text;html=1;strokeColor=none;fillColor=none;align=center;verticalAlign=middle;whiteSpace=wrap;rounded=0;" parent="1" vertex="1">
          <mxGeometry x="3951" y="286.25" width="60" height="30" as="geometry" />
        </mxCell>
        <mxCell id="vYLdiH_t_LYaYiqmm7H8-611" value="Client Documentation" style="text;html=1;strokeColor=none;fillColor=none;align=center;verticalAlign=middle;whiteSpace=wrap;rounded=0;" parent="1" vertex="1">
          <mxGeometry x="3856" y="316.25" width="120" height="30" as="geometry" />
        </mxCell>
        <mxCell id="vYLdiH_t_LYaYiqmm7H8-613" value="69" style="text;html=1;strokeColor=none;fillColor=none;align=center;verticalAlign=middle;whiteSpace=wrap;rounded=0;" parent="1" vertex="1">
          <mxGeometry x="3821" y="346.25" width="60" height="30" as="geometry" />
        </mxCell>
        <mxCell id="vYLdiH_t_LYaYiqmm7H8-614" value="74" style="text;html=1;strokeColor=none;fillColor=none;align=center;verticalAlign=middle;whiteSpace=wrap;rounded=0;" parent="1" vertex="1">
          <mxGeometry x="3946" y="346.25" width="60" height="30" as="geometry" />
        </mxCell>
        <mxCell id="vYLdiH_t_LYaYiqmm7H8-615" value="2" style="text;html=1;strokeColor=none;fillColor=none;align=center;verticalAlign=middle;whiteSpace=wrap;rounded=0;" parent="1" vertex="1">
          <mxGeometry x="3881" y="346.25" width="60" height="30" as="geometry" />
        </mxCell>
        <mxCell id="vYLdiH_t_LYaYiqmm7H8-616" value="" style="endArrow=classic;html=1;rounded=0;" parent="1" edge="1">
          <mxGeometry width="50" height="50" relative="1" as="geometry">
            <mxPoint x="3701" y="336.25" as="sourcePoint" />
            <mxPoint x="3821" y="336.25" as="targetPoint" />
          </mxGeometry>
        </mxCell>
        <mxCell id="vYLdiH_t_LYaYiqmm7H8-617" value="" style="rounded=0;whiteSpace=wrap;html=1;" parent="1" vertex="1">
          <mxGeometry x="3826" y="476.25" width="190" height="90" as="geometry" />
        </mxCell>
        <mxCell id="vYLdiH_t_LYaYiqmm7H8-618" value="Text" style="text;html=1;strokeColor=none;fillColor=none;align=center;verticalAlign=middle;whiteSpace=wrap;rounded=0;" parent="1" vertex="1">
          <mxGeometry x="3826" y="476.25" width="60" height="30" as="geometry" />
        </mxCell>
        <mxCell id="vYLdiH_t_LYaYiqmm7H8-619" value="User Manual" style="text;html=1;strokeColor=none;fillColor=none;align=center;verticalAlign=middle;whiteSpace=wrap;rounded=0;" parent="1" vertex="1">
          <mxGeometry x="3870" y="506.25" width="90" height="30" as="geometry" />
        </mxCell>
        <mxCell id="vYLdiH_t_LYaYiqmm7H8-620" value="Text" style="text;html=1;strokeColor=none;fillColor=none;align=center;verticalAlign=middle;whiteSpace=wrap;rounded=0;" parent="1" vertex="1">
          <mxGeometry x="3886" y="476.25" width="60" height="30" as="geometry" />
        </mxCell>
        <mxCell id="vYLdiH_t_LYaYiqmm7H8-621" value="" style="rounded=0;whiteSpace=wrap;html=1;" parent="1" vertex="1">
          <mxGeometry x="3826" y="476.25" width="60" height="30" as="geometry" />
        </mxCell>
        <mxCell id="vYLdiH_t_LYaYiqmm7H8-622" value="" style="rounded=0;whiteSpace=wrap;html=1;" parent="1" vertex="1">
          <mxGeometry x="3886" y="536.25" width="60" height="30" as="geometry" />
        </mxCell>
        <mxCell id="vYLdiH_t_LYaYiqmm7H8-623" value="" style="rounded=0;whiteSpace=wrap;html=1;" parent="1" vertex="1">
          <mxGeometry x="3946" y="536.25" width="70" height="30" as="geometry" />
        </mxCell>
        <mxCell id="vYLdiH_t_LYaYiqmm7H8-624" value="" style="rounded=0;whiteSpace=wrap;html=1;" parent="1" vertex="1">
          <mxGeometry x="3826" y="536.25" width="60" height="30" as="geometry" />
        </mxCell>
        <mxCell id="vYLdiH_t_LYaYiqmm7H8-625" value="" style="rounded=0;whiteSpace=wrap;html=1;" parent="1" vertex="1">
          <mxGeometry x="3946" y="476.25" width="70" height="30" as="geometry" />
        </mxCell>
        <mxCell id="vYLdiH_t_LYaYiqmm7H8-626" value="" style="rounded=0;whiteSpace=wrap;html=1;" parent="1" vertex="1">
          <mxGeometry x="3886" y="476.25" width="70" height="30" as="geometry" />
        </mxCell>
        <mxCell id="vYLdiH_t_LYaYiqmm7H8-627" value="67" style="text;html=1;strokeColor=none;fillColor=none;align=center;verticalAlign=middle;whiteSpace=wrap;rounded=0;" parent="1" vertex="1">
          <mxGeometry x="3831" y="476.25" width="60" height="30" as="geometry" />
        </mxCell>
        <mxCell id="vYLdiH_t_LYaYiqmm7H8-628" value="6" style="text;html=1;strokeColor=none;fillColor=none;align=center;verticalAlign=middle;whiteSpace=wrap;rounded=0;" parent="1" vertex="1">
          <mxGeometry x="3891" y="476.25" width="60" height="30" as="geometry" />
        </mxCell>
        <mxCell id="vYLdiH_t_LYaYiqmm7H8-629" value="73" style="text;html=1;strokeColor=none;fillColor=none;align=center;verticalAlign=middle;whiteSpace=wrap;rounded=0;" parent="1" vertex="1">
          <mxGeometry x="3956" y="476.25" width="60" height="30" as="geometry" />
        </mxCell>
        <mxCell id="vYLdiH_t_LYaYiqmm7H8-632" value="68" style="text;html=1;strokeColor=none;fillColor=none;align=center;verticalAlign=middle;whiteSpace=wrap;rounded=0;" parent="1" vertex="1">
          <mxGeometry x="3826" y="536.25" width="60" height="30" as="geometry" />
        </mxCell>
        <mxCell id="vYLdiH_t_LYaYiqmm7H8-633" value="74" style="text;html=1;strokeColor=none;fillColor=none;align=center;verticalAlign=middle;whiteSpace=wrap;rounded=0;" parent="1" vertex="1">
          <mxGeometry x="3951" y="536.25" width="60" height="30" as="geometry" />
        </mxCell>
        <mxCell id="vYLdiH_t_LYaYiqmm7H8-634" value="1" style="text;html=1;strokeColor=none;fillColor=none;align=center;verticalAlign=middle;whiteSpace=wrap;rounded=0;" parent="1" vertex="1">
          <mxGeometry x="3886" y="536.25" width="60" height="30" as="geometry" />
        </mxCell>
        <mxCell id="vYLdiH_t_LYaYiqmm7H8-635" value="" style="endArrow=none;html=1;rounded=0;exitX=1;exitY=0.5;exitDx=0;exitDy=0;strokeColor=#FF0000;" parent="1" source="vYLdiH_t_LYaYiqmm7H8-521" edge="1">
          <mxGeometry width="50" height="50" relative="1" as="geometry">
            <mxPoint x="3642" y="426.25" as="sourcePoint" />
            <mxPoint x="3701" y="515" as="targetPoint" />
          </mxGeometry>
        </mxCell>
        <mxCell id="vYLdiH_t_LYaYiqmm7H8-636" value="" style="endArrow=none;html=1;rounded=0;" parent="1" edge="1">
          <mxGeometry width="50" height="50" relative="1" as="geometry">
            <mxPoint x="3701" y="426.25" as="sourcePoint" />
            <mxPoint x="3701" y="336.25" as="targetPoint" />
          </mxGeometry>
        </mxCell>
        <mxCell id="vYLdiH_t_LYaYiqmm7H8-637" value="" style="endArrow=none;html=1;rounded=0;" parent="1" edge="1">
          <mxGeometry width="50" height="50" relative="1" as="geometry">
            <mxPoint x="3701" y="516.25" as="sourcePoint" />
            <mxPoint x="3701" y="426.25" as="targetPoint" />
          </mxGeometry>
        </mxCell>
        <mxCell id="vYLdiH_t_LYaYiqmm7H8-638" value="" style="endArrow=classic;html=1;rounded=0;entryX=0;entryY=0.25;entryDx=0;entryDy=0;" parent="1" edge="1">
          <mxGeometry width="50" height="50" relative="1" as="geometry">
            <mxPoint x="3701" y="515.12" as="sourcePoint" />
            <mxPoint x="3826" y="514.87" as="targetPoint" />
          </mxGeometry>
        </mxCell>
        <mxCell id="vYLdiH_t_LYaYiqmm7H8-639" value="" style="endArrow=none;html=1;rounded=0;strokeColor=#FF0000;" parent="1" edge="1">
          <mxGeometry width="50" height="50" relative="1" as="geometry">
            <mxPoint x="3701" y="653.75" as="sourcePoint" />
            <mxPoint x="3701" y="513.75" as="targetPoint" />
          </mxGeometry>
        </mxCell>
        <mxCell id="vYLdiH_t_LYaYiqmm7H8-640" value="" style="rounded=0;whiteSpace=wrap;html=1;" parent="1" vertex="1">
          <mxGeometry x="3826" y="613.75" width="190" height="90" as="geometry" />
        </mxCell>
        <mxCell id="vYLdiH_t_LYaYiqmm7H8-641" value="Text" style="text;html=1;strokeColor=none;fillColor=none;align=center;verticalAlign=middle;whiteSpace=wrap;rounded=0;" parent="1" vertex="1">
          <mxGeometry x="3826" y="613.75" width="60" height="30" as="geometry" />
        </mxCell>
        <mxCell id="vYLdiH_t_LYaYiqmm7H8-642" value="Admin Documentation" style="text;html=1;strokeColor=none;fillColor=none;align=center;verticalAlign=middle;whiteSpace=wrap;rounded=0;" parent="1" vertex="1">
          <mxGeometry x="3860" y="643.75" width="130" height="30" as="geometry" />
        </mxCell>
        <mxCell id="vYLdiH_t_LYaYiqmm7H8-643" value="Text" style="text;html=1;strokeColor=none;fillColor=none;align=center;verticalAlign=middle;whiteSpace=wrap;rounded=0;" parent="1" vertex="1">
          <mxGeometry x="3886" y="613.75" width="60" height="30" as="geometry" />
        </mxCell>
        <mxCell id="vYLdiH_t_LYaYiqmm7H8-644" value="" style="rounded=0;whiteSpace=wrap;html=1;" parent="1" vertex="1">
          <mxGeometry x="3826" y="613.75" width="60" height="30" as="geometry" />
        </mxCell>
        <mxCell id="vYLdiH_t_LYaYiqmm7H8-645" value="" style="rounded=0;whiteSpace=wrap;html=1;" parent="1" vertex="1">
          <mxGeometry x="3886" y="673.75" width="60" height="30" as="geometry" />
        </mxCell>
        <mxCell id="vYLdiH_t_LYaYiqmm7H8-646" value="" style="rounded=0;whiteSpace=wrap;html=1;" parent="1" vertex="1">
          <mxGeometry x="3946" y="673.75" width="70" height="30" as="geometry" />
        </mxCell>
        <mxCell id="vYLdiH_t_LYaYiqmm7H8-647" value="" style="rounded=0;whiteSpace=wrap;html=1;" parent="1" vertex="1">
          <mxGeometry x="3826" y="673.75" width="60" height="30" as="geometry" />
        </mxCell>
        <mxCell id="vYLdiH_t_LYaYiqmm7H8-648" value="" style="rounded=0;whiteSpace=wrap;html=1;" parent="1" vertex="1">
          <mxGeometry x="3946" y="613.75" width="70" height="30" as="geometry" />
        </mxCell>
        <mxCell id="vYLdiH_t_LYaYiqmm7H8-649" value="" style="rounded=0;whiteSpace=wrap;html=1;" parent="1" vertex="1">
          <mxGeometry x="3886" y="613.75" width="70" height="30" as="geometry" />
        </mxCell>
        <mxCell id="vYLdiH_t_LYaYiqmm7H8-650" value="67" style="text;html=1;strokeColor=none;fillColor=none;align=center;verticalAlign=middle;whiteSpace=wrap;rounded=0;" parent="1" vertex="1">
          <mxGeometry x="3831" y="613.75" width="60" height="30" as="geometry" />
        </mxCell>
        <mxCell id="vYLdiH_t_LYaYiqmm7H8-651" value="7" style="text;html=1;strokeColor=none;fillColor=none;align=center;verticalAlign=middle;whiteSpace=wrap;rounded=0;" parent="1" vertex="1">
          <mxGeometry x="3891" y="613.75" width="60" height="30" as="geometry" />
        </mxCell>
        <mxCell id="vYLdiH_t_LYaYiqmm7H8-652" value="74" style="text;html=1;strokeColor=none;fillColor=none;align=center;verticalAlign=middle;whiteSpace=wrap;rounded=0;" parent="1" vertex="1">
          <mxGeometry x="3956" y="613.75" width="60" height="30" as="geometry" />
        </mxCell>
        <mxCell id="vYLdiH_t_LYaYiqmm7H8-655" value="67" style="text;html=1;strokeColor=none;fillColor=none;align=center;verticalAlign=middle;whiteSpace=wrap;rounded=0;" parent="1" vertex="1">
          <mxGeometry x="3826" y="673.75" width="60" height="30" as="geometry" />
        </mxCell>
        <mxCell id="vYLdiH_t_LYaYiqmm7H8-656" value="74" style="text;html=1;strokeColor=none;fillColor=none;align=center;verticalAlign=middle;whiteSpace=wrap;rounded=0;" parent="1" vertex="1">
          <mxGeometry x="3951" y="673.75" width="60" height="30" as="geometry" />
        </mxCell>
        <mxCell id="vYLdiH_t_LYaYiqmm7H8-657" value="0" style="text;html=1;strokeColor=none;fillColor=none;align=center;verticalAlign=middle;whiteSpace=wrap;rounded=0;" parent="1" vertex="1">
          <mxGeometry x="3886" y="673.75" width="60" height="30" as="geometry" />
        </mxCell>
        <mxCell id="vYLdiH_t_LYaYiqmm7H8-658" value="" style="endArrow=classic;html=1;rounded=0;strokeColor=#FF0000;" parent="1" edge="1">
          <mxGeometry width="50" height="50" relative="1" as="geometry">
            <mxPoint x="3701" y="653.75" as="sourcePoint" />
            <mxPoint x="3826" y="653.75" as="targetPoint" />
          </mxGeometry>
        </mxCell>
        <mxCell id="vYLdiH_t_LYaYiqmm7H8-659" value="" style="endArrow=none;html=1;rounded=0;" parent="1" edge="1">
          <mxGeometry width="50" height="50" relative="1" as="geometry">
            <mxPoint x="4011" y="333.75" as="sourcePoint" />
            <mxPoint x="4111" y="333.75" as="targetPoint" />
          </mxGeometry>
        </mxCell>
        <mxCell id="vYLdiH_t_LYaYiqmm7H8-660" value="" style="endArrow=none;html=1;rounded=0;" parent="1" edge="1">
          <mxGeometry width="50" height="50" relative="1" as="geometry">
            <mxPoint x="4016" y="520.75" as="sourcePoint" />
            <mxPoint x="4110" y="520" as="targetPoint" />
          </mxGeometry>
        </mxCell>
        <mxCell id="vYLdiH_t_LYaYiqmm7H8-661" value="" style="endArrow=none;html=1;rounded=0;strokeColor=#FF0000;exitX=1;exitY=0.515;exitDx=0;exitDy=0;exitPerimeter=0;" parent="1" source="vYLdiH_t_LYaYiqmm7H8-640" edge="1">
          <mxGeometry width="50" height="50" relative="1" as="geometry">
            <mxPoint x="4016" y="658.25" as="sourcePoint" />
            <mxPoint x="4110" y="660" as="targetPoint" />
          </mxGeometry>
        </mxCell>
        <mxCell id="vYLdiH_t_LYaYiqmm7H8-662" value="" style="endArrow=none;html=1;rounded=0;" parent="1" edge="1">
          <mxGeometry width="50" height="50" relative="1" as="geometry">
            <mxPoint x="4111" y="333.75" as="sourcePoint" />
            <mxPoint x="4110" y="520" as="targetPoint" />
          </mxGeometry>
        </mxCell>
        <mxCell id="vYLdiH_t_LYaYiqmm7H8-663" value="" style="endArrow=classic;html=1;rounded=0;strokeColor=#FF0000;entryX=-0.004;entryY=0.474;entryDx=0;entryDy=0;entryPerimeter=0;" parent="1" target="vYLdiH_t_LYaYiqmm7H8-682" edge="1">
          <mxGeometry width="50" height="50" relative="1" as="geometry">
            <mxPoint x="4110" y="520" as="sourcePoint" />
            <mxPoint x="4196" y="520.75" as="targetPoint" />
          </mxGeometry>
        </mxCell>
        <mxCell id="vYLdiH_t_LYaYiqmm7H8-664" value="" style="rounded=0;whiteSpace=wrap;html=1;" parent="1" vertex="1">
          <mxGeometry x="4560" y="387.5" width="190" height="90" as="geometry" />
        </mxCell>
        <mxCell id="vYLdiH_t_LYaYiqmm7H8-665" value="Text" style="text;html=1;strokeColor=none;fillColor=none;align=center;verticalAlign=middle;whiteSpace=wrap;rounded=0;" parent="1" vertex="1">
          <mxGeometry x="4560" y="387.5" width="60" height="30" as="geometry" />
        </mxCell>
        <mxCell id="vYLdiH_t_LYaYiqmm7H8-666" value="Text" style="text;html=1;strokeColor=none;fillColor=none;align=center;verticalAlign=middle;whiteSpace=wrap;rounded=0;" parent="1" vertex="1">
          <mxGeometry x="4625" y="387.5" width="60" height="30" as="geometry" />
        </mxCell>
        <mxCell id="vYLdiH_t_LYaYiqmm7H8-667" value="Text" style="text;html=1;strokeColor=none;fillColor=none;align=center;verticalAlign=middle;whiteSpace=wrap;rounded=0;" parent="1" vertex="1">
          <mxGeometry x="4620" y="387.5" width="60" height="30" as="geometry" />
        </mxCell>
        <mxCell id="vYLdiH_t_LYaYiqmm7H8-668" value="" style="rounded=0;whiteSpace=wrap;html=1;" parent="1" vertex="1">
          <mxGeometry x="4560" y="387.5" width="60" height="30" as="geometry" />
        </mxCell>
        <mxCell id="vYLdiH_t_LYaYiqmm7H8-669" value="" style="rounded=0;whiteSpace=wrap;html=1;" parent="1" vertex="1">
          <mxGeometry x="4620" y="447.5" width="60" height="30" as="geometry" />
        </mxCell>
        <mxCell id="vYLdiH_t_LYaYiqmm7H8-670" value="" style="rounded=0;whiteSpace=wrap;html=1;" parent="1" vertex="1">
          <mxGeometry x="4680" y="447.5" width="70" height="30" as="geometry" />
        </mxCell>
        <mxCell id="vYLdiH_t_LYaYiqmm7H8-671" value="" style="rounded=0;whiteSpace=wrap;html=1;" parent="1" vertex="1">
          <mxGeometry x="4560" y="447.5" width="60" height="30" as="geometry" />
        </mxCell>
        <mxCell id="vYLdiH_t_LYaYiqmm7H8-672" value="" style="rounded=0;whiteSpace=wrap;html=1;" parent="1" vertex="1">
          <mxGeometry x="4680" y="387.5" width="70" height="30" as="geometry" />
        </mxCell>
        <mxCell id="vYLdiH_t_LYaYiqmm7H8-673" value="" style="rounded=0;whiteSpace=wrap;html=1;" parent="1" vertex="1">
          <mxGeometry x="4620" y="387.5" width="70" height="30" as="geometry" />
        </mxCell>
        <mxCell id="vYLdiH_t_LYaYiqmm7H8-674" value="79" style="text;html=1;strokeColor=none;fillColor=none;align=center;verticalAlign=middle;whiteSpace=wrap;rounded=0;" parent="1" vertex="1">
          <mxGeometry x="4565" y="387.5" width="60" height="30" as="geometry" />
        </mxCell>
        <mxCell id="vYLdiH_t_LYaYiqmm7H8-675" value="3" style="text;html=1;strokeColor=none;fillColor=none;align=center;verticalAlign=middle;whiteSpace=wrap;rounded=0;" parent="1" vertex="1">
          <mxGeometry x="4620" y="387.5" width="60" height="30" as="geometry" />
        </mxCell>
        <mxCell id="vYLdiH_t_LYaYiqmm7H8-676" value="82" style="text;html=1;strokeColor=none;fillColor=none;align=center;verticalAlign=middle;whiteSpace=wrap;rounded=0;" parent="1" vertex="1">
          <mxGeometry x="4690" y="387.5" width="60" height="30" as="geometry" />
        </mxCell>
        <mxCell id="vYLdiH_t_LYaYiqmm7H8-679" value="79" style="text;html=1;strokeColor=none;fillColor=none;align=center;verticalAlign=middle;whiteSpace=wrap;rounded=0;" parent="1" vertex="1">
          <mxGeometry x="4560" y="447.5" width="60" height="30" as="geometry" />
        </mxCell>
        <mxCell id="vYLdiH_t_LYaYiqmm7H8-680" value="82" style="text;html=1;strokeColor=none;fillColor=none;align=center;verticalAlign=middle;whiteSpace=wrap;rounded=0;" parent="1" vertex="1">
          <mxGeometry x="4685" y="447.5" width="60" height="30" as="geometry" />
        </mxCell>
        <mxCell id="vYLdiH_t_LYaYiqmm7H8-681" value="0" style="text;html=1;strokeColor=none;fillColor=none;align=center;verticalAlign=middle;whiteSpace=wrap;rounded=0;" parent="1" vertex="1">
          <mxGeometry x="4620" y="447.5" width="60" height="30" as="geometry" />
        </mxCell>
        <mxCell id="vYLdiH_t_LYaYiqmm7H8-682" value="" style="rounded=0;whiteSpace=wrap;html=1;" parent="1" vertex="1">
          <mxGeometry x="4190" y="477.5" width="190" height="90" as="geometry" />
        </mxCell>
        <mxCell id="vYLdiH_t_LYaYiqmm7H8-683" value="Text" style="text;html=1;strokeColor=none;fillColor=none;align=center;verticalAlign=middle;whiteSpace=wrap;rounded=0;" parent="1" vertex="1">
          <mxGeometry x="4190" y="477.5" width="60" height="30" as="geometry" />
        </mxCell>
        <mxCell id="vYLdiH_t_LYaYiqmm7H8-684" value="Project Documentation" style="text;html=1;strokeColor=none;fillColor=none;align=center;verticalAlign=middle;whiteSpace=wrap;rounded=0;" parent="1" vertex="1">
          <mxGeometry x="4250" y="507.5" width="80" height="30" as="geometry" />
        </mxCell>
        <mxCell id="vYLdiH_t_LYaYiqmm7H8-685" value="Text" style="text;html=1;strokeColor=none;fillColor=none;align=center;verticalAlign=middle;whiteSpace=wrap;rounded=0;" parent="1" vertex="1">
          <mxGeometry x="4250" y="477.5" width="60" height="30" as="geometry" />
        </mxCell>
        <mxCell id="vYLdiH_t_LYaYiqmm7H8-686" value="" style="rounded=0;whiteSpace=wrap;html=1;" parent="1" vertex="1">
          <mxGeometry x="4190" y="477.5" width="60" height="30" as="geometry" />
        </mxCell>
        <mxCell id="vYLdiH_t_LYaYiqmm7H8-687" value="" style="rounded=0;whiteSpace=wrap;html=1;" parent="1" vertex="1">
          <mxGeometry x="4250" y="537.5" width="60" height="30" as="geometry" />
        </mxCell>
        <mxCell id="vYLdiH_t_LYaYiqmm7H8-688" value="" style="rounded=0;whiteSpace=wrap;html=1;" parent="1" vertex="1">
          <mxGeometry x="4310" y="537.5" width="70" height="30" as="geometry" />
        </mxCell>
        <mxCell id="vYLdiH_t_LYaYiqmm7H8-689" value="" style="rounded=0;whiteSpace=wrap;html=1;" parent="1" vertex="1">
          <mxGeometry x="4190" y="537.5" width="60" height="30" as="geometry" />
        </mxCell>
        <mxCell id="vYLdiH_t_LYaYiqmm7H8-690" value="" style="rounded=0;whiteSpace=wrap;html=1;" parent="1" vertex="1">
          <mxGeometry x="4310" y="477.5" width="70" height="30" as="geometry" />
        </mxCell>
        <mxCell id="vYLdiH_t_LYaYiqmm7H8-691" value="" style="rounded=0;whiteSpace=wrap;html=1;" parent="1" vertex="1">
          <mxGeometry x="4250" y="477.5" width="70" height="30" as="geometry" />
        </mxCell>
        <mxCell id="vYLdiH_t_LYaYiqmm7H8-692" value="74" style="text;html=1;strokeColor=none;fillColor=none;align=center;verticalAlign=middle;whiteSpace=wrap;rounded=0;" parent="1" vertex="1">
          <mxGeometry x="4195" y="477.5" width="60" height="30" as="geometry" />
        </mxCell>
        <mxCell id="vYLdiH_t_LYaYiqmm7H8-693" value="5" style="text;html=1;strokeColor=none;fillColor=none;align=center;verticalAlign=middle;whiteSpace=wrap;rounded=0;" parent="1" vertex="1">
          <mxGeometry x="4255" y="477.5" width="60" height="30" as="geometry" />
        </mxCell>
        <mxCell id="vYLdiH_t_LYaYiqmm7H8-694" value="79" style="text;html=1;strokeColor=none;fillColor=none;align=center;verticalAlign=middle;whiteSpace=wrap;rounded=0;" parent="1" vertex="1">
          <mxGeometry x="4320" y="477.5" width="60" height="30" as="geometry" />
        </mxCell>
        <mxCell id="vYLdiH_t_LYaYiqmm7H8-697" value="74" style="text;html=1;strokeColor=none;fillColor=none;align=center;verticalAlign=middle;whiteSpace=wrap;rounded=0;" parent="1" vertex="1">
          <mxGeometry x="4190" y="537.5" width="60" height="30" as="geometry" />
        </mxCell>
        <mxCell id="vYLdiH_t_LYaYiqmm7H8-698" value="79" style="text;html=1;strokeColor=none;fillColor=none;align=center;verticalAlign=middle;whiteSpace=wrap;rounded=0;" parent="1" vertex="1">
          <mxGeometry x="4315" y="537.5" width="60" height="30" as="geometry" />
        </mxCell>
        <mxCell id="vYLdiH_t_LYaYiqmm7H8-699" value="0" style="text;html=1;strokeColor=none;fillColor=none;align=center;verticalAlign=middle;whiteSpace=wrap;rounded=0;" parent="1" vertex="1">
          <mxGeometry x="4250" y="537.5" width="60" height="30" as="geometry" />
        </mxCell>
        <mxCell id="vYLdiH_t_LYaYiqmm7H8-700" value="" style="endArrow=classic;html=1;rounded=0;strokeColor=#FF0000;" parent="1" edge="1">
          <mxGeometry width="50" height="50" relative="1" as="geometry">
            <mxPoint x="4440" y="437.5" as="sourcePoint" />
            <mxPoint x="4560" y="437.5" as="targetPoint" />
          </mxGeometry>
        </mxCell>
        <mxCell id="vYLdiH_t_LYaYiqmm7H8-701" value="" style="rounded=0;whiteSpace=wrap;html=1;" parent="1" vertex="1">
          <mxGeometry x="4565" y="577.5" width="190" height="90" as="geometry" />
        </mxCell>
        <mxCell id="vYLdiH_t_LYaYiqmm7H8-702" value="Text" style="text;html=1;strokeColor=none;fillColor=none;align=center;verticalAlign=middle;whiteSpace=wrap;rounded=0;" parent="1" vertex="1">
          <mxGeometry x="4565" y="577.5" width="60" height="30" as="geometry" />
        </mxCell>
        <mxCell id="vYLdiH_t_LYaYiqmm7H8-703" value="Configuration" style="text;html=1;strokeColor=none;fillColor=none;align=center;verticalAlign=middle;whiteSpace=wrap;rounded=0;" parent="1" vertex="1">
          <mxGeometry x="4630" y="607.5" width="60" height="30" as="geometry" />
        </mxCell>
        <mxCell id="vYLdiH_t_LYaYiqmm7H8-704" value="Text" style="text;html=1;strokeColor=none;fillColor=none;align=center;verticalAlign=middle;whiteSpace=wrap;rounded=0;" parent="1" vertex="1">
          <mxGeometry x="4625" y="577.5" width="60" height="30" as="geometry" />
        </mxCell>
        <mxCell id="vYLdiH_t_LYaYiqmm7H8-705" value="" style="rounded=0;whiteSpace=wrap;html=1;" parent="1" vertex="1">
          <mxGeometry x="4565" y="577.5" width="60" height="30" as="geometry" />
        </mxCell>
        <mxCell id="vYLdiH_t_LYaYiqmm7H8-706" value="" style="rounded=0;whiteSpace=wrap;html=1;" parent="1" vertex="1">
          <mxGeometry x="4625" y="637.5" width="60" height="30" as="geometry" />
        </mxCell>
        <mxCell id="vYLdiH_t_LYaYiqmm7H8-707" value="" style="rounded=0;whiteSpace=wrap;html=1;" parent="1" vertex="1">
          <mxGeometry x="4685" y="637.5" width="70" height="30" as="geometry" />
        </mxCell>
        <mxCell id="vYLdiH_t_LYaYiqmm7H8-708" value="" style="rounded=0;whiteSpace=wrap;html=1;" parent="1" vertex="1">
          <mxGeometry x="4565" y="637.5" width="60" height="30" as="geometry" />
        </mxCell>
        <mxCell id="vYLdiH_t_LYaYiqmm7H8-709" value="" style="rounded=0;whiteSpace=wrap;html=1;" parent="1" vertex="1">
          <mxGeometry x="4685" y="577.5" width="70" height="30" as="geometry" />
        </mxCell>
        <mxCell id="vYLdiH_t_LYaYiqmm7H8-710" value="" style="rounded=0;whiteSpace=wrap;html=1;" parent="1" vertex="1">
          <mxGeometry x="4625" y="577.5" width="70" height="30" as="geometry" />
        </mxCell>
        <mxCell id="vYLdiH_t_LYaYiqmm7H8-711" value="79" style="text;html=1;strokeColor=none;fillColor=none;align=center;verticalAlign=middle;whiteSpace=wrap;rounded=0;" parent="1" vertex="1">
          <mxGeometry x="4570" y="577.5" width="60" height="30" as="geometry" />
        </mxCell>
        <mxCell id="vYLdiH_t_LYaYiqmm7H8-712" value="2" style="text;html=1;strokeColor=none;fillColor=none;align=center;verticalAlign=middle;whiteSpace=wrap;rounded=0;" parent="1" vertex="1">
          <mxGeometry x="4630" y="577.5" width="60" height="30" as="geometry" />
        </mxCell>
        <mxCell id="vYLdiH_t_LYaYiqmm7H8-713" value="81" style="text;html=1;strokeColor=none;fillColor=none;align=center;verticalAlign=middle;whiteSpace=wrap;rounded=0;" parent="1" vertex="1">
          <mxGeometry x="4695" y="577.5" width="60" height="30" as="geometry" />
        </mxCell>
        <mxCell id="vYLdiH_t_LYaYiqmm7H8-715" value="Training" style="text;html=1;strokeColor=none;fillColor=none;align=center;verticalAlign=middle;whiteSpace=wrap;rounded=0;" parent="1" vertex="1">
          <mxGeometry x="4625" y="417.5" width="60" height="30" as="geometry" />
        </mxCell>
        <mxCell id="vYLdiH_t_LYaYiqmm7H8-716" value="80" style="text;html=1;strokeColor=none;fillColor=none;align=center;verticalAlign=middle;whiteSpace=wrap;rounded=0;" parent="1" vertex="1">
          <mxGeometry x="4565" y="637.5" width="60" height="30" as="geometry" />
        </mxCell>
        <mxCell id="vYLdiH_t_LYaYiqmm7H8-717" value="82" style="text;html=1;strokeColor=none;fillColor=none;align=center;verticalAlign=middle;whiteSpace=wrap;rounded=0;" parent="1" vertex="1">
          <mxGeometry x="4690" y="637.5" width="60" height="30" as="geometry" />
        </mxCell>
        <mxCell id="vYLdiH_t_LYaYiqmm7H8-718" value="1" style="text;html=1;strokeColor=none;fillColor=none;align=center;verticalAlign=middle;whiteSpace=wrap;rounded=0;" parent="1" vertex="1">
          <mxGeometry x="4625" y="637.5" width="60" height="30" as="geometry" />
        </mxCell>
        <mxCell id="vYLdiH_t_LYaYiqmm7H8-719" value="" style="endArrow=none;html=1;rounded=0;strokeColor=#FF0000;" parent="1" edge="1">
          <mxGeometry width="50" height="50" relative="1" as="geometry">
            <mxPoint x="4381" y="527.5" as="sourcePoint" />
            <mxPoint x="4440" y="527.5" as="targetPoint" />
          </mxGeometry>
        </mxCell>
        <mxCell id="vYLdiH_t_LYaYiqmm7H8-720" value="" style="endArrow=none;html=1;rounded=0;strokeColor=#FF0000;" parent="1" edge="1">
          <mxGeometry width="50" height="50" relative="1" as="geometry">
            <mxPoint x="4440" y="527.5" as="sourcePoint" />
            <mxPoint x="4440" y="437.5" as="targetPoint" />
          </mxGeometry>
        </mxCell>
        <mxCell id="vYLdiH_t_LYaYiqmm7H8-721" value="" style="endArrow=none;html=1;rounded=0;" parent="1" edge="1">
          <mxGeometry width="50" height="50" relative="1" as="geometry">
            <mxPoint x="4440" y="617.5" as="sourcePoint" />
            <mxPoint x="4440" y="527.5" as="targetPoint" />
          </mxGeometry>
        </mxCell>
        <mxCell id="vYLdiH_t_LYaYiqmm7H8-722" value="" style="endArrow=classic;html=1;rounded=0;entryX=-0.001;entryY=0.447;entryDx=0;entryDy=0;entryPerimeter=0;" parent="1" target="vYLdiH_t_LYaYiqmm7H8-701" edge="1">
          <mxGeometry width="50" height="50" relative="1" as="geometry">
            <mxPoint x="4440" y="617.5" as="sourcePoint" />
            <mxPoint x="4565" y="615" as="targetPoint" />
          </mxGeometry>
        </mxCell>
        <mxCell id="vYLdiH_t_LYaYiqmm7H8-723" value="" style="rounded=0;whiteSpace=wrap;html=1;" parent="1" vertex="1">
          <mxGeometry x="4870" y="467.5" width="190" height="90" as="geometry" />
        </mxCell>
        <mxCell id="vYLdiH_t_LYaYiqmm7H8-724" value="Text" style="text;html=1;strokeColor=none;fillColor=none;align=center;verticalAlign=middle;whiteSpace=wrap;rounded=0;" parent="1" vertex="1">
          <mxGeometry x="4870" y="467.5" width="60" height="30" as="geometry" />
        </mxCell>
        <mxCell id="vYLdiH_t_LYaYiqmm7H8-725" value="Deployment" style="text;html=1;strokeColor=none;fillColor=none;align=center;verticalAlign=middle;whiteSpace=wrap;rounded=0;" parent="1" vertex="1">
          <mxGeometry x="4935" y="497.5" width="60" height="30" as="geometry" />
        </mxCell>
        <mxCell id="vYLdiH_t_LYaYiqmm7H8-726" value="Text" style="text;html=1;strokeColor=none;fillColor=none;align=center;verticalAlign=middle;whiteSpace=wrap;rounded=0;" parent="1" vertex="1">
          <mxGeometry x="4930" y="467.5" width="60" height="30" as="geometry" />
        </mxCell>
        <mxCell id="vYLdiH_t_LYaYiqmm7H8-727" value="" style="rounded=0;whiteSpace=wrap;html=1;" parent="1" vertex="1">
          <mxGeometry x="4870" y="467.5" width="60" height="30" as="geometry" />
        </mxCell>
        <mxCell id="vYLdiH_t_LYaYiqmm7H8-728" value="" style="rounded=0;whiteSpace=wrap;html=1;" parent="1" vertex="1">
          <mxGeometry x="4930" y="527.5" width="60" height="30" as="geometry" />
        </mxCell>
        <mxCell id="vYLdiH_t_LYaYiqmm7H8-729" value="" style="rounded=0;whiteSpace=wrap;html=1;" parent="1" vertex="1">
          <mxGeometry x="4990" y="527.5" width="70" height="30" as="geometry" />
        </mxCell>
        <mxCell id="vYLdiH_t_LYaYiqmm7H8-730" value="" style="rounded=0;whiteSpace=wrap;html=1;" parent="1" vertex="1">
          <mxGeometry x="4870" y="527.5" width="60" height="30" as="geometry" />
        </mxCell>
        <mxCell id="vYLdiH_t_LYaYiqmm7H8-731" value="" style="rounded=0;whiteSpace=wrap;html=1;" parent="1" vertex="1">
          <mxGeometry x="4990" y="467.5" width="70" height="30" as="geometry" />
        </mxCell>
        <mxCell id="vYLdiH_t_LYaYiqmm7H8-732" value="" style="rounded=0;whiteSpace=wrap;html=1;" parent="1" vertex="1">
          <mxGeometry x="4930" y="467.5" width="70" height="30" as="geometry" />
        </mxCell>
        <mxCell id="vYLdiH_t_LYaYiqmm7H8-733" value="82" style="text;html=1;strokeColor=none;fillColor=none;align=center;verticalAlign=middle;whiteSpace=wrap;rounded=0;" parent="1" vertex="1">
          <mxGeometry x="4875" y="467.5" width="60" height="30" as="geometry" />
        </mxCell>
        <mxCell id="vYLdiH_t_LYaYiqmm7H8-734" value="5" style="text;html=1;strokeColor=none;fillColor=none;align=center;verticalAlign=middle;whiteSpace=wrap;rounded=0;" parent="1" vertex="1">
          <mxGeometry x="4935" y="467.5" width="60" height="30" as="geometry" />
        </mxCell>
        <mxCell id="vYLdiH_t_LYaYiqmm7H8-735" value="87" style="text;html=1;strokeColor=none;fillColor=none;align=center;verticalAlign=middle;whiteSpace=wrap;rounded=0;" parent="1" vertex="1">
          <mxGeometry x="5000" y="467.5" width="60" height="30" as="geometry" />
        </mxCell>
        <mxCell id="vYLdiH_t_LYaYiqmm7H8-737" value="87" style="text;html=1;strokeColor=none;fillColor=none;align=center;verticalAlign=middle;whiteSpace=wrap;rounded=0;" parent="1" vertex="1">
          <mxGeometry x="4995" y="530" width="60" height="30" as="geometry" />
        </mxCell>
        <mxCell id="vYLdiH_t_LYaYiqmm7H8-738" value="82" style="text;html=1;strokeColor=none;fillColor=none;align=center;verticalAlign=middle;whiteSpace=wrap;rounded=0;" parent="1" vertex="1">
          <mxGeometry x="4870" y="527.5" width="60" height="30" as="geometry" />
        </mxCell>
        <mxCell id="vYLdiH_t_LYaYiqmm7H8-740" value="0" style="text;html=1;strokeColor=none;fillColor=none;align=center;verticalAlign=middle;whiteSpace=wrap;rounded=0;" parent="1" vertex="1">
          <mxGeometry x="4930" y="527.5" width="60" height="30" as="geometry" />
        </mxCell>
        <mxCell id="vYLdiH_t_LYaYiqmm7H8-741" value="" style="rounded=0;whiteSpace=wrap;html=1;" parent="1" vertex="1">
          <mxGeometry x="5240" y="360" width="190" height="90" as="geometry" />
        </mxCell>
        <mxCell id="vYLdiH_t_LYaYiqmm7H8-742" value="Text" style="text;html=1;strokeColor=none;fillColor=none;align=center;verticalAlign=middle;whiteSpace=wrap;rounded=0;" parent="1" vertex="1">
          <mxGeometry x="5240" y="360" width="60" height="30" as="geometry" />
        </mxCell>
        <mxCell id="vYLdiH_t_LYaYiqmm7H8-810" value="" style="edgeStyle=none;rounded=0;orthogonalLoop=1;jettySize=auto;html=1;" parent="1" source="vYLdiH_t_LYaYiqmm7H8-743" target="vYLdiH_t_LYaYiqmm7H8-757" edge="1">
          <mxGeometry relative="1" as="geometry" />
        </mxCell>
        <mxCell id="vYLdiH_t_LYaYiqmm7H8-743" value="Stake holder feedback" style="text;html=1;strokeColor=none;fillColor=none;align=center;verticalAlign=middle;whiteSpace=wrap;rounded=0;" parent="1" vertex="1">
          <mxGeometry x="5250" y="390" width="160" height="30" as="geometry" />
        </mxCell>
        <mxCell id="vYLdiH_t_LYaYiqmm7H8-744" value="Text" style="text;html=1;strokeColor=none;fillColor=none;align=center;verticalAlign=middle;whiteSpace=wrap;rounded=0;" parent="1" vertex="1">
          <mxGeometry x="5300" y="360" width="60" height="30" as="geometry" />
        </mxCell>
        <mxCell id="vYLdiH_t_LYaYiqmm7H8-745" value="" style="rounded=0;whiteSpace=wrap;html=1;" parent="1" vertex="1">
          <mxGeometry x="5240" y="360" width="60" height="30" as="geometry" />
        </mxCell>
        <mxCell id="vYLdiH_t_LYaYiqmm7H8-746" value="" style="rounded=0;whiteSpace=wrap;html=1;" parent="1" vertex="1">
          <mxGeometry x="5300" y="420" width="60" height="30" as="geometry" />
        </mxCell>
        <mxCell id="vYLdiH_t_LYaYiqmm7H8-747" value="" style="rounded=0;whiteSpace=wrap;html=1;" parent="1" vertex="1">
          <mxGeometry x="5360" y="420" width="70" height="30" as="geometry" />
        </mxCell>
        <mxCell id="vYLdiH_t_LYaYiqmm7H8-748" value="" style="rounded=0;whiteSpace=wrap;html=1;" parent="1" vertex="1">
          <mxGeometry x="5240" y="420" width="60" height="30" as="geometry" />
        </mxCell>
        <mxCell id="vYLdiH_t_LYaYiqmm7H8-749" value="" style="rounded=0;whiteSpace=wrap;html=1;" parent="1" vertex="1">
          <mxGeometry x="5360" y="360" width="70" height="30" as="geometry" />
        </mxCell>
        <mxCell id="vYLdiH_t_LYaYiqmm7H8-750" value="" style="rounded=0;whiteSpace=wrap;html=1;" parent="1" vertex="1">
          <mxGeometry x="5300" y="360" width="70" height="30" as="geometry" />
        </mxCell>
        <mxCell id="vYLdiH_t_LYaYiqmm7H8-751" value="87" style="text;html=1;strokeColor=none;fillColor=none;align=center;verticalAlign=middle;whiteSpace=wrap;rounded=0;" parent="1" vertex="1">
          <mxGeometry x="5245" y="360" width="60" height="30" as="geometry" />
        </mxCell>
        <mxCell id="vYLdiH_t_LYaYiqmm7H8-752" value="1" style="text;html=1;strokeColor=none;fillColor=none;align=center;verticalAlign=middle;whiteSpace=wrap;rounded=0;" parent="1" vertex="1">
          <mxGeometry x="5305" y="360" width="60" height="30" as="geometry" />
        </mxCell>
        <mxCell id="vYLdiH_t_LYaYiqmm7H8-753" value="88" style="text;html=1;strokeColor=none;fillColor=none;align=center;verticalAlign=middle;whiteSpace=wrap;rounded=0;" parent="1" vertex="1">
          <mxGeometry x="5370" y="360" width="60" height="30" as="geometry" />
        </mxCell>
        <mxCell id="vYLdiH_t_LYaYiqmm7H8-756" value="87" style="text;html=1;strokeColor=none;fillColor=none;align=center;verticalAlign=middle;whiteSpace=wrap;rounded=0;" parent="1" vertex="1">
          <mxGeometry x="5240" y="420" width="60" height="30" as="geometry" />
        </mxCell>
        <mxCell id="vYLdiH_t_LYaYiqmm7H8-757" value="88" style="text;html=1;strokeColor=none;fillColor=none;align=center;verticalAlign=middle;whiteSpace=wrap;rounded=0;" parent="1" vertex="1">
          <mxGeometry x="5365" y="420" width="60" height="30" as="geometry" />
        </mxCell>
        <mxCell id="vYLdiH_t_LYaYiqmm7H8-758" value="0" style="text;html=1;strokeColor=none;fillColor=none;align=center;verticalAlign=middle;whiteSpace=wrap;rounded=0;" parent="1" vertex="1">
          <mxGeometry x="5300" y="420" width="60" height="30" as="geometry" />
        </mxCell>
        <mxCell id="vYLdiH_t_LYaYiqmm7H8-759" value="" style="endArrow=none;html=1;rounded=0;strokeColor=#FF0000;" parent="1" edge="1">
          <mxGeometry width="50" height="50" relative="1" as="geometry">
            <mxPoint x="5431" y="410" as="sourcePoint" />
            <mxPoint x="5490" y="410" as="targetPoint" />
          </mxGeometry>
        </mxCell>
        <mxCell id="vYLdiH_t_LYaYiqmm7H8-760" value="" style="endArrow=none;html=1;rounded=0;strokeColor=#FF0000;" parent="1" edge="1">
          <mxGeometry width="50" height="50" relative="1" as="geometry">
            <mxPoint x="5490" y="540" as="sourcePoint" />
            <mxPoint x="5490" y="410" as="targetPoint" />
          </mxGeometry>
        </mxCell>
        <mxCell id="vYLdiH_t_LYaYiqmm7H8-761" value="" style="rounded=0;whiteSpace=wrap;html=1;" parent="1" vertex="1">
          <mxGeometry x="5240" y="660" width="190" height="90" as="geometry" />
        </mxCell>
        <mxCell id="vYLdiH_t_LYaYiqmm7H8-762" value="Text" style="text;html=1;strokeColor=none;fillColor=none;align=center;verticalAlign=middle;whiteSpace=wrap;rounded=0;" parent="1" vertex="1">
          <mxGeometry x="5240" y="660" width="60" height="30" as="geometry" />
        </mxCell>
        <mxCell id="vYLdiH_t_LYaYiqmm7H8-763" value="System console Feedback" style="text;html=1;strokeColor=none;fillColor=none;align=center;verticalAlign=middle;whiteSpace=wrap;rounded=0;" parent="1" vertex="1">
          <mxGeometry x="5260" y="690" width="150" height="30" as="geometry" />
        </mxCell>
        <mxCell id="vYLdiH_t_LYaYiqmm7H8-764" value="Text" style="text;html=1;strokeColor=none;fillColor=none;align=center;verticalAlign=middle;whiteSpace=wrap;rounded=0;" parent="1" vertex="1">
          <mxGeometry x="5300" y="660" width="60" height="30" as="geometry" />
        </mxCell>
        <mxCell id="vYLdiH_t_LYaYiqmm7H8-765" value="" style="rounded=0;whiteSpace=wrap;html=1;" parent="1" vertex="1">
          <mxGeometry x="5240" y="660" width="60" height="30" as="geometry" />
        </mxCell>
        <mxCell id="vYLdiH_t_LYaYiqmm7H8-766" value="" style="rounded=0;whiteSpace=wrap;html=1;" parent="1" vertex="1">
          <mxGeometry x="5300" y="720" width="60" height="30" as="geometry" />
        </mxCell>
        <mxCell id="vYLdiH_t_LYaYiqmm7H8-767" value="" style="rounded=0;whiteSpace=wrap;html=1;" parent="1" vertex="1">
          <mxGeometry x="5360" y="720" width="70" height="30" as="geometry" />
        </mxCell>
        <mxCell id="vYLdiH_t_LYaYiqmm7H8-768" value="" style="rounded=0;whiteSpace=wrap;html=1;" parent="1" vertex="1">
          <mxGeometry x="5240" y="720" width="60" height="30" as="geometry" />
        </mxCell>
        <mxCell id="vYLdiH_t_LYaYiqmm7H8-769" value="" style="rounded=0;whiteSpace=wrap;html=1;" parent="1" vertex="1">
          <mxGeometry x="5360" y="660" width="70" height="30" as="geometry" />
        </mxCell>
        <mxCell id="vYLdiH_t_LYaYiqmm7H8-770" value="" style="rounded=0;whiteSpace=wrap;html=1;" parent="1" vertex="1">
          <mxGeometry x="5300" y="660" width="70" height="30" as="geometry" />
        </mxCell>
        <mxCell id="vYLdiH_t_LYaYiqmm7H8-771" value="87" style="text;html=1;strokeColor=none;fillColor=none;align=center;verticalAlign=middle;whiteSpace=wrap;rounded=0;" parent="1" vertex="1">
          <mxGeometry x="5245" y="660" width="60" height="30" as="geometry" />
        </mxCell>
        <mxCell id="vYLdiH_t_LYaYiqmm7H8-772" value="1" style="text;html=1;strokeColor=none;fillColor=none;align=center;verticalAlign=middle;whiteSpace=wrap;rounded=0;" parent="1" vertex="1">
          <mxGeometry x="5305" y="660" width="60" height="30" as="geometry" />
        </mxCell>
        <mxCell id="vYLdiH_t_LYaYiqmm7H8-773" value="88" style="text;html=1;strokeColor=none;fillColor=none;align=center;verticalAlign=middle;whiteSpace=wrap;rounded=0;" parent="1" vertex="1">
          <mxGeometry x="5370" y="660" width="60" height="30" as="geometry" />
        </mxCell>
        <mxCell id="vYLdiH_t_LYaYiqmm7H8-776" value="87" style="text;html=1;strokeColor=none;fillColor=none;align=center;verticalAlign=middle;whiteSpace=wrap;rounded=0;" parent="1" vertex="1">
          <mxGeometry x="5240" y="720" width="60" height="30" as="geometry" />
        </mxCell>
        <mxCell id="vYLdiH_t_LYaYiqmm7H8-777" value="88" style="text;html=1;strokeColor=none;fillColor=none;align=center;verticalAlign=middle;whiteSpace=wrap;rounded=0;" parent="1" vertex="1">
          <mxGeometry x="5365" y="720" width="60" height="30" as="geometry" />
        </mxCell>
        <mxCell id="vYLdiH_t_LYaYiqmm7H8-778" value="0" style="text;html=1;strokeColor=none;fillColor=none;align=center;verticalAlign=middle;whiteSpace=wrap;rounded=0;" parent="1" vertex="1">
          <mxGeometry x="5300" y="720" width="60" height="30" as="geometry" />
        </mxCell>
        <mxCell id="vYLdiH_t_LYaYiqmm7H8-779" value="" style="endArrow=none;html=1;rounded=0;" parent="1" edge="1">
          <mxGeometry width="50" height="50" relative="1" as="geometry">
            <mxPoint x="5431" y="710" as="sourcePoint" />
            <mxPoint x="5490" y="710" as="targetPoint" />
          </mxGeometry>
        </mxCell>
        <mxCell id="vYLdiH_t_LYaYiqmm7H8-780" value="" style="endArrow=none;html=1;rounded=0;" parent="1" edge="1">
          <mxGeometry width="50" height="50" relative="1" as="geometry">
            <mxPoint x="5490" y="710" as="sourcePoint" />
            <mxPoint x="5490" y="540" as="targetPoint" />
          </mxGeometry>
        </mxCell>
        <mxCell id="vYLdiH_t_LYaYiqmm7H8-781" value="" style="endArrow=none;html=1;rounded=0;strokeColor=#FF0000;" parent="1" edge="1">
          <mxGeometry width="50" height="50" relative="1" as="geometry">
            <mxPoint x="4750" y="432.5" as="sourcePoint" />
            <mxPoint x="4830" y="432.5" as="targetPoint" />
          </mxGeometry>
        </mxCell>
        <mxCell id="vYLdiH_t_LYaYiqmm7H8-782" value="" style="endArrow=none;html=1;rounded=0;entryX=1;entryY=1;entryDx=0;entryDy=0;" parent="1" edge="1">
          <mxGeometry width="50" height="50" relative="1" as="geometry">
            <mxPoint x="4755" y="622" as="sourcePoint" />
            <mxPoint x="4830" y="622" as="targetPoint" />
          </mxGeometry>
        </mxCell>
        <mxCell id="vYLdiH_t_LYaYiqmm7H8-783" value="" style="endArrow=none;html=1;rounded=0;" parent="1" edge="1">
          <mxGeometry width="50" height="50" relative="1" as="geometry">
            <mxPoint x="4830" y="622" as="sourcePoint" />
            <mxPoint x="4830" y="527.5" as="targetPoint" />
          </mxGeometry>
        </mxCell>
        <mxCell id="vYLdiH_t_LYaYiqmm7H8-784" value="" style="endArrow=none;html=1;rounded=0;strokeColor=#FF0000;" parent="1" edge="1">
          <mxGeometry width="50" height="50" relative="1" as="geometry">
            <mxPoint x="4830" y="432.5" as="sourcePoint" />
            <mxPoint x="4830" y="527.5" as="targetPoint" />
          </mxGeometry>
        </mxCell>
        <mxCell id="vYLdiH_t_LYaYiqmm7H8-785" value="" style="endArrow=classic;html=1;rounded=0;entryX=0;entryY=0.5;entryDx=0;entryDy=0;strokeColor=#FF0000;" parent="1" edge="1">
          <mxGeometry width="50" height="50" relative="1" as="geometry">
            <mxPoint x="4830" y="512.5" as="sourcePoint" />
            <mxPoint x="4870" y="512.5" as="targetPoint" />
          </mxGeometry>
        </mxCell>
        <mxCell id="vYLdiH_t_LYaYiqmm7H8-786" value="" style="endArrow=none;html=1;rounded=0;strokeColor=#FF0000;exitX=0.999;exitY=0.472;exitDx=0;exitDy=0;exitPerimeter=0;" parent="1" source="vYLdiH_t_LYaYiqmm7H8-723" edge="1">
          <mxGeometry width="50" height="50" relative="1" as="geometry">
            <mxPoint x="5060" y="512" as="sourcePoint" />
            <mxPoint x="5200" y="510" as="targetPoint" />
          </mxGeometry>
        </mxCell>
        <mxCell id="vYLdiH_t_LYaYiqmm7H8-788" value="" style="endArrow=none;html=1;rounded=0;strokeColor=#FF0000;" parent="1" edge="1">
          <mxGeometry width="50" height="50" relative="1" as="geometry">
            <mxPoint x="5200" y="514.75" as="sourcePoint" />
            <mxPoint x="5200" y="410.25" as="targetPoint" />
          </mxGeometry>
        </mxCell>
        <mxCell id="vYLdiH_t_LYaYiqmm7H8-789" value="" style="endArrow=none;html=1;rounded=0;" parent="1" edge="1">
          <mxGeometry width="50" height="50" relative="1" as="geometry">
            <mxPoint x="5200" y="510" as="sourcePoint" />
            <mxPoint x="5200" y="697.5" as="targetPoint" />
          </mxGeometry>
        </mxCell>
        <mxCell id="vYLdiH_t_LYaYiqmm7H8-790" value="" style="endArrow=classic;html=1;rounded=0;entryX=0.001;entryY=0.555;entryDx=0;entryDy=0;strokeColor=#FF0000;entryPerimeter=0;" parent="1" target="vYLdiH_t_LYaYiqmm7H8-741" edge="1">
          <mxGeometry width="50" height="50" relative="1" as="geometry">
            <mxPoint x="5200" y="410" as="sourcePoint" />
            <mxPoint x="5240" y="405" as="targetPoint" />
          </mxGeometry>
        </mxCell>
        <mxCell id="vYLdiH_t_LYaYiqmm7H8-791" value="" style="endArrow=classic;html=1;rounded=0;entryX=0.006;entryY=0.424;entryDx=0;entryDy=0;entryPerimeter=0;" parent="1" target="vYLdiH_t_LYaYiqmm7H8-761" edge="1">
          <mxGeometry width="50" height="50" relative="1" as="geometry">
            <mxPoint x="5200" y="697.5" as="sourcePoint" />
            <mxPoint x="5240" y="705" as="targetPoint" />
          </mxGeometry>
        </mxCell>
        <mxCell id="vYLdiH_t_LYaYiqmm7H8-792" value="" style="endArrow=classic;html=1;rounded=0;strokeColor=#FF0000;" parent="1" edge="1">
          <mxGeometry width="50" height="50" relative="1" as="geometry">
            <mxPoint x="5490" y="540" as="sourcePoint" />
            <mxPoint x="5570" y="540" as="targetPoint" />
          </mxGeometry>
        </mxCell>
        <mxCell id="vYLdiH_t_LYaYiqmm7H8-793" value="" style="rounded=0;whiteSpace=wrap;html=1;" parent="1" vertex="1">
          <mxGeometry x="5570" y="502.5" width="190" height="90" as="geometry" />
        </mxCell>
        <mxCell id="vYLdiH_t_LYaYiqmm7H8-794" value="Text" style="text;html=1;strokeColor=none;fillColor=none;align=center;verticalAlign=middle;whiteSpace=wrap;rounded=0;" parent="1" vertex="1">
          <mxGeometry x="5570" y="502.5" width="60" height="30" as="geometry" />
        </mxCell>
        <mxCell id="vYLdiH_t_LYaYiqmm7H8-795" value="Ehnancement" style="text;html=1;strokeColor=none;fillColor=none;align=center;verticalAlign=middle;whiteSpace=wrap;rounded=0;" parent="1" vertex="1">
          <mxGeometry x="5635" y="532.5" width="60" height="30" as="geometry" />
        </mxCell>
        <mxCell id="vYLdiH_t_LYaYiqmm7H8-796" value="Text" style="text;html=1;strokeColor=none;fillColor=none;align=center;verticalAlign=middle;whiteSpace=wrap;rounded=0;" parent="1" vertex="1">
          <mxGeometry x="5630" y="502.5" width="60" height="30" as="geometry" />
        </mxCell>
        <mxCell id="vYLdiH_t_LYaYiqmm7H8-797" value="" style="rounded=0;whiteSpace=wrap;html=1;" parent="1" vertex="1">
          <mxGeometry x="5570" y="502.5" width="60" height="30" as="geometry" />
        </mxCell>
        <mxCell id="vYLdiH_t_LYaYiqmm7H8-798" value="" style="rounded=0;whiteSpace=wrap;html=1;" parent="1" vertex="1">
          <mxGeometry x="5630" y="562.5" width="60" height="30" as="geometry" />
        </mxCell>
        <mxCell id="vYLdiH_t_LYaYiqmm7H8-799" value="" style="rounded=0;whiteSpace=wrap;html=1;" parent="1" vertex="1">
          <mxGeometry x="5690" y="562.5" width="70" height="30" as="geometry" />
        </mxCell>
        <mxCell id="vYLdiH_t_LYaYiqmm7H8-800" value="" style="rounded=0;whiteSpace=wrap;html=1;" parent="1" vertex="1">
          <mxGeometry x="5570" y="562.5" width="60" height="30" as="geometry" />
        </mxCell>
        <mxCell id="vYLdiH_t_LYaYiqmm7H8-801" value="" style="rounded=0;whiteSpace=wrap;html=1;" parent="1" vertex="1">
          <mxGeometry x="5690" y="502.5" width="70" height="30" as="geometry" />
        </mxCell>
        <mxCell id="vYLdiH_t_LYaYiqmm7H8-802" value="" style="rounded=0;whiteSpace=wrap;html=1;" parent="1" vertex="1">
          <mxGeometry x="5630" y="502.5" width="70" height="30" as="geometry" />
        </mxCell>
        <mxCell id="vYLdiH_t_LYaYiqmm7H8-803" value="88" style="text;html=1;strokeColor=none;fillColor=none;align=center;verticalAlign=middle;whiteSpace=wrap;rounded=0;" parent="1" vertex="1">
          <mxGeometry x="5575" y="502.5" width="60" height="30" as="geometry" />
        </mxCell>
        <mxCell id="vYLdiH_t_LYaYiqmm7H8-804" value="2" style="text;html=1;strokeColor=none;fillColor=none;align=center;verticalAlign=middle;whiteSpace=wrap;rounded=0;" parent="1" vertex="1">
          <mxGeometry x="5635" y="502.5" width="60" height="30" as="geometry" />
        </mxCell>
        <mxCell id="vYLdiH_t_LYaYiqmm7H8-806" value="90" style="text;html=1;strokeColor=none;fillColor=none;align=center;verticalAlign=middle;whiteSpace=wrap;rounded=0;" parent="1" vertex="1">
          <mxGeometry x="5700" y="506.25" width="60" height="30" as="geometry" />
        </mxCell>
        <mxCell id="vYLdiH_t_LYaYiqmm7H8-807" value="88" style="text;html=1;strokeColor=none;fillColor=none;align=center;verticalAlign=middle;whiteSpace=wrap;rounded=0;" parent="1" vertex="1">
          <mxGeometry x="5570" y="562.5" width="60" height="30" as="geometry" />
        </mxCell>
        <mxCell id="vYLdiH_t_LYaYiqmm7H8-808" value="90" style="text;html=1;strokeColor=none;fillColor=none;align=center;verticalAlign=middle;whiteSpace=wrap;rounded=0;" parent="1" vertex="1">
          <mxGeometry x="5695" y="562.5" width="60" height="30" as="geometry" />
        </mxCell>
        <mxCell id="vYLdiH_t_LYaYiqmm7H8-809" value="0" style="text;html=1;strokeColor=none;fillColor=none;align=center;verticalAlign=middle;whiteSpace=wrap;rounded=0;" parent="1" vertex="1">
          <mxGeometry x="5630" y="562.5" width="60" height="30" as="geometry" />
        </mxCell>
        <mxCell id="vYLdiH_t_LYaYiqmm7H8-811" value="" style="endArrow=classic;html=1;rounded=0;strokeColor=#FF0000;exitX=0.991;exitY=0.579;exitDx=0;exitDy=0;exitPerimeter=0;" parent="1" source="vYLdiH_t_LYaYiqmm7H8-503" edge="1">
          <mxGeometry width="50" height="50" relative="1" as="geometry">
            <mxPoint x="3380" y="517.5" as="sourcePoint" />
            <mxPoint x="3450" y="520" as="targetPoint" />
          </mxGeometry>
        </mxCell>
        <mxCell id="cMuODhb1Cl77Y7Ale46m-1" value="" style="endArrow=none;html=1;rounded=0;strokeColor=#FF0000;" parent="1" edge="1">
          <mxGeometry width="50" height="50" relative="1" as="geometry">
            <mxPoint x="2760" y="637.5" as="sourcePoint" />
            <mxPoint x="2780" y="638" as="targetPoint" />
          </mxGeometry>
        </mxCell>
        <mxCell id="cMuODhb1Cl77Y7Ale46m-3" value="" style="endArrow=none;html=1;rounded=0;strokeColor=#FF0000;" parent="1" edge="1">
          <mxGeometry width="50" height="50" relative="1" as="geometry">
            <mxPoint x="2780" y="710" as="sourcePoint" />
            <mxPoint x="2780" y="637.5" as="targetPoint" />
          </mxGeometry>
        </mxCell>
        <mxCell id="cMuODhb1Cl77Y7Ale46m-5" value="" style="endArrow=none;html=1;rounded=0;" parent="1" edge="1">
          <mxGeometry width="50" height="50" relative="1" as="geometry">
            <mxPoint x="2780" y="759.9999999999999" as="sourcePoint" />
            <mxPoint x="2760" y="759.9999999999999" as="targetPoint" />
          </mxGeometry>
        </mxCell>
        <mxCell id="cMuODhb1Cl77Y7Ale46m-7" value="" style="endArrow=none;html=1;rounded=0;strokeColor=#FF0000;" parent="1" edge="1">
          <mxGeometry width="50" height="50" relative="1" as="geometry">
            <mxPoint x="2800" y="710" as="sourcePoint" />
            <mxPoint x="2800" y="510" as="targetPoint" />
          </mxGeometry>
        </mxCell>
        <mxCell id="cMuODhb1Cl77Y7Ale46m-8" value="" style="endArrow=none;html=1;rounded=0;" parent="1" edge="1">
          <mxGeometry width="50" height="50" relative="1" as="geometry">
            <mxPoint x="2780" y="760" as="sourcePoint" />
            <mxPoint x="2780" y="710" as="targetPoint" />
          </mxGeometry>
        </mxCell>
        <mxCell id="cMuODhb1Cl77Y7Ale46m-9" value="" style="endArrow=none;html=1;rounded=0;strokeColor=#FF0000;" parent="1" edge="1">
          <mxGeometry width="50" height="50" relative="1" as="geometry">
            <mxPoint x="4110" y="520" as="sourcePoint" />
            <mxPoint x="4110" y="660" as="targetPoint" />
          </mxGeometry>
        </mxCell>
        <mxCell id="cMuODhb1Cl77Y7Ale46m-10" value="" style="rounded=0;whiteSpace=wrap;html=1;" parent="1" vertex="1">
          <mxGeometry x="117.5" y="703.75" width="190" height="90" as="geometry" />
        </mxCell>
        <mxCell id="cMuODhb1Cl77Y7Ale46m-11" value="Text" style="text;html=1;strokeColor=none;fillColor=none;align=center;verticalAlign=middle;whiteSpace=wrap;rounded=0;" parent="1" vertex="1">
          <mxGeometry x="117.5" y="703.75" width="60" height="30" as="geometry" />
        </mxCell>
        <mxCell id="cMuODhb1Cl77Y7Ale46m-12" value="Task" style="text;html=1;strokeColor=none;fillColor=none;align=center;verticalAlign=middle;whiteSpace=wrap;rounded=0;" parent="1" vertex="1">
          <mxGeometry x="170" y="733.75" width="85" height="30" as="geometry" />
        </mxCell>
        <mxCell id="cMuODhb1Cl77Y7Ale46m-13" value="Text" style="text;html=1;strokeColor=none;fillColor=none;align=center;verticalAlign=middle;whiteSpace=wrap;rounded=0;" parent="1" vertex="1">
          <mxGeometry x="177.5" y="703.75" width="60" height="30" as="geometry" />
        </mxCell>
        <mxCell id="cMuODhb1Cl77Y7Ale46m-14" value="" style="rounded=0;whiteSpace=wrap;html=1;" parent="1" vertex="1">
          <mxGeometry x="117.5" y="703.75" width="60" height="30" as="geometry" />
        </mxCell>
        <mxCell id="cMuODhb1Cl77Y7Ale46m-15" value="" style="rounded=0;whiteSpace=wrap;html=1;" parent="1" vertex="1">
          <mxGeometry x="177.5" y="763.75" width="60" height="30" as="geometry" />
        </mxCell>
        <mxCell id="cMuODhb1Cl77Y7Ale46m-16" value="" style="rounded=0;whiteSpace=wrap;html=1;" parent="1" vertex="1">
          <mxGeometry x="237.5" y="763.75" width="70" height="30" as="geometry" />
        </mxCell>
        <mxCell id="cMuODhb1Cl77Y7Ale46m-17" value="" style="rounded=0;whiteSpace=wrap;html=1;" parent="1" vertex="1">
          <mxGeometry x="117.5" y="763.75" width="60" height="30" as="geometry" />
        </mxCell>
        <mxCell id="cMuODhb1Cl77Y7Ale46m-18" value="" style="rounded=0;whiteSpace=wrap;html=1;" parent="1" vertex="1">
          <mxGeometry x="237.5" y="703.75" width="70" height="30" as="geometry" />
        </mxCell>
        <mxCell id="cMuODhb1Cl77Y7Ale46m-19" value="" style="rounded=0;whiteSpace=wrap;html=1;" parent="1" vertex="1">
          <mxGeometry x="177.5" y="703.75" width="70" height="30" as="geometry" />
        </mxCell>
        <mxCell id="cMuODhb1Cl77Y7Ale46m-20" value="Early Star&lt;span style=&quot;white-space: pre;&quot;&gt;&#x9;&lt;/span&gt;" style="text;html=1;strokeColor=none;fillColor=none;align=center;verticalAlign=middle;whiteSpace=wrap;rounded=0;" parent="1" vertex="1">
          <mxGeometry x="122.5" y="703.75" width="60" height="30" as="geometry" />
        </mxCell>
        <mxCell id="cMuODhb1Cl77Y7Ale46m-21" value="Duration" style="text;html=1;strokeColor=none;fillColor=none;align=center;verticalAlign=middle;whiteSpace=wrap;rounded=0;" parent="1" vertex="1">
          <mxGeometry x="182.5" y="703.75" width="60" height="30" as="geometry" />
        </mxCell>
        <mxCell id="cMuODhb1Cl77Y7Ale46m-22" value="Early Finish" style="text;html=1;strokeColor=none;fillColor=none;align=center;verticalAlign=middle;whiteSpace=wrap;rounded=0;" parent="1" vertex="1">
          <mxGeometry x="247.5" y="703.75" width="60" height="30" as="geometry" />
        </mxCell>
        <mxCell id="cMuODhb1Cl77Y7Ale46m-23" value="Late Start" style="text;html=1;strokeColor=none;fillColor=none;align=center;verticalAlign=middle;whiteSpace=wrap;rounded=0;" parent="1" vertex="1">
          <mxGeometry x="117.5" y="763.75" width="60" height="30" as="geometry" />
        </mxCell>
        <mxCell id="cMuODhb1Cl77Y7Ale46m-24" value="Late Finish" style="text;html=1;strokeColor=none;fillColor=none;align=center;verticalAlign=middle;whiteSpace=wrap;rounded=0;" parent="1" vertex="1">
          <mxGeometry x="242.5" y="763.75" width="60" height="30" as="geometry" />
        </mxCell>
        <mxCell id="cMuODhb1Cl77Y7Ale46m-25" value="Slack" style="text;html=1;strokeColor=none;fillColor=none;align=center;verticalAlign=middle;whiteSpace=wrap;rounded=0;" parent="1" vertex="1">
          <mxGeometry x="177.5" y="763.75" width="60" height="30" as="geometry" />
        </mxCell>
      </root>
    </mxGraphModel>
  </diagram>
</mxfile>
